<svg width="24" height="24" viewBox="0 0 24 24" fill="none" xmlns="http://www.w3.org/2000/svg">
<mask id="mask0_1_21" style="mask-type:alpha" maskUnits="userSpaceOnUse" x="0" y="0" width="24" height="24">
<rect width="24" height="24" fill="#D9D9D9"/>
</mask>
<g mask="url(#mask0_1_21)">
<path d="M14.175 21.775C13.875 21.8417 13.6125 21.7792 13.3875 21.5875C13.1625 21.3959 13.05 21.1334 13.05 20.8C13.05 20.5667 13.1291 20.3542 13.2875 20.1625C13.4458 19.9709 13.6416 19.8417 13.875 19.775C14.2916 19.675 14.6958 19.5459 15.0875 19.3875C15.4791 19.2292 15.8583 19.0334 16.225 18.8C16.4416 18.6667 16.6791 18.6125 16.9375 18.6375C17.1958 18.6625 17.4083 18.7584 17.575 18.925C17.8083 19.1584 17.9125 19.425 17.8875 19.725C17.8625 20.025 17.7166 20.2584 17.45 20.425C16.9333 20.7584 16.4041 21.0334 15.8625 21.25C15.3208 21.4667 14.7583 21.6417 14.175 21.775ZM19 17.5C18.8333 17.3334 18.7375 17.125 18.7125 16.875C18.6875 16.625 18.7416 16.4 18.875 16.2C19.0916 15.8334 19.2833 15.4584 19.45 15.075C19.6166 14.6917 19.75 14.2834 19.85 13.85C19.9166 13.6167 20.05 13.4167 20.25 13.25C20.45 13.0834 20.6666 13 20.9 13C21.2333 13 21.4958 13.1167 21.6875 13.35C21.8791 13.5834 21.9333 13.85 21.85 14.15C21.7166 14.75 21.5375 15.3209 21.3125 15.8625C21.0875 16.4042 20.8083 16.9167 20.475 17.4C20.3083 17.65 20.0791 17.7875 19.7875 17.8125C19.4958 17.8375 19.2333 17.7334 19 17.5ZM20.875 11C20.6416 11 20.4291 10.9167 20.2375 10.75C20.0458 10.5834 19.9166 10.3834 19.85 10.15C19.75 9.71669 19.6166 9.30419 19.45 8.91253C19.2833 8.52086 19.0916 8.15003 18.875 7.80003C18.7416 7.60003 18.6875 7.37503 18.7125 7.12503C18.7375 6.87503 18.8333 6.66669 19 6.50003C19.2333 6.26669 19.4958 6.15836 19.7875 6.17503C20.0791 6.19169 20.3083 6.32503 20.475 6.57503C20.8083 7.05836 21.0916 7.57919 21.325 8.13753C21.5583 8.69586 21.7416 9.26669 21.875 9.85003C21.9416 10.15 21.875 10.4167 21.675 10.65C21.475 10.8834 21.2083 11 20.875 11ZM9.94998 21.75C7.66664 21.2167 5.78748 20.05 4.31248 18.25C2.83748 16.45 2.09998 14.3667 2.09998 12C2.09998 9.61669 2.83331 7.51669 4.29998 5.70003C5.76664 3.88336 7.64164 2.72503 9.92498 2.22503C10.225 2.15836 10.4875 2.22086 10.7125 2.41253C10.9375 2.60419 11.05 2.85836 11.05 3.17503C11.05 3.40836 10.9708 3.62086 10.8125 3.81253C10.6541 4.00419 10.4583 4.13336 10.225 4.20003C8.44164 4.63336 6.97498 5.57503 5.82498 7.02503C4.67498 8.47503 4.09998 10.1334 4.09998 12C4.09998 13.8667 4.67498 15.5125 5.82498 16.9375C6.97498 18.3625 8.44164 19.3084 10.225 19.775C10.4583 19.8417 10.6541 19.975 10.8125 20.175C10.9708 20.375 11.05 20.5917 11.05 20.825C11.05 21.1417 10.9416 21.3917 10.725 21.575C10.5083 21.7584 10.25 21.8167 9.94998 21.75ZM16.3 5.22503C15.9166 4.99169 15.525 4.78753 15.125 4.61253C14.725 4.43753 14.3166 4.30003 13.9 4.20003C13.6666 4.13336 13.4666 4.00419 13.3 3.81253C13.1333 3.62086 13.05 3.40836 13.05 3.17503C13.05 2.85836 13.1625 2.60419 13.3875 2.41253C13.6125 2.22086 13.875 2.15836 14.175 2.22503C14.7583 2.35836 15.325 2.53336 15.875 2.75003C16.425 2.96669 16.9583 3.24169 17.475 3.57503C17.7416 3.74169 17.8875 3.97503 17.9125 4.27503C17.9375 4.57503 17.8333 4.84169 17.6 5.07503C17.4333 5.24169 17.2291 5.34169 16.9875 5.37503C16.7458 5.40836 16.5166 5.35836 16.3 5.22503ZM12.075 16.65C11.9416 16.65 11.8125 16.6292 11.6875 16.5875C11.5625 16.5459 11.4583 16.4834 11.375 16.4C10.275 15.3834 9.44998 14.4334 8.89998 13.55C8.34998 12.6667 8.07498 11.85 8.07498 11.1C8.07498 9.93336 8.45414 8.95836 9.21248 8.17503C9.97081 7.39169 10.925 7.00003 12.075 7.00003C13.225 7.00003 14.1791 7.39169 14.9375 8.17503C15.6958 8.95836 16.075 9.93336 16.075 11.1C16.075 11.85 15.8 12.6667 15.25 13.55C14.7 14.4334 13.875 15.3834 12.775 16.4C12.6916 16.4834 12.5875 16.5459 12.4625 16.5875C12.3375 16.6292 12.2083 16.65 12.075 16.65ZM12.075 12C12.375 12 12.6291 11.8959 12.8375 11.6875C13.0458 11.4792 13.15 11.225 13.15 10.925C13.15 10.625 13.0458 10.3709 12.8375 10.1625C12.6291 9.95419 12.375 9.85003 12.075 9.85003C11.775 9.85003 11.5208 9.95419 11.3125 10.1625C11.1041 10.3709 11 10.625 11 10.925C11 11.225 11.1041 11.4792 11.3125 11.6875C11.5208 11.8959 11.775 12 12.075 12Z" fill="#332922"/>
</g>
</svg>
