<svg width="300" height="221" viewBox="0 0 300 221" fill="none" xmlns="http://www.w3.org/2000/svg">
<g clip-path="url(#clip0_400_9941)">
<path opacity="0.2" d="M154.811 0H153.527V21.936H154.811V0Z" fill="black"/>
<path d="M287.928 219.348C287.928 219.42 223.464 219.48 143.976 219.48C64.4877 219.48 0.0117188 219.42 0.0117188 219.348C0.0117188 219.276 64.4517 219.216 143.976 219.216C223.5 219.216 287.928 219.276 287.928 219.348Z" fill="#263238"/>
<path d="M66.6034 60.9667L10.6484 98.397L65.7664 180.793L121.721 143.363L66.6034 60.9667Z" fill="#F5F5F5"/>
<path d="M92.8075 139.464L92.1715 143.4L64.3555 139.392L64.9915 135.468L92.8075 139.464Z" fill="#E0E0E0"/>
<path d="M78.7913 125.448L82.7873 126.024L78.3593 153.408L74.3633 152.832L78.7913 125.448Z" fill="#E0E0E0"/>
<path d="M53.1728 90.636C53.1728 90.636 47.6048 94.512 40.6448 99.168C33.6848 103.824 28.0208 107.544 27.9728 107.484C27.9368 107.424 33.5408 103.608 40.5008 98.952C47.4608 94.296 53.1248 90.576 53.1728 90.636Z" fill="#E0E0E0"/>
<path d="M73.7512 85.476C73.7512 85.476 64.4632 91.848 52.9312 99.564C41.3872 107.28 32.0032 113.496 31.9552 113.436C31.9192 113.376 41.2432 107.076 52.7872 99.348C64.3312 91.632 73.7152 85.416 73.7632 85.476H73.7512Z" fill="#E0E0E0"/>
<path d="M77.8801 91.644C77.8801 91.644 68.5921 98.016 57.0601 105.732C45.5161 113.448 36.1321 119.664 36.0841 119.604C36.0481 119.544 45.3721 113.244 56.9161 105.516C68.4601 97.8 77.8441 91.584 77.8921 91.644H77.8801Z" fill="#E0E0E0"/>
<path d="M81.9953 97.812C81.9953 97.812 72.7073 104.184 61.1753 111.9C49.6313 119.616 40.2473 125.832 40.1993 125.772C40.1633 125.712 49.4873 119.412 61.0313 111.684C72.5753 103.968 81.9593 97.752 82.0073 97.812H81.9953Z" fill="#E0E0E0"/>
<path d="M86.1242 103.98C86.1242 103.98 76.8362 110.352 65.3042 118.068C53.7602 125.784 44.3762 132 44.3282 131.94C44.2922 131.88 53.6162 125.58 65.1602 117.852C76.7042 110.136 86.0882 103.92 86.1362 103.98H86.1242Z" fill="#E0E0E0"/>
<path d="M253.725 116.177L206.727 147.616L253.017 216.817L300.016 185.378L253.725 116.177Z" fill="#F5F5F5"/>
<path d="M275.724 182.124L275.184 185.424L251.832 182.052L252.36 178.752L275.724 182.124Z" fill="#E0E0E0"/>
<path d="M263.952 170.34L267.312 170.832L263.592 193.824L260.244 193.344L263.952 170.34Z" fill="#E0E0E0"/>
<path d="M242.436 141.108C242.436 141.108 237.768 144.384 231.924 148.296C226.08 152.208 221.316 155.328 221.268 155.268C221.232 155.208 225.936 151.992 231.78 148.08C237.624 144.168 242.388 141.048 242.436 141.108Z" fill="#E0E0E0"/>
<path d="M259.716 136.776C259.716 136.776 251.928 142.14 242.232 148.62C232.536 155.1 224.652 160.308 224.604 160.248C224.568 160.188 232.392 154.884 242.088 148.404C251.784 141.924 259.668 136.716 259.716 136.776Z" fill="#E0E0E0"/>
<path d="M263.184 141.948C263.184 141.948 255.396 147.312 245.7 153.792C236.004 160.272 228.12 165.48 228.072 165.42C228.036 165.36 235.86 160.056 245.556 153.576C255.252 147.096 263.136 141.888 263.184 141.948Z" fill="#E0E0E0"/>
<path d="M266.651 147.132C266.651 147.132 258.863 152.496 249.167 158.976C239.471 165.456 231.587 170.664 231.539 170.604C231.503 170.544 239.327 165.24 249.023 158.76C258.719 152.28 266.603 147.072 266.651 147.132Z" fill="#E0E0E0"/>
<path d="M270.108 152.304C270.108 152.304 262.32 157.668 252.624 164.148C242.928 170.628 235.044 175.836 234.996 175.776C234.96 175.716 242.784 170.412 252.48 163.932C262.176 157.452 270.06 152.244 270.108 152.304Z" fill="#E0E0E0"/>
<path d="M179.36 64.0023L128.082 36.5762L87.7013 112.076L138.98 139.502L179.36 64.0023Z" fill="#F5F5F5"/>
<path d="M130.211 115.884L126.959 117L118.691 94.1761L121.955 93.0601L130.211 115.884Z" fill="#E0E0E0"/>
<path d="M135.191 99.5039L136.379 102.78L113.711 110.544L112.523 107.268L135.191 99.5039Z" fill="#E0E0E0"/>
<path d="M151.309 65.8318C151.273 65.9038 146.065 63.2038 139.693 59.7958C133.321 56.3878 128.185 53.5558 128.221 53.4838C128.257 53.4118 133.465 56.1118 139.837 59.5198C146.209 62.9278 151.345 65.7478 151.309 65.8318Z" fill="#E0E0E0"/>
<path d="M163.609 79.4038C163.573 79.4758 154.957 74.9518 144.385 69.2998C133.801 63.6478 125.269 58.9918 125.305 58.9198C125.341 58.8478 133.945 63.3718 144.529 69.0238C155.101 74.6758 163.645 79.3318 163.609 79.4038Z" fill="#E0E0E0"/>
<path d="M160.583 85.0561C160.547 85.1281 151.931 80.6041 141.359 74.9521C130.775 69.3001 122.243 64.6441 122.279 64.5721C122.315 64.5001 130.919 69.0241 141.503 74.6761C152.075 80.3281 160.619 84.9841 160.583 85.0561Z" fill="#E0E0E0"/>
<path d="M157.56 90.708C157.524 90.78 148.908 86.256 138.336 80.604C127.752 74.952 119.22 70.296 119.256 70.224C119.292 70.152 127.896 74.676 138.48 80.328C149.052 85.98 157.596 90.636 157.56 90.708Z" fill="#E0E0E0"/>
<path d="M154.548 96.3599C154.512 96.4319 145.896 91.9078 135.324 86.2558C124.74 80.6038 116.208 75.9478 116.244 75.8758C116.28 75.8038 124.884 80.3279 135.468 85.9799C146.04 91.6319 154.584 96.2879 154.548 96.3599Z" fill="#E0E0E0"/>
<path d="M124.129 48.4678H184.201C184.201 48.4678 178.657 21.9238 153.709 21.9238C131.521 21.9238 124.129 48.4678 124.129 48.4678Z" fill="#FAA56D"/>
<path d="M154.811 0H153.527V21.936H154.811V0Z" fill="#FAA56D"/>
<path d="M15.9362 188.112C17.6282 188.172 19.2002 189.084 20.3162 190.356C21.4322 191.628 22.1162 193.224 22.5482 194.856C23.3882 198.012 22.8722 201.732 21.9722 204.864C18.5642 203.64 16.4522 200.004 15.5042 198.084C14.0042 195.06 13.1162 188.676 15.9362 188.112Z" fill="#FAA56D"/>
<path d="M26.8796 208.692C25.7996 207.144 25.7756 204.996 26.6276 203.316C27.4796 201.636 29.1116 200.424 30.9116 199.872C31.7396 199.62 32.7116 199.512 33.4316 199.992C34.1036 200.448 34.4036 201.336 34.3196 202.14C34.2356 202.956 33.8276 203.688 33.3356 204.348C31.6796 206.592 29.6516 208.464 26.8676 208.692" fill="#FAA56D"/>
<path d="M27.2632 219.228C27.2632 219.228 27.1912 219 27.1072 218.568C27.0112 218.1 26.9032 217.5 26.7592 216.768C26.4952 215.256 26.0632 213.108 26.3872 210.732C26.6992 208.368 27.6352 206.34 28.6312 205.14C29.1112 204.528 29.5792 204.096 29.9272 203.832C30.0952 203.688 30.2392 203.604 30.3352 203.544C30.4312 203.484 30.4792 203.448 30.4912 203.46C30.5272 203.508 29.6992 204.012 28.7752 205.248C27.8392 206.46 26.9392 208.452 26.6392 210.768C26.3152 213.096 26.7112 215.22 26.9392 216.744C27.0592 217.512 27.1552 218.124 27.2152 218.556C27.2752 218.988 27.2872 219.228 27.2752 219.228H27.2632Z" fill="#263238"/>
<path d="M17.0399 192.912C17.0399 192.912 17.0999 192.996 17.1719 193.176C17.2679 193.368 17.3759 193.62 17.5199 193.932C17.8199 194.592 18.2399 195.552 18.7559 196.752C19.7879 199.14 21.1559 202.464 22.5959 206.16C24.0359 209.856 25.2479 213.24 26.0999 215.7C26.5199 216.924 26.8559 217.92 27.0839 218.616C27.1919 218.94 27.2759 219.204 27.3359 219.42C27.3959 219.6 27.4199 219.696 27.4079 219.708C27.3959 219.72 27.3599 219.624 27.2879 219.444C27.2159 219.24 27.1199 218.976 26.9879 218.664C26.7239 217.956 26.3759 216.972 25.9319 215.772C25.0439 213.336 23.7959 209.964 22.3559 206.268C20.9159 202.572 19.5719 199.248 18.5879 196.836C18.1079 195.66 17.6999 194.688 17.4119 193.992C17.2799 193.668 17.1839 193.416 17.0999 193.212C17.0279 193.032 17.0039 192.936 17.0039 192.936L17.0399 192.912Z" fill="#263238"/>
<path d="M23.2081 212.256C21.1921 208.836 17.4361 206.496 13.4761 206.208C12.4681 206.136 11.2561 206.304 10.8001 207.216C10.3441 208.128 10.9561 209.196 11.6401 209.94C14.4961 213.036 19.3441 214.116 23.2441 212.532" fill="#FAA56D"/>
<path d="M15.0117 208.908C15.0117 208.908 15.2397 208.908 15.6477 208.932C15.8517 208.944 16.1037 208.968 16.3797 209.016C16.6677 209.064 16.9917 209.1 17.3517 209.196C17.7117 209.28 18.0957 209.364 18.5037 209.52C18.9117 209.64 19.3437 209.82 19.7877 210.012C20.6637 210.408 21.5997 210.936 22.4877 211.608C23.3757 212.292 24.1197 213.06 24.7197 213.816C25.0077 214.2 25.2837 214.572 25.5117 214.944C25.7517 215.304 25.9317 215.664 26.0997 215.988C26.2797 216.312 26.3877 216.624 26.4957 216.888C26.6157 217.152 26.6877 217.392 26.7477 217.584C26.8677 217.968 26.9277 218.184 26.9157 218.196C26.8677 218.208 26.6277 217.344 25.9557 216.06C25.7757 215.748 25.5957 215.4 25.3557 215.052C25.1397 214.692 24.8517 214.332 24.5637 213.96C23.9637 213.228 23.2197 212.472 22.3557 211.8C21.4797 211.128 20.5677 210.612 19.7037 210.204C19.2717 210.012 18.8517 209.832 18.4437 209.7C18.0477 209.544 17.6637 209.448 17.3157 209.352C15.9117 209.004 15.0117 208.956 15.0237 208.896L15.0117 208.908Z" fill="#263238"/>
<path d="M241.392 52.5959C239.928 52.9319 239.208 54.6239 239.076 56.1239C238.932 57.6239 239.124 59.2079 238.5 60.5759C237.792 62.1119 236.1 63.2519 236.04 64.9439C236.004 65.9759 236.616 66.9479 236.592 67.9799C236.544 69.6719 234.816 70.9559 234.72 72.6479C234.66 73.8719 235.464 75.0359 235.272 76.2479C235.116 77.1839 234.384 77.9279 234.084 78.8279C233.472 80.6159 234.696 82.5959 236.304 83.6039C238.092 84.7319 240.384 85.0199 242.388 84.3719C244.404 83.7239 246.096 82.1639 246.9 80.2199C247.788 78.0719 247.596 75.6359 247.404 73.3199C246.804 66.0839 246.36 58.8359 246.06 51.5879" fill="#263238"/>
<path d="M237.132 78.1321C237.132 78.1321 237.528 77.9761 237.804 77.3401C237.936 77.0281 237.996 76.6081 237.972 76.1281C237.96 75.6361 237.792 75.1081 237.612 74.5081C237.444 73.9201 237.228 73.2241 237.348 72.4681C237.468 71.6881 238.032 71.0521 238.536 70.4281C238.788 70.1161 239.052 69.7801 239.208 69.4081C239.376 69.0361 239.412 68.6161 239.28 68.2081C239.028 67.3921 238.224 66.7921 237.852 65.8561C237.672 65.3881 237.672 64.8721 237.768 64.4041C237.864 63.9361 238.056 63.5041 238.248 63.0961C238.644 62.2801 239.064 61.5361 239.244 60.7441C239.592 59.1601 239.436 57.6481 239.664 56.4121C239.88 55.1641 240.408 54.2401 240.924 53.7601C241.176 53.5081 241.428 53.3761 241.584 53.2921C241.752 53.2201 241.848 53.1841 241.848 53.1961C241.86 53.2201 241.476 53.3401 240.996 53.8321C240.516 54.3241 240.036 55.2361 239.844 56.4481C239.748 57.0481 239.736 57.7321 239.7 58.4641C239.676 59.1961 239.652 59.9881 239.46 60.8041C239.292 61.6321 238.848 62.4121 238.464 63.2041C238.092 63.9841 237.744 64.9081 238.08 65.7601C238.392 66.6121 239.196 67.2121 239.496 68.1241C239.64 68.5801 239.592 69.0841 239.4 69.4921C239.22 69.9121 238.944 70.2481 238.68 70.5721C238.164 71.2081 237.636 71.8081 237.516 72.5041C237.396 73.2001 237.588 73.8721 237.744 74.4601C237.912 75.0481 238.068 75.6121 238.08 76.1161C238.092 76.6201 238.008 77.0521 237.852 77.3761C237.696 77.7001 237.492 77.9041 237.336 78.0001C237.18 78.1081 237.084 78.1321 237.084 78.1321H237.132Z" fill="#455A64"/>
<path d="M233.209 89.9521L228.709 102.924L209.941 103.932L206.809 110.904L226.405 112.884C230.317 114.504 234.781 112.524 236.209 108.54L241.441 93.9361L233.221 89.9521H233.209Z" fill="#B78876"/>
<path d="M272.04 212.304C272.04 212.304 258.288 168.612 257.988 167.184C257.724 165.9 262.98 134.46 263.64 126.324L245.052 127.02C245.052 127.02 245.052 127.068 245.052 127.152L237.156 127.596L244.236 216.96H252.792L251.94 187.308C257.22 201.468 264.78 215.904 264.78 215.904L272.052 212.304H272.04Z" fill="#B78876"/>
<path d="M252.288 197.928C252.288 197.652 252.18 187.992 252.18 187.992C252.072 188.568 248.904 179.604 248.976 179.052C249.012 178.764 252.288 197.916 252.288 197.916V197.928Z" fill="#A36957"/>
<path d="M248.615 174.816C248.615 174.816 248.579 175.008 248.555 175.356C248.531 175.704 248.531 176.208 248.555 176.832C248.555 177.144 248.603 177.492 248.639 177.852C248.687 178.212 248.735 178.608 248.819 179.016C248.975 179.832 249.215 180.72 249.515 181.62C250.139 183.432 250.823 185.004 251.303 186.156C251.531 186.684 251.735 187.128 251.903 187.512C252.047 187.824 252.143 188.004 252.155 187.992C252.179 187.992 252.119 187.8 251.999 187.464C251.879 187.14 251.711 186.66 251.483 186.084C251.039 184.92 250.391 183.324 249.767 181.536C249.467 180.636 249.227 179.772 249.059 178.968C248.963 178.572 248.915 178.188 248.855 177.828C248.807 177.468 248.759 177.132 248.735 176.82C248.675 176.208 248.651 175.704 248.639 175.356C248.627 175.008 248.603 174.816 248.579 174.816H248.615Z" fill="#A36957"/>
<path d="M244.068 217.392V216.588L252.828 216.204L252.852 219.516L252.312 219.552C249.912 219.696 240.072 220.104 238.464 219.612C236.664 219.072 244.068 217.38 244.068 217.38V217.392Z" fill="#455A64"/>
<path d="M252.971 219.324C252.971 219.324 252.923 219.324 252.827 219.336C252.695 219.336 252.551 219.348 252.395 219.36C251.963 219.384 251.435 219.408 250.811 219.432C249.467 219.48 247.619 219.528 245.579 219.54C243.539 219.54 241.679 219.516 240.347 219.48C239.723 219.456 239.195 219.432 238.763 219.42C238.607 219.42 238.463 219.408 238.331 219.396C238.235 219.396 238.188 219.396 238.188 219.384C238.188 219.384 238.235 219.384 238.343 219.384C238.475 219.384 238.619 219.384 238.775 219.384C239.207 219.384 239.735 219.396 240.359 219.408C241.703 219.432 243.551 219.456 245.591 219.444C247.631 219.444 249.479 219.396 250.823 219.36C251.447 219.348 251.975 219.336 252.407 219.324C252.563 219.324 252.707 219.324 252.839 219.324C252.935 219.324 252.995 219.324 252.995 219.324H252.971Z" fill="#263238"/>
<path d="M241.224 219.6C241.224 219.6 241.164 219.228 240.924 218.844C240.696 218.46 240.36 218.268 240.384 218.244C240.384 218.22 240.768 218.376 241.02 218.796C241.272 219.204 241.26 219.612 241.224 219.612V219.6Z" fill="#263238"/>
<path d="M243.792 218.292C243.792 218.292 243.648 218.16 243.516 217.956C243.384 217.752 243.3 217.584 243.324 217.56C243.348 217.548 243.468 217.692 243.6 217.896C243.732 218.1 243.816 218.268 243.792 218.292Z" fill="#263238"/>
<path d="M244.5 217.92C244.5 217.92 244.344 217.848 244.188 217.716C244.032 217.584 243.936 217.452 243.948 217.428C243.972 217.404 244.104 217.5 244.26 217.632C244.416 217.764 244.512 217.896 244.5 217.92Z" fill="#263238"/>
<path d="M244.943 217.092C244.943 217.092 244.739 217.152 244.487 217.152C244.235 217.152 244.031 217.14 244.031 217.104C244.031 217.08 244.235 217.044 244.487 217.044C244.739 217.044 244.943 217.056 244.943 217.092Z" fill="#263238"/>
<path d="M245.1 216.504C245.1 216.504 244.884 216.636 244.596 216.648C244.296 216.672 244.068 216.612 244.068 216.576C244.068 216.54 244.308 216.564 244.584 216.54C244.86 216.516 245.088 216.468 245.1 216.492V216.504Z" fill="#263238"/>
<path d="M243.492 217.536C243.492 217.536 243.276 217.572 242.928 217.536C242.76 217.512 242.556 217.476 242.328 217.404C242.22 217.368 242.1 217.332 241.992 217.26C241.932 217.224 241.872 217.176 241.848 217.092C241.824 217.008 241.872 216.912 241.932 216.864C242.472 216.588 243 216.888 243.204 217.164C243.312 217.308 243.36 217.44 243.384 217.536C243.408 217.632 243.408 217.692 243.396 217.692C243.372 217.692 243.36 217.476 243.144 217.212C243.036 217.092 242.868 216.96 242.664 216.9C242.472 216.84 242.184 216.828 241.992 216.948C241.908 217.02 241.944 217.116 242.04 217.176C242.136 217.236 242.256 217.272 242.352 217.308C242.568 217.38 242.76 217.428 242.928 217.452C243.264 217.512 243.48 217.512 243.48 217.524L243.492 217.536Z" fill="#263238"/>
<path d="M243.347 217.56C243.347 217.56 243.251 217.428 243.287 217.176C243.299 217.056 243.347 216.9 243.443 216.768C243.539 216.648 243.671 216.468 243.911 216.48C244.043 216.492 244.103 216.648 244.079 216.744C244.079 216.84 244.031 216.924 243.983 216.996C243.899 217.14 243.803 217.248 243.719 217.332C243.539 217.5 243.407 217.572 243.395 217.56C243.395 217.548 243.503 217.464 243.659 217.284C243.731 217.2 243.815 217.08 243.887 216.948C243.959 216.828 244.019 216.612 243.875 216.588C243.731 216.576 243.587 216.72 243.503 216.828C243.419 216.948 243.371 217.08 243.347 217.188C243.299 217.416 243.347 217.56 243.347 217.56Z" fill="#263238"/>
<path d="M252.78 216.936C252.78 216.936 252.528 216.912 252.132 216.96C251.736 217.008 251.196 217.164 250.728 217.548C250.26 217.932 249.984 218.424 249.852 218.796C249.72 219.168 249.708 219.42 249.684 219.42C249.684 219.42 249.684 219.36 249.684 219.24C249.684 219.132 249.72 218.964 249.78 218.772C249.888 218.388 250.164 217.86 250.656 217.464C251.148 217.068 251.712 216.912 252.12 216.888C252.324 216.876 252.492 216.888 252.6 216.888C252.708 216.9 252.768 216.924 252.768 216.924L252.78 216.936Z" fill="#263238"/>
<path d="M248.593 218.628C248.593 218.628 248.029 218.748 247.321 218.748C246.613 218.748 246.049 218.664 246.049 218.64C246.049 218.604 246.625 218.64 247.321 218.64C248.017 218.64 248.593 218.592 248.593 218.628Z" fill="#263238"/>
<path d="M250.297 218.604C250.297 218.604 250.249 218.724 250.189 218.856C250.129 218.988 250.105 219.108 250.069 219.096C250.045 219.096 250.021 218.964 250.093 218.808C250.165 218.652 250.273 218.58 250.297 218.604Z" fill="#263238"/>
<path d="M250.945 217.8C250.945 217.8 250.909 217.908 250.825 218.004C250.741 218.1 250.645 218.148 250.621 218.136C250.597 218.112 250.657 218.028 250.741 217.932C250.825 217.836 250.921 217.788 250.945 217.8Z" fill="#263238"/>
<path d="M251.856 217.44C251.856 217.44 251.736 217.464 251.604 217.512C251.472 217.56 251.388 217.632 251.364 217.608C251.34 217.596 251.412 217.464 251.568 217.416C251.724 217.356 251.856 217.416 251.856 217.44Z" fill="#263238"/>
<path d="M252.516 217.26C252.516 217.26 252.48 217.332 252.408 217.356C252.336 217.38 252.264 217.38 252.252 217.356C252.252 217.332 252.288 217.284 252.36 217.26C252.432 217.236 252.504 217.236 252.516 217.26Z" fill="#263238"/>
<path d="M264.6 216.624L264.264 215.892L272.1 211.956L273.48 214.968L273 215.22C270.864 216.336 262.056 220.728 260.388 220.956C258.528 221.196 264.588 216.624 264.588 216.624H264.6Z" fill="#455A64"/>
<path d="M273.515 214.728C273.515 214.728 273.467 214.752 273.383 214.8C273.263 214.86 273.143 214.932 272.999 215.004C272.615 215.196 272.147 215.436 271.583 215.724C270.383 216.324 268.715 217.128 266.855 217.968C264.995 218.808 263.291 219.54 262.055 220.056C261.479 220.296 260.987 220.488 260.579 220.656C260.435 220.716 260.303 220.764 260.171 220.812C260.075 220.848 260.027 220.86 260.027 220.86C260.027 220.86 260.075 220.836 260.159 220.788C260.279 220.74 260.411 220.68 260.555 220.62C260.951 220.452 261.443 220.236 262.007 219.996C263.243 219.468 264.935 218.724 266.795 217.884C268.655 217.044 270.323 216.252 271.535 215.664C272.099 215.388 272.579 215.16 272.963 214.98C273.107 214.908 273.239 214.848 273.359 214.8C273.443 214.764 273.491 214.74 273.503 214.74L273.515 214.728Z" fill="#263238"/>
<path d="M262.908 219.804C262.908 219.804 262.704 219.492 262.332 219.24C261.96 218.988 261.588 218.94 261.588 218.916C261.588 218.892 261.996 218.88 262.392 219.156C262.788 219.42 262.944 219.804 262.92 219.816L262.908 219.804Z" fill="#263238"/>
<path d="M264.721 217.548C264.721 217.548 264.529 217.488 264.337 217.356C264.133 217.224 263.989 217.104 264.001 217.08C264.013 217.056 264.193 217.14 264.385 217.272C264.589 217.404 264.733 217.524 264.721 217.548Z" fill="#263238"/>
<path d="M265.2 216.924C265.2 216.924 265.032 216.924 264.84 216.864C264.648 216.804 264.504 216.732 264.504 216.708C264.504 216.684 264.672 216.708 264.864 216.768C265.056 216.828 265.2 216.9 265.2 216.924Z" fill="#263238"/>
<path d="M265.272 215.988C265.272 215.988 265.104 216.12 264.876 216.228C264.648 216.336 264.456 216.396 264.444 216.372C264.432 216.348 264.612 216.24 264.84 216.132C265.068 216.024 265.26 215.964 265.272 215.988Z" fill="#263238"/>
<path d="M265.175 215.388C265.175 215.388 265.031 215.592 264.779 215.736C264.515 215.88 264.275 215.916 264.275 215.892C264.275 215.868 264.479 215.784 264.731 215.652C264.983 215.52 265.163 215.376 265.187 215.4L265.175 215.388Z" fill="#263238"/>
<path d="M264.132 216.984C264.132 216.984 263.952 217.104 263.616 217.212C263.448 217.26 263.244 217.308 263.016 217.344C262.896 217.344 262.788 217.38 262.644 217.356C262.584 217.356 262.5 217.32 262.44 217.26C262.38 217.188 262.392 217.092 262.428 217.02C262.8 216.552 263.412 216.6 263.712 216.768C263.868 216.852 263.976 216.96 264.036 217.032C264.096 217.104 264.12 217.164 264.108 217.164C264.096 217.176 263.988 216.984 263.676 216.84C263.532 216.768 263.328 216.72 263.112 216.756C262.908 216.78 262.644 216.888 262.524 217.068C262.476 217.164 262.548 217.248 262.656 217.26C262.764 217.272 262.884 217.26 263.004 217.26C263.232 217.236 263.424 217.2 263.592 217.164C263.928 217.08 264.12 216.996 264.12 217.008L264.132 216.984Z" fill="#263238"/>
<path d="M264.012 217.068C264.012 217.068 263.868 216.984 263.796 216.744C263.76 216.624 263.736 216.468 263.772 216.312C263.808 216.156 263.856 215.952 264.084 215.856C264.204 215.82 264.504 216.072 264.516 216.168C264.552 216.264 264.372 216.216 264.36 216.288C264.336 216.444 264.3 216.588 264.264 216.708C264.18 216.936 264.072 217.056 264.06 217.044C264.048 217.044 264.12 216.912 264.192 216.684C264.228 216.576 264.252 216.432 264.264 216.276C264.288 216.132 264.24 215.916 264.108 215.952C263.976 216 263.904 216.18 263.868 216.324C263.832 216.468 263.844 216.612 263.868 216.72C263.928 216.948 264.036 217.056 264.012 217.068Z" fill="#263238"/>
<path d="M272.364 212.628C272.364 212.628 272.124 212.712 271.788 212.916C271.452 213.12 271.02 213.492 270.744 214.02C270.468 214.56 270.42 215.124 270.456 215.508C270.492 215.904 270.576 216.132 270.564 216.144C270.564 216.144 270.528 216.096 270.492 215.988C270.456 215.88 270.408 215.724 270.384 215.52C270.324 215.124 270.36 214.536 270.648 213.972C270.936 213.408 271.392 213.036 271.74 212.844C271.92 212.748 272.076 212.688 272.184 212.652C272.292 212.616 272.352 212.616 272.352 212.616L272.364 212.628Z" fill="#263238"/>
<path d="M269.232 215.892C269.232 215.892 268.764 216.228 268.116 216.528C267.468 216.828 266.916 216.984 266.904 216.948C266.904 216.924 267.432 216.72 268.068 216.432C268.704 216.144 269.208 215.868 269.22 215.892H269.232Z" fill="#263238"/>
<path d="M270.78 215.172C270.78 215.172 270.78 215.304 270.78 215.448C270.78 215.592 270.804 215.712 270.78 215.724C270.756 215.724 270.684 215.616 270.684 215.448C270.684 215.28 270.756 215.16 270.78 215.172Z" fill="#263238"/>
<path d="M271.032 214.176C271.032 214.176 271.044 214.296 270.996 214.416C270.948 214.536 270.888 214.632 270.864 214.62C270.84 214.62 270.852 214.5 270.9 214.38C270.948 214.26 271.008 214.164 271.032 214.176Z" fill="#263238"/>
<path d="M271.716 213.468C271.716 213.468 271.62 213.54 271.524 213.636C271.428 213.732 271.368 213.828 271.344 213.816C271.32 213.816 271.332 213.672 271.452 213.552C271.572 213.432 271.716 213.432 271.716 213.456V213.468Z" fill="#263238"/>
<path d="M272.244 213.036C272.244 213.036 272.244 213.12 272.184 213.168C272.124 213.228 272.064 213.252 272.052 213.228C272.028 213.204 272.052 213.144 272.112 213.096C272.172 213.036 272.232 213.012 272.244 213.036Z" fill="#263238"/>
<path d="M262.439 111.528L260.975 93.72L268.475 93.852C268.475 93.852 268.823 91.224 267.719 85.464C267.047 81.936 264.695 79.764 262.055 78.48V78.432L261.827 78.372C258.467 76.8 254.963 76.584 254.963 76.584L245.759 76.692C245.759 76.692 238.727 75.816 234.839 80.82C233.339 82.752 228.707 95.964 228.707 95.964L239.747 101.28L238.691 93.96C238.691 93.96 238.895 99.276 239.579 100.956C239.951 101.892 241.055 104.808 241.055 104.808L240.911 113.592L262.439 111.528Z" fill="#FAA56D"/>
<path d="M257.364 91.1401L255.996 96.9601H268.884L268.032 87.2041L257.364 91.1401Z" fill="#FAA56D"/>
<path d="M268.885 96.9602C268.885 96.9602 268.237 96.8522 267.181 96.7922C266.125 96.7322 264.661 96.6722 263.053 96.6842C261.433 96.6842 259.981 96.7562 258.925 96.8402C257.869 96.9242 257.221 97.0082 257.221 97.0442C257.221 97.0802 257.881 97.0682 258.937 97.0442C259.993 97.0082 261.445 96.9722 263.053 96.9602C264.661 96.9602 266.125 96.9722 267.181 96.9842C268.237 96.9842 268.897 96.9842 268.897 96.9482L268.885 96.9602Z" fill="#263238"/>
<path d="M256.812 87.1558C256.812 87.1558 256.764 87.7198 256.764 88.6318C256.764 89.5438 256.812 90.8038 256.86 92.1958C256.92 93.5878 256.98 94.8478 257.04 95.7598C257.1 96.6718 257.16 97.2358 257.196 97.2358C257.232 97.2358 257.244 96.6718 257.244 95.7598C257.244 94.8478 257.196 93.5878 257.148 92.1958C257.088 90.8038 257.028 89.5438 256.968 88.6318C256.908 87.7198 256.848 87.1558 256.812 87.1558Z" fill="#263238"/>
<g opacity="0.3">
<path d="M245.088 92.1958C245.088 92.1958 247.956 113.424 255.996 112.86C255.996 112.86 259.62 112.812 260.784 110.412V109.464L245.088 92.1958Z" fill="black"/>
</g>
<g opacity="0.3">
<path d="M256.812 88.416L255.264 98.82L256.26 100.644L257.904 97.068L257.208 97.056L256.812 88.416Z" fill="black"/>
</g>
<path d="M241.055 104.808C241.055 104.808 240.959 104.64 240.839 104.316C240.719 103.992 240.551 103.512 240.359 102.924C239.975 101.736 239.495 100.08 239.123 98.208C238.751 96.336 238.571 94.62 238.511 93.372C238.487 92.748 238.475 92.244 238.487 91.896C238.487 91.548 238.511 91.356 238.523 91.356C238.559 91.356 238.595 92.124 238.703 93.36C238.811 94.596 239.015 96.3 239.387 98.16C239.759 100.02 240.203 101.676 240.539 102.864C240.695 103.416 240.827 103.896 240.947 104.28C241.043 104.616 241.091 104.808 241.067 104.808H241.055Z" fill="#263238"/>
<path d="M244.308 110.916C244.236 110.94 244.044 110.484 243.864 109.896C243.684 109.308 243.6 108.816 243.672 108.792C243.744 108.768 243.936 109.224 244.116 109.812C244.296 110.4 244.38 110.892 244.308 110.916Z" fill="#263238"/>
<path d="M245.424 110.832C245.352 110.844 245.136 110.16 245.124 109.284C245.112 108.408 245.304 107.712 245.376 107.724C245.448 107.736 245.376 108.432 245.376 109.284C245.376 110.136 245.484 110.82 245.412 110.844L245.424 110.832Z" fill="#263238"/>
<path d="M239.976 101.532C239.94 101.592 237.372 100.38 234.24 98.8081C231.096 97.2361 228.587 95.9161 228.611 95.8561C228.647 95.7961 231.215 97.0081 234.347 98.5801C237.479 100.152 240 101.472 239.976 101.532Z" fill="#263238"/>
<path d="M244.501 78.4199C244.561 75.8999 244.573 73.2359 244.573 73.2359C244.573 73.2359 241.333 72.6119 240.769 68.3519C240.229 64.2959 241.741 54.7679 241.741 54.7679C246.469 52.9799 251.377 54.5999 254.617 58.4279L253.813 78.9119C253.717 81.2879 251.605 83.0999 249.061 82.9799C246.493 82.8599 244.453 80.8199 244.513 78.4079L244.501 78.4199Z" fill="#B78876"/>
<path d="M241.489 62.3881C241.477 62.6761 241.705 62.9281 242.005 62.9521C242.305 62.9761 242.557 62.7601 242.581 62.4721C242.593 62.1841 242.365 61.9321 242.077 61.9081C241.777 61.8841 241.525 62.1001 241.501 62.3881H241.489Z" fill="#263238"/>
<path d="M241.296 61.6801C241.356 61.7521 241.776 61.4641 242.364 61.4761C242.952 61.4761 243.372 61.8001 243.432 61.7281C243.468 61.6921 243.396 61.5721 243.216 61.4281C243.036 61.2841 242.724 61.1521 242.364 61.1401C242.004 61.1401 241.692 61.2601 241.512 61.3921C241.332 61.5241 241.26 61.6561 241.296 61.6801Z" fill="#263238"/>
<path d="M247.428 62.7601C247.416 63.0481 247.644 63.3001 247.944 63.3241C248.244 63.3481 248.496 63.1321 248.52 62.8441C248.544 62.5561 248.304 62.3041 248.016 62.2801C247.716 62.2561 247.464 62.4721 247.44 62.7601H247.428Z" fill="#263238"/>
<path d="M247.392 62.04C247.452 62.112 247.884 61.824 248.46 61.836C249.048 61.836 249.468 62.16 249.528 62.088C249.564 62.052 249.492 61.932 249.312 61.788C249.132 61.644 248.82 61.512 248.46 61.5C248.1 61.5 247.788 61.62 247.608 61.752C247.428 61.884 247.356 62.016 247.392 62.04Z" fill="#263238"/>
<path d="M245.16 66.324C245.16 66.324 244.8 66.216 244.212 66.132C244.068 66.108 243.924 66.084 243.9 65.976C243.864 65.868 243.936 65.712 244.008 65.532C244.152 65.172 244.32 64.8 244.476 64.404C245.136 62.796 245.616 61.476 245.544 61.452C245.484 61.428 244.896 62.7 244.236 64.308C244.08 64.704 243.924 65.076 243.78 65.436C243.72 65.604 243.612 65.796 243.684 66.024C243.72 66.132 243.828 66.216 243.924 66.252C244.02 66.288 244.104 66.288 244.176 66.288C244.764 66.336 245.136 66.348 245.136 66.312L245.16 66.324Z" fill="#263238"/>
<path d="M244.573 73.2479C244.573 73.2479 247.417 73.4999 250.285 71.8799C250.285 71.8799 248.833 74.7599 244.597 74.2559L244.561 73.2479H244.573Z" fill="#A36957"/>
<path d="M249.264 60.3602C249.144 60.5402 248.7 60.4562 248.196 60.3722C247.704 60.2762 247.26 60.1802 247.212 59.9642C247.164 59.7602 247.68 59.4722 248.34 59.6042C249 59.7362 249.384 60.1802 249.252 60.3602H249.264Z" fill="#263238"/>
<path d="M243.445 59.4962C243.397 59.7122 242.929 59.7842 242.377 59.8202C241.825 59.8442 241.345 59.8202 241.285 59.6042C241.225 59.4002 241.681 59.0762 242.341 59.0402C243.001 59.0042 243.493 59.2922 243.445 59.4962Z" fill="#263238"/>
<path d="M245.16 67.7278C245.04 67.6918 244.896 67.7638 244.836 67.8718C244.764 68.0038 244.8 68.1838 244.908 68.2918C245.028 68.3878 245.208 68.3878 245.328 68.2918C245.448 68.1958 245.484 68.0158 245.412 67.8838C245.34 67.7518 245.172 67.6798 245.028 67.7158" fill="#A36957"/>
<path d="M245.305 67.7879C245.305 67.7879 245.209 67.6199 244.957 67.6799C244.837 67.7039 244.681 67.8119 244.633 67.9919C244.585 68.1599 244.633 68.3879 244.813 68.5199C245.005 68.6519 245.221 68.6279 245.377 68.5199C245.533 68.4119 245.581 68.2199 245.557 68.0999C245.509 67.8359 245.317 67.7999 245.305 67.8359C245.281 67.8719 245.377 67.9559 245.353 68.1119C245.353 68.1839 245.305 68.2559 245.233 68.2919C245.161 68.3279 245.041 68.3279 244.981 68.2919C244.909 68.2439 244.873 68.1359 244.897 68.0519C244.897 67.9679 244.969 67.9079 245.029 67.8719C245.173 67.7879 245.293 67.8359 245.305 67.7999V67.7879Z" fill="#263238"/>
<path d="M252.66 63.4441C252.156 64.6081 250.92 65.5081 251.1 66.7801C251.208 67.5961 251.736 68.3521 251.628 69.1681C251.496 70.1881 250.44 70.9081 250.284 71.9281C250.104 73.1761 251.316 74.1601 251.808 75.3241C252.516 77.0281 251.604 78.9361 251.592 80.7841C251.556 83.6041 253.956 86.2441 256.776 86.4841C257.916 86.5801 259.2 86.2321 259.788 85.2601C260.28 84.4561 260.172 83.4241 260.472 82.5361C260.904 81.2041 262.176 80.2201 262.452 78.8521C262.944 76.3441 259.908 74.2561 260.1 71.7121C260.184 70.6201 260.856 69.6721 261.144 68.6161C261.516 67.2361 261.18 65.6761 260.256 64.5841C259.512 63.6961 258.42 63.1081 257.784 62.1361C257.064 61.0321 257.04 59.6281 256.764 58.3441C256.104 55.2001 253.74 52.4641 250.716 51.3481C247.704 50.2321 244.128 50.7841 241.572 52.7401C241.572 52.7401 240.852 56.0281 244.224 56.5801C247.596 57.1321 249.156 56.4961 249.54 57.8521C249.54 57.8521 249.156 59.4361 250.548 60.9361C251.94 62.4481 253.26 62.1241 252.672 63.4801L252.66 63.4441Z" fill="#263238"/>
<path d="M258.036 86.2322C258.036 86.2322 257.928 86.2322 257.724 86.1962C257.52 86.1602 257.232 86.1002 256.86 85.9682C256.14 85.7042 255.12 85.1282 254.244 84.0362C253.812 83.4962 253.404 82.8362 253.14 82.0562C252.864 81.2882 252.696 80.4122 252.684 79.5002C252.66 78.5762 252.792 77.6162 253.044 76.6562C253.164 76.1762 253.332 75.6962 253.524 75.2162C253.716 74.7362 253.944 74.2682 254.076 73.7882C254.22 73.2962 254.196 72.8042 254.076 72.3242C253.944 71.8442 253.728 71.4002 253.512 70.9562C253.296 70.5122 253.068 70.0682 252.936 69.6002C252.792 69.1322 252.732 68.6402 252.828 68.1722C253.032 67.2362 253.596 66.5402 253.932 65.8202C254.292 65.1122 254.4 64.3682 254.388 63.6962C254.328 62.3402 253.752 61.3322 253.272 60.7562C252.78 60.1802 252.408 59.9522 252.42 59.9282C252.42 59.9282 252.816 60.1202 253.344 60.6842C253.848 61.2602 254.472 62.2682 254.568 63.6842C254.592 64.3802 254.496 65.1602 254.124 65.9162C253.776 66.6602 253.224 67.3562 253.056 68.2202C252.876 69.0842 253.296 69.9842 253.74 70.8482C253.956 71.2922 254.184 71.7482 254.328 72.2642C254.472 72.7682 254.484 73.3442 254.328 73.8602C254.184 74.3882 253.956 74.8562 253.764 75.3242C253.572 75.7922 253.416 76.2602 253.296 76.7402C253.044 77.6882 252.912 78.6242 252.924 79.5242C252.924 81.3242 253.548 82.8962 254.388 83.9522C255.216 85.0322 256.2 85.6202 256.896 85.9082C257.604 86.1962 258.036 86.2322 258.024 86.2682L258.036 86.2322Z" fill="#455A64"/>
<path d="M257.545 61.0681C257.545 61.0681 257.281 61.1281 256.801 61.1761C256.321 61.2121 255.613 61.2721 254.749 61.1161C253.909 60.9601 252.829 60.5521 252.157 59.5441C251.821 59.0401 251.689 58.4281 251.473 57.8641C251.269 57.3001 250.873 56.8081 250.333 56.4601C249.241 55.7641 247.957 55.6801 246.841 55.5481C245.713 55.4161 244.657 55.1761 243.937 54.6481C243.217 54.1321 242.845 53.4601 242.749 52.9801C242.689 52.7401 242.701 52.5481 242.713 52.4161C242.737 52.2841 242.749 52.2241 242.749 52.2241C242.785 52.2241 242.713 52.5001 242.845 52.9561C242.965 53.4121 243.337 54.0241 244.045 54.4921C244.741 54.9841 245.749 55.2001 246.877 55.3081C247.993 55.4281 249.325 55.5001 250.489 56.2441C251.065 56.6041 251.509 57.1681 251.725 57.7681C251.953 58.3561 252.073 58.9441 252.373 59.4001C252.985 60.3241 253.981 60.7561 254.797 60.9241C255.625 61.0921 256.333 61.0681 256.813 61.0561C257.293 61.0441 257.557 61.0321 257.557 61.0561L257.545 61.0681Z" fill="#455A64"/>
<path d="M256.308 57.0122C256.308 57.0122 256.104 57.0842 255.72 57.0962C255.336 57.0962 254.772 57.0362 254.148 56.7362C253.836 56.5922 253.512 56.3762 253.224 56.0882C252.924 55.8002 252.684 55.4402 252.456 55.0562C252 54.3002 251.568 53.3642 250.644 52.9802C249.732 52.5842 248.724 52.6802 247.848 52.7402C246.96 52.8242 246.144 52.8482 245.46 52.7162C244.776 52.5962 244.272 52.3202 243.984 52.0562C243.84 51.9242 243.744 51.8162 243.696 51.7322C243.636 51.6482 243.612 51.6002 243.624 51.6002C243.648 51.5882 243.768 51.7562 244.056 51.9842C244.344 52.2122 244.836 52.4522 245.496 52.5362C246.156 52.6442 246.948 52.5962 247.824 52.5002C248.7 52.4282 249.744 52.3202 250.74 52.7522C251.232 52.9682 251.64 53.3402 251.928 53.7362C252.216 54.1442 252.432 54.5642 252.648 54.9482C252.864 55.3322 253.092 55.6802 253.368 55.9442C253.632 56.2202 253.932 56.4242 254.22 56.5802C254.808 56.8802 255.348 56.9762 255.72 57.0002C256.092 57.0242 256.296 57.0002 256.308 57.0122Z" fill="#455A64"/>
<path d="M259.524 85.164C259.524 85.164 259.656 84.828 259.836 84.216C260.016 83.604 260.196 82.68 260.172 81.54C260.136 80.412 259.86 79.032 259.104 77.736C258.744 77.088 258.18 76.5 257.736 75.78C257.508 75.42 257.316 75.024 257.232 74.58C257.148 74.136 257.196 73.668 257.34 73.236C257.616 72.372 258.12 71.652 258.228 70.86C258.36 70.068 257.964 69.336 257.58 68.7C257.388 68.376 257.196 68.052 257.04 67.704C256.896 67.368 256.8 67.008 256.752 66.66C256.68 65.964 256.752 65.328 256.812 64.764C256.956 63.624 256.848 62.688 256.572 62.112C256.308 61.524 255.96 61.356 255.984 61.332C255.984 61.332 256.008 61.332 256.044 61.356C256.08 61.38 256.14 61.416 256.2 61.464C256.332 61.572 256.512 61.764 256.656 62.064C256.968 62.652 257.112 63.624 256.98 64.776C256.944 65.352 256.872 65.976 256.956 66.636C257.028 67.296 257.364 67.92 257.76 68.568C257.952 68.892 258.156 69.24 258.3 69.624C258.444 70.008 258.516 70.452 258.456 70.884C258.336 71.76 257.82 72.492 257.568 73.308C257.436 73.716 257.388 74.124 257.46 74.532C257.532 74.928 257.712 75.3 257.928 75.648C258.36 76.332 258.912 76.932 259.284 77.616C260.052 78.972 260.304 80.376 260.328 81.54C260.328 82.704 260.124 83.64 259.908 84.252C259.8 84.552 259.704 84.792 259.62 84.936C259.548 85.092 259.5 85.164 259.488 85.164H259.524Z" fill="#455A64"/>
<path d="M239.219 178.08C239.219 178.08 235.859 146.244 235.667 134.472C235.475 122.712 240.959 111.096 240.959 111.096L262.451 110.184C262.451 110.184 266.699 122.124 266.771 127.14C266.915 136.884 264.179 146.508 264.503 154.236L265.223 178.068" fill="#263238"/>
<path d="M265.919 138.948C265.919 138.948 265.799 139.044 265.571 139.212C265.511 139.26 265.451 139.296 265.379 139.356C265.307 139.416 265.247 139.488 265.175 139.56C265.019 139.704 264.851 139.872 264.695 140.1C263.999 140.952 263.495 142.464 263.015 144.36C262.751 145.296 262.487 146.352 261.923 147.384C261.779 147.636 261.647 147.9 261.443 148.14C261.347 148.26 261.263 148.392 261.167 148.5L260.831 148.836C260.387 149.28 259.811 149.604 259.211 149.868C258.011 150.396 256.655 150.648 255.407 151.272C254.159 151.884 253.223 153.06 252.647 154.416C252.047 155.772 251.675 157.188 251.171 158.508C250.679 159.828 249.995 161.1 248.927 161.904C247.859 162.744 246.551 162.936 245.411 163.008C244.259 163.08 243.179 163.044 242.219 163.188C241.259 163.32 240.419 163.62 239.819 164.1C239.219 164.568 238.871 165.168 238.703 165.672C238.535 166.188 238.559 166.62 238.619 166.896C238.679 167.172 238.751 167.316 238.739 167.316C238.739 167.316 238.643 167.196 238.571 166.908C238.499 166.632 238.451 166.176 238.607 165.648C238.763 165.12 239.111 164.496 239.735 163.992C240.359 163.488 241.223 163.164 242.207 163.02C243.191 162.864 244.271 162.888 245.411 162.804C246.539 162.72 247.799 162.528 248.795 161.724C249.803 160.956 250.463 159.72 250.943 158.424C251.435 157.116 251.807 155.688 252.419 154.308C252.995 152.928 253.991 151.668 255.299 151.044C256.583 150.408 257.951 150.156 259.115 149.652C259.703 149.4 260.243 149.088 260.675 148.668L260.987 148.356C261.083 148.248 261.167 148.128 261.263 148.008C261.455 147.78 261.587 147.528 261.731 147.288C262.283 146.292 262.559 145.248 262.835 144.312C263.339 142.428 263.879 140.88 264.611 140.04C264.767 139.812 264.959 139.656 265.115 139.512C265.199 139.44 265.259 139.368 265.331 139.32C265.403 139.272 265.475 139.224 265.535 139.188C265.787 139.032 265.907 138.96 265.919 138.96V138.948Z" fill="#FAFAFA"/>
<path d="M266.053 124.212C266.053 124.212 266.077 124.356 266.077 124.644C266.077 124.92 266.053 125.34 265.933 125.868C265.681 126.912 264.925 128.328 263.509 129.624C262.813 130.272 261.961 130.896 260.989 131.46C260.029 132.036 258.961 132.576 257.881 133.188C256.801 133.8 255.673 134.496 254.701 135.432C253.705 136.344 252.961 137.544 252.289 138.816C251.605 140.088 251.005 141.384 250.201 142.5C249.793 143.064 249.337 143.568 248.833 144.012C248.329 144.444 247.777 144.804 247.213 145.092C246.085 145.68 244.933 146.04 243.877 146.376C242.809 146.7 241.813 147 240.949 147.36C240.073 147.72 239.329 148.128 238.717 148.56C238.105 148.992 237.649 149.448 237.313 149.856C236.653 150.684 236.509 151.272 236.473 151.26C236.473 151.26 236.509 151.116 236.617 150.852C236.737 150.6 236.905 150.216 237.241 149.796C237.565 149.364 238.021 148.896 238.633 148.452C239.245 147.996 240.001 147.576 240.877 147.204C241.753 146.82 242.749 146.52 243.817 146.184C244.873 145.848 246.013 145.476 247.105 144.9C247.657 144.612 248.185 144.264 248.677 143.844C249.157 143.424 249.601 142.92 249.997 142.38C250.789 141.288 251.389 140.004 252.061 138.72C252.733 137.436 253.501 136.2 254.533 135.264C255.541 134.316 256.681 133.62 257.773 132.996C258.865 132.384 259.933 131.844 260.893 131.292C261.853 130.74 262.693 130.14 263.389 129.504C264.805 128.256 265.561 126.876 265.837 125.856C266.101 124.836 266.017 124.236 266.053 124.236V124.212Z" fill="#FAFAFA"/>
<path d="M235.777 136.164C235.777 136.164 235.753 136.128 235.729 136.068C235.705 135.996 235.657 135.9 235.633 135.768C235.573 135.504 235.537 135.084 235.681 134.568C235.957 133.548 237.061 132.288 238.837 131.652C239.725 131.352 240.721 131.16 241.765 130.896C242.797 130.62 243.925 130.224 244.765 129.36C245.185 128.928 245.533 128.424 245.833 127.872C246.121 127.308 246.361 126.708 246.577 126.084C247.021 124.836 247.405 123.492 248.161 122.256C248.917 121.02 250.141 120.156 251.413 119.724C252.685 119.256 253.957 119.052 255.145 118.776C256.333 118.512 257.449 118.176 258.397 117.672C259.333 117.144 260.065 116.436 260.593 115.692C261.673 114.192 261.949 112.668 261.985 111.648C262.009 110.616 261.841 110.064 261.877 110.052C261.877 110.052 262.081 110.604 262.081 111.648C262.081 112.68 261.817 114.24 260.737 115.788C260.209 116.556 259.453 117.288 258.493 117.852C257.521 118.392 256.393 118.74 255.193 119.004C254.005 119.28 252.733 119.496 251.497 119.952C250.261 120.384 249.097 121.188 248.377 122.376C247.645 123.564 247.273 124.896 246.817 126.144C246.589 126.768 246.349 127.392 246.049 127.968C245.749 128.544 245.377 129.072 244.933 129.516C244.045 130.416 242.869 130.812 241.813 131.088C240.757 131.352 239.749 131.532 238.885 131.82C237.157 132.408 236.053 133.62 235.765 134.592C235.609 135.072 235.621 135.48 235.669 135.744C235.729 136.008 235.765 136.14 235.753 136.152L235.777 136.164Z" fill="#FAFAFA"/>
<path d="M264.204 163.092C264.204 163.092 264.228 163.2 264.24 163.404C264.24 163.608 264.24 163.92 264.144 164.304C263.964 165.072 263.376 166.128 262.26 167.004C261.708 167.448 261.048 167.856 260.28 168.18C259.524 168.504 258.672 168.768 257.796 169.044C256.92 169.32 255.996 169.608 255.096 170.028C254.196 170.436 253.356 171.048 252.636 171.816C251.904 172.584 251.28 173.412 250.584 174.144C249.888 174.888 249.108 175.488 248.28 175.944C246.636 176.856 244.932 177.156 243.54 177.18C242.124 177.192 241.008 176.904 240.276 176.64C239.904 176.508 239.628 176.376 239.448 176.28C239.268 176.184 239.172 176.136 239.172 176.124C239.172 176.124 239.28 176.148 239.472 176.232C239.664 176.316 239.94 176.424 240.312 176.544C241.044 176.772 242.16 177.036 243.54 177C244.92 176.964 246.576 176.64 248.172 175.74C248.964 175.296 249.72 174.708 250.404 173.976C251.088 173.256 251.712 172.416 252.456 171.636C253.188 170.844 254.064 170.208 254.988 169.8C255.912 169.368 256.848 169.08 257.724 168.816C258.6 168.552 259.44 168.3 260.196 167.988C260.94 167.676 261.6 167.292 262.14 166.872C263.244 166.032 263.844 165.036 264.036 164.292C264.228 163.548 264.156 163.104 264.192 163.104L264.204 163.092Z" fill="#FAFAFA"/>
<path d="M261.756 96.9841L257.604 97.0801C257.328 98.4841 256.668 99.4321 256.668 99.4321C253.2 93.3961 250.5 85.3201 249.828 82.0801C249.924 81.7561 250.044 81.3961 250.188 81.0001C250.356 80.5321 250.212 79.6561 250.128 79.1761C250.008 78.4561 249.804 77.4841 249.744 77.0281C249.564 75.6601 249.336 75.4441 248.856 75.6001C248.208 75.8161 249.12 79.4521 248.592 79.5361C248.304 79.5841 247.956 78.3361 247.848 77.3041C247.752 76.2841 247.284 73.1281 246.948 72.9241C246.456 72.6121 246.024 73.1041 246.144 74.1241C246.276 75.1561 246.432 78.2281 245.892 78.2761C245.364 78.3121 244.908 73.0921 244.908 73.0921C244.908 73.0921 244.992 71.9521 244.368 71.9881C243.24 72.0361 244.116 77.5441 244.212 78.0601C244.284 78.4201 243.696 78.4921 243.636 78.0961C243.588 77.6881 243.312 72.8761 242.16 72.9121C241.272 72.9361 242.844 77.4481 242.352 78.4921C241.86 79.5361 241.512 74.9401 240.672 75.0121C240.36 75.0361 240.132 75.0961 240.708 77.7001C241.02 79.0921 241.932 81.6601 242.724 83.7961C244.056 91.0081 249.924 114.06 259.116 109.836C264.264 107.472 266.352 97.0081 266.352 97.0081H261.756V96.9841Z" fill="#B78876"/>
<path d="M244.033 78.396C244.033 78.396 244.069 78.396 244.153 78.384C244.225 78.36 244.357 78.276 244.345 78.096C244.345 77.784 244.285 77.34 244.213 76.752C244.165 76.164 243.985 75.456 243.985 74.628C243.985 74.208 243.985 73.764 244.009 73.284C244.021 73.044 244.033 72.804 244.081 72.564C244.117 72.336 244.273 72.084 244.441 72.108H244.465C244.645 72.108 244.777 72.24 244.837 72.444C244.897 72.648 244.909 72.888 244.897 73.116V73.128C245.017 74.4 245.137 75.804 245.425 77.292C245.461 77.484 245.509 77.664 245.569 77.856C245.593 77.952 245.629 78.048 245.677 78.144C245.701 78.192 245.725 78.24 245.761 78.288C245.797 78.336 245.845 78.408 245.965 78.42C246.169 78.408 246.229 78.252 246.277 78.156C246.325 78.048 246.349 77.952 246.373 77.844C246.421 77.64 246.433 77.436 246.457 77.232C246.517 76.416 246.481 75.588 246.421 74.736C246.397 74.304 246.301 73.872 246.373 73.488C246.409 73.296 246.493 73.104 246.613 73.02C246.673 72.984 246.745 72.972 246.829 72.996C246.865 72.996 246.913 73.02 246.949 73.044C246.985 73.08 246.973 73.056 247.009 73.116C247.177 73.476 247.261 73.944 247.357 74.364C247.441 74.808 247.525 75.252 247.597 75.708C247.669 76.164 247.729 76.62 247.789 77.088C247.837 77.556 247.897 78.036 248.017 78.504C248.077 78.744 248.149 78.972 248.245 79.212C248.293 79.332 248.353 79.44 248.449 79.56C248.485 79.608 248.605 79.704 248.749 79.668C248.893 79.62 248.929 79.512 248.953 79.44C249.037 79.152 249.013 78.912 249.001 78.66C249.001 78.408 248.965 78.168 248.953 77.928C248.917 77.508 248.881 77.088 248.857 76.68C248.857 76.476 248.857 76.272 248.869 76.08C248.881 75.984 248.893 75.888 248.929 75.816C248.941 75.78 248.965 75.756 248.977 75.744C248.977 75.744 248.989 75.744 249.001 75.732L249.061 75.708C249.397 75.576 249.505 76.032 249.589 76.404C249.661 76.788 249.709 77.196 249.793 77.58C249.925 78.36 250.093 79.14 250.177 79.896C250.213 80.268 250.237 80.652 250.129 80.964C250.009 81.324 249.889 81.684 249.781 82.032V82.068V82.104C250.393 84.78 251.233 87.18 252.013 89.316C252.805 91.44 253.597 93.288 254.293 94.788C254.989 96.288 255.613 97.452 256.045 98.244C256.261 98.616 256.441 98.916 256.561 99.132C256.681 99.336 256.753 99.432 256.753 99.432C256.753 99.432 256.705 99.324 256.597 99.108C256.477 98.88 256.321 98.58 256.117 98.196C255.709 97.392 255.109 96.228 254.437 94.716C253.765 93.204 252.997 91.368 252.229 89.232C251.461 87.108 250.633 84.696 250.045 82.044V82.104C250.153 81.756 250.273 81.408 250.393 81.048C250.525 80.64 250.489 80.244 250.453 79.86C250.369 79.08 250.201 78.324 250.069 77.532C249.997 77.136 249.949 76.74 249.865 76.332C249.817 76.128 249.769 75.924 249.661 75.72C249.613 75.624 249.529 75.504 249.385 75.444C249.241 75.384 249.109 75.396 248.989 75.432L248.905 75.456C248.905 75.456 248.821 75.492 248.797 75.516C248.737 75.576 248.701 75.636 248.665 75.696C248.617 75.816 248.593 75.924 248.581 76.032C248.557 76.248 248.557 76.464 248.569 76.68C248.581 77.1 248.629 77.52 248.665 77.94C248.689 78.18 248.701 78.42 248.713 78.66C248.713 78.888 248.725 79.152 248.677 79.332C248.665 79.38 248.641 79.38 248.677 79.404V79.428C248.677 79.428 248.677 79.416 248.677 79.404C248.677 79.404 248.689 79.38 248.677 79.38C248.677 79.38 248.665 79.38 248.653 79.356C248.593 79.296 248.545 79.188 248.497 79.08C248.413 78.876 248.341 78.648 248.281 78.42C248.161 77.964 248.101 77.508 248.053 77.04C247.993 76.572 247.933 76.104 247.861 75.648C247.789 75.192 247.705 74.736 247.621 74.292C247.513 73.848 247.453 73.404 247.237 72.96C247.225 72.912 247.141 72.816 247.081 72.78C247.021 72.744 246.961 72.72 246.901 72.696C246.769 72.66 246.601 72.672 246.481 72.756C246.229 72.924 246.157 73.176 246.109 73.404C246.073 73.632 246.073 73.86 246.109 74.088C246.133 74.304 246.157 74.508 246.169 74.724C246.229 75.564 246.265 76.392 246.217 77.184C246.205 77.376 246.181 77.58 246.145 77.76C246.133 77.856 246.097 77.94 246.073 78.024C246.061 78.06 246.037 78.096 246.013 78.12C245.989 78.156 245.977 78.12 245.977 78.18C246.001 78.132 245.977 78.156 245.953 78.12C245.929 78.096 245.917 78.048 245.893 78.012C245.857 77.928 245.821 77.844 245.797 77.76C245.737 77.58 245.701 77.4 245.665 77.22C245.365 75.756 245.233 74.352 245.101 73.092C245.101 72.852 245.101 72.612 245.017 72.372C244.981 72.252 244.921 72.132 244.825 72.036C244.729 71.94 244.585 71.892 244.453 71.904H244.477C244.273 71.868 244.129 71.988 244.045 72.108C243.961 72.228 243.925 72.36 243.889 72.492C243.829 72.756 243.829 73.008 243.817 73.236C243.805 73.716 243.793 74.172 243.817 74.592C243.829 75.444 244.021 76.152 244.093 76.728C244.177 77.304 244.249 77.76 244.273 78.06C244.309 78.204 244.189 78.3 244.129 78.324C244.057 78.36 244.021 78.36 244.021 78.36L244.033 78.396Z" fill="#A36957"/>
<path d="M211.547 103.848C211.547 103.848 210.167 103.788 208.655 104.184C206.075 104.856 201.635 107.556 201.455 110.88H204.683C204.683 110.88 202.871 114.732 203.411 114.372C204.791 113.448 207.539 110.664 207.539 110.664L211.559 103.848H211.547Z" fill="#B78876"/>
<path d="M255.599 45.9002C255.527 45.9002 255.239 43.2362 254.939 39.9362C254.651 36.6362 254.471 33.9602 254.543 33.9482C254.615 33.9482 254.903 36.6122 255.203 39.9122C255.491 43.2122 255.671 45.8882 255.599 45.9002Z" fill="#263238"/>
<path d="M269.772 34.116C269.772 34.116 267.648 37.32 264.9 41.184C262.152 45.048 259.872 48.144 259.812 48.108C259.752 48.072 261.936 44.904 264.684 41.04C267.432 37.176 269.712 34.08 269.772 34.116Z" fill="#263238"/>
<path d="M275.653 48.4678C275.665 48.5398 273.121 49.1158 269.965 49.7638C266.809 50.4118 264.241 50.8798 264.229 50.8078C264.217 50.7358 266.761 50.1598 269.917 49.5118C273.073 48.8638 275.641 48.3958 275.653 48.4678Z" fill="#263238"/>
<path d="M106.044 116.976L88.4036 207.636L86.0996 219.504L203.832 218.928C209.112 218.904 213.792 214.212 215.496 207.24L236.376 121.644C237.672 116.352 234.84 110.844 230.82 110.856L111.672 110.976C109.044 110.976 106.74 113.436 106.056 116.976H106.044Z" fill="#FAA56D"/>
<g opacity="0.5">
<path d="M106.044 116.976L88.4036 207.636L86.0996 219.504L203.832 218.928C209.112 218.904 213.792 214.212 215.496 207.24L236.376 121.644C237.672 116.352 234.84 110.844 230.82 110.856L111.672 110.976C109.044 110.976 106.74 113.436 106.056 116.976H106.044Z" fill="black"/>
</g>
<path d="M192.529 201.492L180.061 101.052C179.545 96.936 176.269 93.864 172.405 93.876L145.069 93.96C143.041 93.96 141.109 94.824 139.669 96.36L126.685 110.16L50.6649 110.556C46.0209 110.58 42.4449 114.972 43.0689 119.916L54.6369 212.748C55.1529 216.852 58.4169 219.924 62.2929 219.912L194.773 219.648C209.533 219.948 210.937 215.592 210.937 215.592C194.029 219.336 192.517 201.492 192.517 201.48L192.529 201.492Z" fill="#FAA56D"/>
<g opacity="0.5">
<path d="M135.407 181.392L130.931 186.192L96.5273 155.232L100.991 150.432L135.407 181.392Z" fill="white"/>
<path d="M129.06 149.364L134.004 153.816L102.864 187.248L97.9316 182.808L129.06 149.364Z" fill="white"/>
</g>
<path d="M211.452 51.7559C211.128 51.6239 210.9 51.3119 210.888 50.9399L210.684 46.3079C210.672 46.0199 210.792 45.7319 211.02 45.5519C211.248 45.3719 211.548 45.2999 211.824 45.3599C212.568 45.5399 213.384 45.3719 214.08 44.9159C214.716 44.4959 215.136 43.8719 215.244 43.2119C215.352 42.5519 215.148 41.8199 214.68 41.2079C214.188 40.5479 213.456 40.1039 212.712 40.0199C211.212 39.8519 209.592 40.9919 209.172 42.5279C209.04 43.0199 208.524 43.3199 208.032 43.1879C207.528 43.0439 207.24 42.5399 207.372 42.0479C208.032 39.6359 210.516 37.8959 212.916 38.1719C214.164 38.3159 215.34 39.0119 216.156 40.0799C216.924 41.0999 217.26 42.3479 217.068 43.4999C216.876 44.6639 216.156 45.7439 215.1 46.4519C214.332 46.9679 213.456 47.2439 212.58 47.2799L212.736 50.8439C212.76 51.3599 212.364 51.7919 211.848 51.8159C211.704 51.8159 211.572 51.7919 211.44 51.7439L211.452 51.7559Z" fill="#FAA56D"/>
<path d="M212.808 53.6521C212.832 54.0721 212.52 54.4321 212.1 54.4681C211.68 54.4921 211.32 54.1801 211.284 53.7601C211.26 53.3401 211.572 52.9801 211.992 52.9441C212.412 52.9081 212.772 53.2321 212.808 53.6521Z" fill="#FAA56D"/>
<path d="M195.42 45.228C195.42 45.228 195.444 45.12 195.468 44.928C195.492 44.712 195.528 44.412 195.564 44.04C195.588 43.644 195.684 43.164 195.804 42.612C195.864 42.336 195.9 42.024 196.008 41.712C196.104 41.4 196.212 41.064 196.32 40.704C196.8 39.3 197.544 37.62 198.804 35.952C200.052 34.284 201.792 32.64 204.036 31.392C205.14 30.732 206.4 30.276 207.732 29.868C209.076 29.544 210.504 29.28 211.992 29.316C212.736 29.28 213.492 29.388 214.26 29.448C214.644 29.484 215.016 29.592 215.4 29.652C215.784 29.724 216.168 29.796 216.552 29.928C218.088 30.324 219.588 31.044 221.016 31.944C223.872 33.744 226.284 36.672 227.604 40.224C228.264 42 228.588 43.944 228.576 45.912C228.612 47.88 228.228 49.884 227.532 51.768L227.304 52.332L227.28 52.404L227.316 52.476C228.564 55.356 229.788 58.188 230.988 60.924L231.192 60.684C228.612 59.7 226.116 58.74 223.728 57.816L223.632 57.78L223.56 57.852C221.484 59.856 219.012 61.212 216.504 61.92C213.996 62.628 211.464 62.664 209.16 62.256C206.856 61.848 204.78 60.96 203.04 59.832C201.3 58.692 199.908 57.312 198.84 55.92C197.772 54.504 197.076 53.052 196.536 51.756C196.068 50.424 195.78 49.248 195.648 48.276C195.588 47.784 195.54 47.352 195.492 46.98C195.492 46.608 195.468 46.284 195.468 46.032C195.468 45.792 195.456 45.588 195.444 45.444C195.444 45.312 195.444 45.24 195.432 45.24C195.432 45.24 195.432 45.312 195.432 45.432C195.432 45.576 195.432 45.768 195.432 46.02C195.432 46.284 195.432 46.608 195.432 46.98C195.468 47.364 195.516 47.796 195.564 48.288C195.684 49.272 195.96 50.46 196.416 51.816C196.932 53.136 197.64 54.612 198.708 56.052C199.788 57.48 201.192 58.884 202.944 60.048C204.696 61.212 206.796 62.124 209.148 62.544C211.488 62.964 214.056 62.94 216.624 62.232C219.18 61.524 221.7 60.144 223.824 58.104L223.656 58.14C226.056 59.064 228.552 60.024 231.12 61.02L231.492 61.164L231.324 60.78C230.136 58.044 228.912 55.212 227.664 52.332V52.476L227.892 51.9C228.612 49.98 228.996 47.928 228.96 45.912C228.96 43.908 228.636 41.916 227.952 40.104C226.596 36.48 224.136 33.504 221.22 31.668C219.768 30.756 218.244 30.024 216.672 29.628C216.288 29.496 215.892 29.424 215.508 29.352C215.112 29.28 214.728 29.184 214.344 29.148C213.564 29.088 212.796 28.98 212.04 29.016C210.528 28.992 209.076 29.268 207.708 29.604C206.364 30.024 205.08 30.492 203.964 31.176C201.696 32.46 199.932 34.14 198.684 35.844C197.436 37.548 196.692 39.252 196.224 40.668C196.116 41.028 196.02 41.364 195.924 41.688C195.828 42 195.792 42.324 195.732 42.6C195.624 43.164 195.528 43.644 195.516 44.052C195.492 44.436 195.468 44.736 195.456 44.952C195.444 45.156 195.444 45.252 195.456 45.252L195.42 45.228Z" fill="#263238"/>
</g>
<defs>
<clipPath id="clip0_400_9941">
<rect width="300" height="220.956" fill="white"/>
</clipPath>
</defs>
</svg>
