<?xml version="1.0" standalone="no"?>
<!DOCTYPE svg PUBLIC "-//W3C//DTD SVG 20010904//EN"
 "http://www.w3.org/TR/2001/REC-SVG-20010904/DTD/svg10.dtd">
<svg version="1.0" xmlns="http://www.w3.org/2000/svg"
 width="512.000000pt" height="512.000000pt" viewBox="0 0 512.000000 512.000000"
 preserveAspectRatio="xMidYMid meet">

<g transform="translate(0.000000,512.000000) scale(0.100000,-0.100000)"
fill="#000000" stroke="none">
<path d="M650 5109 c-337 -37 -604 -309 -640 -654 -13 -120 -13 -3650 0 -3770
37 -352 303 -618 655 -655 120 -13 3670 -13 3790 0 352 37 618 303 655 655 6
54 10 817 10 1885 0 1068 -4 1831 -10 1885 -37 352 -303 618 -655 655 -111 12
-3697 11 -3805 -1z m2735 -838 c115 -52 157 -193 90 -307 -46 -78 -117 -124
-204 -131 -79 -7 -154 32 -196 101 -111 182 113 427 310 337z m68 -506 c190
-29 366 -99 497 -200 271 -209 408 -575 370 -993 -6 -75 -16 -145 -21 -154
-27 -50 38 -48 -1257 -48 -1314 0 -1253 -3 -1268 56 -10 38 11 145 49 262 l34
102 -435 0 c-434 0 -436 0 -459 22 -33 31 -32 90 3 117 26 21 36 21 495 21
l468 0 27 48 c15 26 41 66 56 90 l29 42 -645 0 -644 0 -26 31 c-34 40 -33 64
3 100 l29 29 704 0 704 0 47 48 46 47 -410 0 -411 0 -24 28 c-37 43 -26 104
23 126 16 8 179 11 525 11 l501 0 77 44 c78 46 201 99 298 131 156 50 425 68
615 40z m867 -1503 c53 -28 100 -104 100 -161 0 -66 -49 -145 -114 -186 l-49
-30 -1307 0 -1306 0 -42 28 c-125 82 -103 275 41 346 l42 21 1300 0 c1242 0
1302 -1 1335 -18z m-2828 -521 c31 -27 33 -34 33 -91 0 -57 -2 -64 -33 -91
l-32 -29 -224 0 c-224 0 -279 -7 -290 -36 -8 -20 8 -50 31 -59 10 -4 90 -11
178 -15 134 -6 168 -11 212 -30 104 -44 163 -143 163 -270 0 -150 -88 -250
-245 -279 -92 -17 -489 -14 -524 3 -67 35 -83 126 -32 186 l29 35 245 5 c223
5 247 7 266 24 25 22 26 35 7 62 -13 17 -32 20 -178 25 -236 9 -310 42 -368
163 -64 136 -25 296 91 373 66 44 123 51 391 52 l248 1 32 -29z m786 -1 c66
-33 109 -76 144 -143 32 -62 31 -174 -2 -242 -33 -68 -99 -129 -166 -154 -77
-29 -244 -30 -291 -1 -62 37 -65 153 -6 199 21 17 40 21 103 21 42 0 91 5 109
11 27 9 31 16 31 45 0 48 -22 54 -191 54 l-139 0 0 -292 c0 -165 -4 -309 -10
-329 -16 -58 -42 -74 -117 -74 -58 0 -67 3 -88 27 -13 15 -27 47 -30 70 -3 24
-5 205 -3 403 3 328 5 363 21 388 10 16 28 32 40 37 12 5 137 9 278 9 l256 1
61 -30z m1041 16 c74 -39 64 -186 -15 -216 -14 -6 -135 -10 -270 -10 l-244 0
0 -230 0 -230 255 0 255 0 31 -28 c60 -54 44 -175 -27 -202 -14 -6 -163 -10
-350 -10 -275 0 -330 2 -355 16 -57 29 -59 46 -59 456 0 335 2 377 18 408 29
59 34 60 400 60 269 0 338 -3 361 -14z m764 -1 c189 -40 291 -156 318 -362 10
-73 10 -113 1 -185 -24 -180 -104 -290 -254 -348 -60 -22 -78 -24 -329 -28
-230 -3 -271 -1 -298 12 -56 30 -56 28 -56 446 0 212 3 398 8 413 4 15 22 36
40 47 29 18 51 20 267 20 166 0 255 -5 303 -15z m-807 -369 c30 -30 34 -40 34
-86 0 -46 -4 -56 -34 -86 l-34 -34 -172 0 -172 0 -29 29 c-25 26 -29 37 -29
88 0 63 17 98 54 113 11 5 95 9 185 9 l163 1 34 -34z"/>
<path d="M3237 4094 c-44 -44 -34 -94 19 -94 45 0 86 43 82 85 -3 27 -7 30
-39 33 -27 2 -41 -3 -62 -24z"/>
<path d="M3117 3609 c-435 -37 -838 -326 -1051 -755 -38 -76 -116 -282 -116
-306 0 -5 495 -8 1099 -8 993 0 1099 2 1105 16 3 9 6 71 6 139 0 369 -141 653
-397 799 -165 93 -403 136 -646 115z m-92 -184 c29 -28 32 -70 10 -102 -8 -12
-40 -31 -70 -42 -139 -52 -262 -131 -362 -233 -91 -91 -115 -124 -164 -220
-40 -80 -68 -108 -107 -108 -28 0 -82 51 -82 77 0 54 116 245 213 350 94 102
270 223 401 274 90 36 129 37 161 4z"/>
<path d="M1700 2100 c-11 -11 -20 -27 -20 -35 0 -13 148 -15 1273 -15 977 0
1276 3 1285 12 7 7 12 22 12 35 l0 23 -1265 0 c-1252 0 -1265 0 -1285 -20z"/>
<path d="M3710 1300 l0 -232 153 4 c134 3 158 7 201 27 67 33 96 94 96 205 0
104 -23 155 -88 194 -45 26 -54 27 -204 31 l-158 3 0 -232z"/>
</g>
</svg>
