<svg width="470" height="300" viewBox="0 0 470 300" fill="none" xmlns="http://www.w3.org/2000/svg">
<g clip-path="url(#clip0_400_8294)">
<path d="M351.248 278.54C331.821 286.201 311.844 291.536 293.587 294.493C291.928 294.767 290.259 295.021 288.58 295.265C274.75 297.338 260.411 298.75 245.899 299.461C226.564 300.406 206.923 300.112 187.76 298.435C174.988 297.338 162.42 295.621 150.299 293.273C66.8811 277.107 -23.7524 199.367 5.66838 109.656C29.2783 37.6359 126.059 2.80436 221.842 31.8442C227.337 33.5105 232.72 35.3598 237.972 37.3615C264.39 47.4614 292.173 53.8425 320.362 57.4191C389.319 66.1778 441.76 99.6071 450.776 147.231C462.937 211.509 409.53 255.536 351.248 278.54Z" fill="#ECFFF1"/>
<path d="M461.726 143.015C463.232 144.823 465.736 145.565 468.697 145.311C465.135 165.948 455.193 190.506 438.289 214.191C438.228 214.283 438.157 214.374 438.086 214.466C437.333 215.533 436.549 216.6 435.745 217.667C435.715 217.707 435.694 217.748 435.664 217.778C435.643 217.809 435.623 217.829 435.613 217.86C435.511 217.981 435.419 218.114 435.328 218.236C431.278 223.621 427.034 228.732 422.658 233.538L422.587 233.609C401.836 256.359 378.98 268.623 359.176 275.624C355.705 276.854 349.64 278.713 346.445 279.384C343.839 279.922 342.394 280.44 340.023 280.593C339.189 280.654 339.138 283.346 338.344 283.346H338.079C336.146 283.346 334.314 283.194 332.584 282.889C331.526 282.716 330.498 282.473 329.531 282.178C327.292 281.497 325.298 280.522 323.567 279.221C323.283 279.008 323.008 278.794 322.743 278.561C322.122 278.042 321.542 277.473 320.993 276.874C319.66 275.401 318.54 273.694 317.634 271.763C316.322 268.959 315.457 265.697 315.039 262.059C314.134 254.317 315.212 244.837 318.082 234.249C318.754 231.749 319.527 229.189 320.403 226.588C324.27 215.015 330.06 202.405 337.56 189.46C342.791 180.437 348.846 171.272 355.675 162.178C355.797 162.015 355.929 161.843 356.051 161.68C356.092 161.629 356.133 161.578 356.163 161.528C366.198 148.237 376.863 136.491 387.467 126.716C388.454 136.166 391.568 143.055 395.272 143.055C399.76 143.055 403.404 132.864 403.404 120.285C403.404 117.988 403.281 115.763 403.058 113.67C423.503 98.3879 442.431 91.4785 454.684 96.1221C456.312 96.7317 457.828 97.5547 459.212 98.5911C465.481 103.285 469.125 112.044 469.99 123.404C469.583 123.699 469.175 124.014 468.779 124.349C461.39 130.466 458.236 138.818 461.716 143.015H461.726Z" fill="#90D1AA"/>
<path d="M354.908 198.87C361 149.043 349.232 106.614 328.623 104.102C308.014 101.59 286.369 139.947 280.277 189.773C274.185 239.6 285.953 282.029 306.562 284.541C327.171 287.053 348.816 248.697 354.908 198.87Z" fill="#90D1AA"/>
<path d="M317.92 268.196C317.787 268.196 317.675 268.095 317.665 267.963C317.655 267.82 317.757 267.699 317.899 267.688C319.009 267.597 332.879 259.946 351.269 245.426C367.5 232.603 390.673 211.641 408.899 184.593C434.351 146.794 448.375 112.877 454.46 96.0203C454.511 95.8882 454.654 95.8273 454.786 95.8679C454.918 95.9187 454.989 96.061 454.939 96.1931C448.843 113.07 434.799 147.028 409.316 184.867C391.059 211.976 367.846 232.969 351.584 245.812C333.714 259.925 319.426 268.054 317.95 268.186C317.95 268.186 317.94 268.186 317.93 268.186L317.92 268.196Z" fill="#180F10"/>
<path d="M321.461 247.336C321.329 247.336 321.227 247.244 321.207 247.112C316.668 207.739 328.27 105.114 328.392 104.078C328.412 103.935 328.514 103.834 328.677 103.854C328.819 103.874 328.921 103.996 328.9 104.139C328.778 105.175 317.187 207.739 321.716 247.062C321.736 247.204 321.634 247.326 321.492 247.346C321.492 247.346 321.471 247.346 321.461 247.346V247.336Z" fill="#180F10"/>
<path d="M366.778 232.684C364.865 236.819 362.809 241.392 360.723 246.452C360.641 246.665 360.55 246.869 360.468 247.082C360.316 247.468 360.153 247.854 360 248.24C355.614 258.706 352.174 269.842 349.182 279.333C346.486 280.379 343.779 281.375 341.072 282.32C340.074 282.676 339.087 283.011 338.09 283.346C338.019 283.377 337.957 283.397 337.886 283.417C337.886 283.417 337.879 283.421 337.866 283.427C336.523 283.885 335.169 284.322 333.826 284.759C332.513 285.185 331.19 285.592 329.877 285.998C329.826 285.561 329.786 285.114 329.745 284.667C329.663 283.854 329.602 283.031 329.552 282.178C329.46 280.938 329.409 279.668 329.379 278.367C329.328 276.173 329.338 273.886 329.44 271.529C329.48 270.523 329.541 269.507 329.613 268.481C329.786 265.971 330.05 263.4 330.427 260.789C331.231 255.068 332.523 249.175 334.406 243.394C335.352 240.467 336.451 237.561 337.723 234.726C338.334 233.304 338.975 231.942 339.626 230.621C339.688 230.51 339.738 230.398 339.789 230.286C341.479 226.872 343.259 223.783 345.101 221.009C347.707 217.057 350.414 213.744 353.1 211.011C355.594 208.46 358.077 206.418 360.438 204.833C360.753 204.63 361.069 204.427 361.394 204.223C362.066 203.797 362.728 203.411 363.369 203.075C369.312 199.885 374.166 199.783 376.12 201.998C380.211 206.337 374.624 215.827 366.788 232.684H366.778Z" fill="white"/>
<path d="M346.272 249.602C346.16 251.929 346.007 254.215 345.793 256.44C344.928 266.063 343.229 274.75 341.071 282.32C340.074 282.676 339.087 283.011 338.09 283.346C338.018 283.377 337.957 283.397 337.886 283.417C337.886 283.417 337.879 283.421 337.866 283.428C336.522 283.885 335.169 284.322 333.826 284.759C332.513 285.185 331.19 285.592 329.877 285.998C325.277 287.401 320.698 288.671 316.159 289.809C316.342 287.502 316.546 285.094 316.759 282.594C317.054 279.14 317.37 275.512 317.655 271.763C317.746 270.493 317.838 269.233 317.93 267.942C317.981 267.028 318.042 266.113 318.103 265.189C318.713 255.262 318.968 244.704 318.103 234.249C318.082 233.964 318.052 233.69 318.031 233.416C316.688 199.123 303.061 165.064 306.949 153.419C308.353 148.024 315.457 151.316 323.262 161.741C328.178 168.285 333.357 177.653 337.581 189.46C340.827 198.513 343.514 208.999 345.061 220.745C345.081 220.847 345.091 220.918 345.101 221.009C345.549 224.444 345.905 227.98 346.15 231.627C346.272 233.69 346.363 235.732 346.404 237.734C346.516 241.819 346.465 245.771 346.282 249.602H346.272Z" fill="white"/>
<path d="M334.385 243.658C334.304 243.658 334.233 243.617 334.182 243.556C334.1 243.445 334.121 243.282 334.233 243.201C334.406 243.038 334.853 241.819 335.373 240.396C338.151 232.776 345.549 212.535 363.236 202.852C363.358 202.781 363.511 202.832 363.582 202.953C363.654 203.075 363.603 203.228 363.481 203.299C345.956 212.891 338.619 232.999 335.851 240.569C335.088 242.672 334.803 243.404 334.538 243.607C334.497 243.638 334.436 243.658 334.385 243.658Z" fill="#180F10"/>
<path d="M333.816 284.759C332.503 285.185 331.18 285.592 329.867 285.998C325.267 287.4 320.688 288.67 316.149 289.808C308.445 291.749 300.874 293.304 293.577 294.493C291.918 294.767 290.249 295.021 288.57 295.265C275.351 297.246 259.75 298.73 245.889 299.461C234.654 285.084 222.524 260.748 225.485 233.04C227.917 210.198 253.227 216.559 279.543 233.385C291.908 241.28 304.507 251.482 315.05 262.059C316.088 263.096 317.106 264.142 318.103 265.189C318.703 265.819 319.304 266.449 319.884 267.089C321.624 268.968 323.293 270.858 324.87 272.728C325.471 273.439 326.051 274.14 326.621 274.841C327.577 276.02 328.493 277.199 329.369 278.367C330.519 279.891 331.597 281.395 332.595 282.889C332.88 283.306 333.154 283.712 333.419 284.129C333.551 284.342 333.694 284.545 333.816 284.759Z" fill="#90D1AA"/>
<path d="M409.947 256.105C394.987 261.876 352.306 278.723 349.182 279.343C349.182 279.343 342.517 281.69 340.105 282.107C339.24 282.269 339.179 283.214 338.354 283.356C338.202 283.377 338.039 283.407 337.886 283.428C337.886 283.428 337.879 283.431 337.866 283.438C336.319 283.692 334.833 283.926 333.429 284.139C332.136 284.342 330.905 284.515 329.745 284.677C322.326 285.724 317.746 286.1 317.746 286.1C317.166 284.982 317.207 283.631 317.777 282.076C318.347 280.532 319.446 278.784 321.013 276.884C322.092 275.573 323.384 274.191 324.88 272.738C326.295 271.377 327.872 269.954 329.612 268.491C331.007 267.312 332.513 266.103 334.1 264.874C337.611 262.151 341.56 259.316 345.804 256.45C350.393 253.351 355.339 250.202 360.478 247.102C368.314 242.357 376.608 237.704 384.801 233.436C403.454 223.712 420.124 217.697 432.611 215.157C434.514 214.771 436.315 214.466 438.015 214.232C438.106 214.222 438.208 214.212 438.299 214.202C446.309 213.165 451.814 214.09 454.399 216.417C464.962 225.927 445.464 242.418 409.957 256.105H409.947Z" fill="#90D1AA"/>
<path d="M192.309 298.872C191.963 298.841 191.606 298.821 191.26 298.78C190.019 298.689 188.787 298.587 187.556 298.486C184.992 298.272 182.437 298.029 179.903 297.754C179.863 297.744 179.812 297.744 179.771 297.734C178.071 297.5 176.402 297.297 174.754 297.104C173.421 296.952 172.311 296.748 171.009 296.616C138.647 293.446 96.6986 283.661 73.4856 273.124C75.2767 271.773 76.2232 270.31 75.8263 269.141C75.1444 267.099 70.6463 266.774 65.7819 268.41C64.9067 268.704 64.0722 269.04 63.3089 269.405C40.7065 260.88 25.6043 253.229 15.9263 246.035C20.1089 243.515 22.5513 240.67 21.8288 238.77C20.862 236.24 14.6644 236.22 7.64248 238.618C1.76035 231.983 0.223672 225.663 1.21081 219.322C1.4754 217.615 1.92318 215.908 2.51343 214.201C4.40629 208.745 9.00615 204.457 15.3055 201.206C25.2787 196.064 39.4853 193.524 53.8141 193.097C59.9099 199.214 66.4434 202.14 69.3539 199.732C70.7685 198.574 71.1043 196.339 70.514 193.524C79.673 194.276 88.1706 195.881 94.7956 198.157C95.854 198.523 96.892 198.889 97.9402 199.275C105.573 202.059 113.103 205.402 120.441 209.243C129.875 214.161 138.993 219.891 147.562 226.272C148.854 227.217 150.136 228.193 151.398 229.178C159.163 235.255 166.429 241.839 173.014 248.83C174.764 250.679 177.074 253.178 179.547 256.115C181.562 258.482 183.679 261.114 185.714 263.929C194.039 275.461 200.888 289.747 192.288 298.872H192.309Z" fill="#90D1AA"/>
<path d="M172.617 288.163C172.495 288.163 172.383 288.071 172.362 287.939C172.261 287.197 165.819 277.87 151.449 265.859C138.84 255.323 117.388 240.539 86.7766 229.91C28.912 209.832 1.76056 219.414 1.49596 219.516C1.36367 219.566 1.22119 219.495 1.17031 219.363C1.11943 219.231 1.19066 219.089 1.32296 219.038C1.58755 218.937 28.9221 209.294 86.9598 229.433C145.944 249.897 172.597 285.815 172.882 287.868C172.902 288.01 172.8 288.132 172.668 288.152C172.658 288.152 172.647 288.152 172.637 288.152L172.617 288.163Z" fill="#180F10"/>
<path d="M169.598 292.434C176.846 288.145 163.899 252.953 140.679 213.829C117.459 174.705 92.7594 146.465 85.5114 150.753C78.2634 155.042 91.2112 190.234 114.431 229.358C137.651 268.482 162.35 296.722 169.598 292.434Z" fill="white"/>
<path d="M191.454 298.73C190.212 298.639 188.981 298.537 187.75 298.435C185.185 298.222 182.631 297.978 180.097 297.704C180.056 297.704 180.005 297.704 179.964 297.684C179.14 297.602 178.316 297.511 177.492 297.409C176.647 297.318 175.802 297.216 174.958 297.115C173.635 296.952 172.322 296.789 171.009 296.617C164.588 295.926 158.41 295.336 151.887 294.076C151.795 293.894 151.694 293.7 151.592 293.518C147.277 285.338 142.952 276.021 138.82 265.87C137.049 261.521 135.319 257.03 133.63 252.407C132.541 249.389 131.473 246.341 130.424 243.231C126.445 231.414 123.179 219.922 120.655 209.192C117.734 196.756 115.811 185.335 114.956 175.58C113.338 157.199 115.485 144.762 121.774 142.649C122.11 142.537 122.456 142.456 122.802 142.405C135.574 140.505 158.909 178.039 175.741 228.021C178.357 235.794 180.667 243.414 182.661 250.771C183.872 255.252 184.961 259.621 185.938 263.878C188.93 276.935 190.792 288.803 191.464 298.73H191.454Z" fill="#90D1AA"/>
<path d="M175.364 294.249C175.263 294.249 175.161 294.178 175.12 294.076C175.008 293.731 163.325 258.666 146.412 216.722C134.719 187.733 128.603 164.21 125.326 151.57C124.074 146.754 123.087 142.954 122.69 142.649C122.558 142.608 122.486 142.476 122.527 142.344C122.568 142.212 122.72 142.131 122.853 142.171C123.392 142.324 123.83 143.827 125.814 151.438C129.091 164.068 135.207 187.57 146.88 216.528C163.804 258.493 175.487 293.558 175.598 293.914C175.639 294.046 175.568 294.188 175.436 294.239C175.405 294.239 175.385 294.249 175.354 294.249H175.364Z" fill="#180F10"/>
<path d="M355.624 196.715C355.624 196.715 355.604 196.715 355.594 196.715C355.451 196.694 355.359 196.572 355.38 196.43C357.273 182.52 355.675 157.89 355.38 154.882C355.37 154.74 355.471 154.618 355.604 154.608C355.756 154.588 355.868 154.699 355.878 154.831C355.899 155.075 357.954 181.209 355.878 196.501C355.858 196.633 355.756 196.725 355.624 196.725V196.715Z" fill="#180F10"/>
<path d="M355.624 250.171C355.533 250.171 355.441 250.12 355.39 250.029C355.329 249.907 355.39 249.755 355.512 249.694C355.645 249.633 356.245 249.216 357.079 248.637C373.301 237.419 389.39 228.671 404.91 222.635C430.667 212.606 450.624 212.484 454.562 216.234C454.664 216.325 454.664 216.488 454.562 216.589C454.47 216.691 454.308 216.701 454.206 216.589C451.031 213.572 432.804 212.312 405.093 223.103C389.614 229.128 373.556 237.856 357.364 249.053C356.316 249.775 355.889 250.07 355.726 250.151C355.685 250.171 355.655 250.171 355.614 250.171H355.624Z" fill="#180F10"/>
<path d="M151.887 294.33C151.816 294.33 151.744 294.3 151.693 294.249C145.689 287.431 133.508 252.874 132.989 251.411C132.938 251.279 133.009 251.136 133.141 251.086C133.274 251.045 133.416 251.106 133.467 251.238C133.589 251.594 146.127 287.167 152.07 293.914C152.162 294.015 152.151 294.178 152.05 294.269C151.999 294.31 151.938 294.33 151.877 294.33H151.887Z" fill="#180F10"/>
<path d="M349.162 208.501L363.297 217.717L363.755 218.022C363.898 218.114 364.02 218.236 364.112 218.368C365.465 220.217 366.727 222.046 367.979 223.936C369.21 225.826 370.411 227.746 371.49 229.799C371.948 230.672 372.976 231.313 372.192 231.912C370.503 233.202 368.956 232.379 368.447 231.658V231.638C367.226 229.91 365.862 228.213 364.458 226.567C363.053 224.921 361.588 223.275 360.122 221.721L360.937 222.371L345.203 216.437L345.152 216.417C342.853 215.543 341.692 212.982 342.557 210.676C343.422 208.379 345.997 207.221 348.307 208.085C348.613 208.197 348.908 208.359 349.172 208.522L349.162 208.501Z" fill="#F7AF94"/>
<path d="M95.2641 97.2905L92.6894 97.9814C89.5855 98.8146 84.1613 90.7875 83.2454 87.3633L80.5893 75.3938C79.8668 72.7215 86.1967 71.0043 88.6187 70.354L98.5308 77.2024L101.452 85.1889C102.897 90.564 100.129 95.9797 95.2641 97.2905Z" fill="#F7AF94"/>
<path d="M194.273 49.1279L187.21 31.8849L182.254 21.978C186.345 21.348 189.704 18.9907 190.904 15.4242C192.777 9.84591 188.625 3.42423 181.644 1.09739C174.662 -1.22945 167.478 1.39206 165.605 6.98054C164.099 11.492 167.396 15.4852 168.668 19.5902C170.113 24.2236 170.236 29.1922 169.055 33.8967C166.226 45.1753 158.013 59.0551 158.349 66.1372C158.278 66.9094 158.237 67.6816 158.237 68.4742C158.237 81.7138 168.394 92.4437 180.911 92.4437C193.428 92.4437 203.585 81.7138 203.585 68.4742C203.585 60.5182 199.911 53.4971 194.273 49.138V49.1279Z" fill="#5E2D14"/>
<path d="M193.408 6.70622C193.408 6.70622 184.198 4.1152 176.952 5.09064C169.706 6.06609 170.154 16.0034 177.42 20.8603C182.051 23.9594 193.408 6.70622 193.408 6.70622Z" fill="#180F10"/>
<path d="M213.161 60.5591H185.155V93.8563H213.161V60.5591Z" fill="#F7AF94"/>
<path d="M200.409 61.3208C199.941 61.5748 196.491 66.6857 185.165 69.4088V60.5688H188.604L200.409 61.3309V61.3208Z" fill="#180F10"/>
<path d="M192.736 8.61621H213.171V64.5519H190.477C180.178 64.5519 171.823 56.2098 171.823 45.927V29.4968C171.823 17.9744 181.196 8.61621 192.736 8.61621Z" fill="#F7AF94"/>
<path d="M188.523 20.4132C189.805 20.2913 191.016 20.3624 192.278 20.5961C192.899 20.7282 193.53 20.8705 194.151 21.1245C194.771 21.3582 195.423 21.724 195.911 22.0695C196.959 22.7604 197.926 23.5834 198.74 24.5487C199.554 25.514 200.226 26.5606 200.613 27.8205C200.674 28.0339 200.562 28.2574 200.348 28.3184C200.185 28.3692 200.012 28.3083 199.911 28.1762L199.88 28.1254C199.229 27.2617 198.384 26.4793 197.519 25.7985C196.654 25.1177 195.718 24.5284 194.741 24.0204C194.222 23.746 193.835 23.5733 193.337 23.4209C192.858 23.2685 192.329 23.1465 191.8 23.0551C190.752 22.8519 189.612 22.7198 188.543 22.5877H188.482C187.882 22.5064 187.454 21.9577 187.536 21.3582C187.607 20.84 188.024 20.4539 188.513 20.4132H188.523Z" fill="#180F10"/>
<path d="M168.872 117.277C167.692 120.63 158.807 120.569 149.028 117.135C139.248 113.7 132.287 108.193 133.467 104.84C134.648 101.487 143.532 101.548 153.312 104.982C163.092 108.417 170.053 113.924 168.872 117.277Z" fill="#180F10"/>
<path d="M262.61 111.699C262.233 102.574 253.522 89.4056 240.872 74.1846C234.99 67.1126 232.141 58.1507 231.052 49.0263C229.83 38.7536 229.729 28.1253 225.373 18.5335C222.167 11.4717 217.853 2.71298 209.151 1.94076C209.151 1.94076 191.576 1.86963 180.911 1.86963L184.911 8.52501C184.911 8.52501 191.912 23.4412 208.419 37.2905C208.51 37.3819 208.602 37.4632 208.693 37.5546C204.277 44.0474 201.692 55.7223 201.661 66.4115C201.661 77.9746 202.903 88.1965 205.59 93.4801C206.668 96.6198 208.093 100.745 209.64 105.206C208.297 107.431 207.126 109.819 206.17 112.379C199.28 130.75 205.824 150.188 220.783 155.776C235.743 161.365 253.461 151.011 260.361 132.64C263.027 125.528 263.678 118.252 262.61 111.678V111.699Z" fill="#5E2D14"/>
<path d="M176.82 94.0997C176.759 94.0997 176.708 94.0793 176.657 94.0387C158.767 79.4883 168.048 56.3215 168.139 56.0878C168.19 55.9557 168.343 55.8948 168.475 55.9456C168.607 55.9964 168.668 56.1488 168.618 56.2809C168.526 56.5146 159.387 79.3359 176.983 93.6424C177.095 93.7339 177.105 93.8863 177.023 93.9981C176.973 94.059 176.901 94.0895 176.83 94.0895L176.82 94.0997Z" fill="#180F10"/>
<path d="M182.57 97.7782C182.57 97.7782 182.488 97.7782 182.448 97.7477C174.764 93.5106 171.426 84.2846 173.044 71.7663C173.075 71.5123 173.095 71.3498 173.105 71.2786C173.085 71.177 173.136 71.0652 173.238 71.0144C173.36 70.9433 173.513 70.9941 173.584 71.1161C173.635 71.2075 173.635 71.2481 173.553 71.8273C171.966 84.122 175.212 93.1652 182.702 97.3006C182.824 97.3718 182.865 97.5242 182.804 97.6461C182.753 97.7274 182.672 97.7782 182.58 97.7782H182.57Z" fill="#180F10"/>
<path d="M213.171 95.7257C213.1 95.7257 213.028 95.6952 212.978 95.6342C202.129 83.055 211.471 49.0974 211.878 47.6647C211.919 47.5326 212.051 47.4513 212.194 47.492C212.326 47.5326 212.408 47.6749 212.367 47.8069C212.265 48.1524 202.699 82.9331 213.364 95.3091C213.456 95.4107 213.446 95.5732 213.334 95.6647C213.283 95.7053 213.232 95.7257 213.171 95.7257Z" fill="#180F10"/>
<path d="M263.729 105.633C264.268 109.148 256.392 113.263 246.144 114.818C235.896 116.373 227.164 114.787 226.625 111.272C226.085 107.756 233.962 103.641 244.21 102.086C254.458 100.532 263.19 102.117 263.729 105.633Z" fill="#180F10"/>
<path d="M229.759 97.778C229.708 97.778 229.657 97.7576 229.617 97.7271C220.661 91.3766 215.858 79.3969 215.349 62.1133C215.328 61.3817 215.308 60.7517 215.278 60.6399C215.237 60.5078 215.308 60.3656 215.44 60.3148C215.573 60.2741 215.715 60.3351 215.756 60.457C215.817 60.6196 215.827 61.0057 215.868 62.0929C216.377 79.2039 221.109 91.0514 229.922 97.3004C230.034 97.3817 230.064 97.5443 229.983 97.656C229.932 97.7271 229.851 97.7678 229.779 97.7678L229.759 97.778Z" fill="#180F10"/>
<path d="M244.067 153.419C244.067 153.419 243.976 153.409 243.935 153.379C243.813 153.307 243.783 153.145 243.854 153.033C243.925 152.921 250.815 141.389 242.571 116.474C242.531 116.342 242.602 116.2 242.734 116.149C242.867 116.108 243.009 116.18 243.06 116.312C251.395 141.48 244.373 153.186 244.291 153.307C244.24 153.389 244.159 153.429 244.078 153.429L244.067 153.419Z" fill="#180F10"/>
<path d="M252.219 117.826H142.677L148.661 101.629C152.182 92.9111 160.659 87.2007 170.073 87.2007H214.474C229.81 87.2007 243.61 96.4979 249.339 110.703L252.219 117.836V117.826Z" fill="#F7AF94"/>
<path d="M101.858 85.7678C102.113 87.6781 93.8086 88.1353 93.8086 88.1353L94.6431 66.0049C94.694 64.6129 95.5692 63.3732 96.8616 62.855C97.7673 62.4994 98.7646 63.0887 98.8664 64.054C98.8664 64.054 100.484 75.5764 101.858 85.7576V85.7678Z" fill="#F7AF94"/>
<path d="M239.854 169.291C240.851 170.916 242.073 172.542 243.507 174.168C225.312 174.168 207.523 177.175 188.899 174.168C185.694 171.13 182.732 167.98 180.015 164.708C165.127 146.865 157.514 126.198 157.138 109.453C157.107 109.108 157.107 108.772 157.107 108.437H245.034C245.075 108.915 245.115 109.392 245.136 109.89C245.838 126.219 234.053 141.704 235.702 157.463C235.753 157.971 235.824 158.459 235.905 158.967C236.455 162.391 237.666 165.826 239.844 169.291H239.854Z" fill="#F7AF94"/>
<path d="M347.676 207.038L339.352 215.065C334.874 211.59 330.539 207.953 326.244 204.295C321.98 200.617 317.736 196.908 313.574 193.118C309.402 189.338 305.209 185.568 301.382 181.463C297.739 177.592 294.208 173.629 290.392 169.982C284.509 165.511 278.424 161.274 272.348 157.037C269.295 154.903 266.283 152.708 263.24 150.554L262.945 150.341L254.244 143.939L237.361 131.543L236.241 130.72C230.227 126.32 224.274 121.86 218.31 117.399L237.045 94.6387C242.581 99.6175 248.118 104.586 253.603 109.616L270.089 124.695L278.332 132.234C281.039 134.794 283.777 137.304 286.473 139.895C291.837 145.077 297.21 150.239 302.787 155.167L303.479 155.777L303.601 155.919C307.325 160.126 311.386 164.007 315.355 167.98C319.344 171.953 322.967 176.251 326.6 180.539C330.243 184.827 333.826 189.186 337.367 193.575C340.878 197.985 344.369 202.435 347.686 207.028L347.676 207.038Z" fill="#F7AF94"/>
<path d="M262.935 150.34L254.234 143.939L237.351 131.543L254.447 127.997C254.447 127.997 253.918 140.688 262.935 150.34Z" fill="#180F10"/>
<path d="M176.82 110.621C172.22 118.516 167.793 126.777 163.458 135.099L161.697 138.513L156.986 147.648L153.821 153.978L151.063 159.841L150.819 160.328L150.473 161.101C149.516 163.041 147.989 164.911 146.137 166.273C144.275 167.644 142.118 168.538 139.919 168.894C137.721 169.25 135.442 169.097 133.264 168.427C131.086 167.756 129.02 166.496 127.433 164.901C127.036 164.515 126.578 163.986 126.201 163.488L125.906 163.113L125.743 162.869L125.652 162.737L125.295 162.188L124.593 161.101L123.148 158.926C121.255 156.01 119.505 153.013 117.693 150.025C115.882 147.069 114.132 144.061 112.381 141.053C110.631 138.046 108.891 135.038 107.181 132L96.8822 113.853C93.4323 107.817 90.7151 100.207 87.3364 94.1202L100.291 86.9263C104.403 92.4944 108.494 98.0626 112.524 103.661L124.675 120.437C126.7 123.231 128.705 126.046 130.689 128.85C132.134 130.872 133.559 132.894 134.953 134.936C136.164 131.39 137.396 127.854 138.657 124.318C141.934 115.224 146.504 106.649 150.116 98.6011L176.789 110.611L176.82 110.621Z" fill="#F7AF94"/>
<path d="M161.697 138.503L156.985 147.638L153.82 153.968L151.062 159.831C154.462 149.416 157.118 136.471 157.118 136.471H161.188L161.697 138.513V138.503Z" fill="#180F10"/>
<path d="M251.965 108.366C247.029 122.987 242.439 137.487 238.216 151.905C238.206 151.946 238.185 151.986 238.185 152.007C238.185 152.047 238.175 152.108 238.145 152.179C238.012 152.596 237.89 153.002 237.788 153.409C237.788 153.439 237.778 153.449 237.778 153.46C237.381 154.76 237.005 156.071 236.628 157.372C236.364 157.89 236.038 158.398 235.682 158.886C234.023 161.212 231.55 163.245 228.945 164.413C227.856 164.901 226.716 165.256 225.637 165.388C211.726 167.228 197.672 167.431 183.72 165.998C182.336 165.866 181.023 165.368 179.781 164.626C177.532 163.306 175.517 161.151 173.696 158.713C172.739 157.422 171.833 156.051 170.989 154.679C169.36 152.027 167.956 149.456 166.735 146.967C159.967 133.372 158.024 121.615 152.121 108.355C153.719 108.711 155.306 109.046 156.914 109.372C185.948 115.204 215.837 115.346 244.922 109.829C247.283 109.372 249.634 108.884 251.975 108.366H251.965Z" fill="#FF6600"/>
<path d="M96.2512 94.9533C96.1698 94.9533 96.0884 94.9127 96.0375 94.8415C95.9561 94.7196 95.9968 94.5672 96.1189 94.4859C96.1799 94.4453 96.2614 94.4148 96.4852 94.3437C97.3808 94.0592 100.108 93.1752 101.126 90.5943C102.316 87.5359 101.085 81.8966 101.065 81.8356C101.034 81.7035 101.126 81.5613 101.258 81.5308C101.401 81.5003 101.533 81.5918 101.563 81.7238C101.614 81.9575 102.846 87.5765 101.594 90.7772C100.495 93.5918 97.5843 94.5266 96.6379 94.8314C96.5158 94.872 96.4344 94.8924 96.3937 94.9127C96.353 94.9432 96.3021 94.9533 96.2614 94.9533H96.2512Z" fill="#C73112"/>
<path d="M181.23 147.106C189.987 142.058 193.44 131.663 188.944 123.887C184.447 116.111 173.704 113.899 164.947 118.947C156.191 123.995 152.737 134.39 157.234 142.166C161.73 149.942 172.474 152.154 181.23 147.106Z" fill="#FF6600"/>
<path d="M211.787 148.858C220.544 143.81 223.997 133.415 219.501 125.639C215.005 117.863 204.261 115.651 195.504 120.699C186.748 125.747 183.294 136.142 187.791 143.918C192.287 151.694 203.031 153.906 211.787 148.858Z" fill="#FF6600"/>
<path d="M166.053 137.649C155.398 135.292 144.499 131.126 133.834 125.182C128.053 121.961 125.621 114.92 128.237 108.854L128.328 108.65C130.648 103.255 136.978 100.776 142.301 103.255C153.251 108.356 164.293 111.587 174.968 112.969C172.027 121.341 169.045 129.572 166.053 137.67V137.649Z" fill="#FF6600"/>
<path d="M229.474 137.832C240.129 135.475 251.028 131.309 261.693 125.365C267.474 122.144 269.906 115.102 267.29 109.036L267.199 108.833C264.879 103.438 258.549 100.958 253.226 103.438C242.276 108.538 231.234 111.769 220.559 113.151C223.5 121.524 226.482 129.754 229.474 137.852V137.832Z" fill="#FF6600"/>
<path d="M121.276 80.4947L95.8646 82.5371C95.2133 82.5879 94.6027 82.1916 94.3991 81.5718L89.5958 67.0214C89.2701 66.0256 89.9621 64.9791 91.0103 64.8978L116.421 62.8554C117.073 62.8046 117.683 63.2009 117.887 63.8207L122.69 78.3711C123.016 79.3669 122.324 80.4134 121.276 80.4947Z" fill="#99603A"/>
<path d="M245.889 299.462C226.553 300.407 206.912 300.112 187.749 298.435C189.958 272.21 190.66 245.944 189.887 219.739C189.439 203.97 188.431 188.23 186.905 172.542H186.966C186.996 172.837 187.302 173.081 187.872 173.314C190.914 174.523 201.223 174.777 213.415 173.812L213.995 173.782C218.371 173.416 222.462 172.948 226.034 172.39C226.116 172.755 226.278 173.528 226.512 174.686C228.08 181.982 232.69 204.356 237.035 230.093C237.442 232.43 237.829 234.767 238.216 237.155C239.305 243.882 240.363 250.75 241.32 257.589C241.798 260.993 242.256 264.386 242.683 267.76C243.111 271.123 243.497 274.456 243.854 277.717C243.894 277.931 243.904 278.144 243.935 278.357C244.525 283.814 245.39 292.898 245.889 299.462Z" fill="#B3371E"/>
<path d="M351.238 278.54C331.811 286.202 311.834 291.536 293.577 294.493C291.918 294.767 290.249 295.021 288.57 295.265C280.938 285.541 270.639 273.267 263.067 264.478C257.47 257.995 251.761 251.614 245.95 245.345C243.386 242.601 240.811 239.868 238.216 237.165C238.134 237.074 238.043 236.982 237.961 236.911C225.648 224.078 212.845 211.733 199.616 199.905C203.218 196.42 205.925 180.996 211.777 175.367C212.469 174.666 213.202 174.137 213.995 173.782C218.371 173.416 222.462 172.948 226.034 172.39C233.555 171.272 238.765 169.849 239.284 168.65C239.284 168.64 239.305 168.61 239.305 168.6C261.246 175.265 274.536 186.523 285.354 200.048C285.354 200.048 285.375 200.078 285.446 200.159C285.66 200.424 285.883 200.708 286.107 200.982C286.23 201.135 286.352 201.287 286.474 201.46C294.798 212.129 301.739 224.139 310.297 236.393C319.731 249.927 333.49 265.585 351.238 278.54Z" fill="#B3371E"/>
<path d="M351.645 208.684L367.399 218.5L367.826 218.764C367.989 218.865 368.132 219.008 368.244 219.16C369.597 221.009 370.859 222.838 372.111 224.728C373.342 226.618 374.543 228.538 375.622 230.591C376.08 231.465 377.708 231.82 376.965 232.471C375.092 234.117 373.088 233.172 372.579 232.44V232.42C371.358 230.693 369.994 228.996 368.59 227.35C367.185 225.704 365.72 224.058 364.254 222.503L365.099 223.163L347.687 216.599C345.387 215.736 344.227 213.165 345.092 210.869C345.957 208.572 348.531 207.414 350.831 208.278C351.106 208.379 351.36 208.501 351.594 208.654L351.645 208.684Z" fill="#F7AF94"/>
<path d="M344.043 211.682C344.013 211.54 343.972 211.397 343.911 211.255L343.809 211.031C343.809 211.031 343.738 210.92 343.748 210.93L343.84 211.031C343.921 211.143 344.074 211.296 344.216 211.448C344.521 211.763 344.888 212.098 345.264 212.424C346.007 213.094 346.842 213.755 347.697 214.395C349.427 215.705 351.197 216.904 353.162 218.144C355.309 219.546 357.324 221.192 358.983 223.164C359.817 224.139 360.55 225.196 361.211 226.303C361.852 227.462 362.392 228.508 362.819 229.982C363.124 231.028 362.89 233.761 361.832 234.076C360.957 234.33 359.685 232.329 359.227 231.587L359.054 231.313C358.637 230.642 358.006 229.687 357.354 228.955C356.703 228.173 356.001 227.431 355.227 226.761C353.701 225.409 352.012 224.251 350.18 223.346C348.134 222.31 345.946 221.172 343.901 219.831C342.873 219.15 341.855 218.439 340.848 217.616C340.349 217.199 339.861 216.762 339.352 216.254C339.097 215.99 338.843 215.736 338.568 215.401C338.446 215.258 338.273 215.035 338.131 214.821C338.059 214.72 337.927 214.517 337.846 214.354L337.774 214.232L337.642 213.948C337.55 213.744 337.479 213.531 337.428 213.328C336.97 211.499 338.08 209.65 339.911 209.192C341.743 208.735 343.595 209.843 344.053 211.672L344.043 211.682Z" fill="#F7AF94"/>
<path d="M347.32 205.849L369.505 218.52L369.821 218.703C369.943 218.774 370.044 218.855 370.136 218.946C371.876 220.745 373.515 222.543 375.143 224.413C376.751 226.283 381.341 232.399 381.341 232.399C379.834 233.7 377.575 233.151 376.985 232.471L376.965 232.45C375.438 230.723 373.728 229.067 371.988 227.451C370.248 225.846 368.426 224.261 366.615 222.767L367.246 223.194L343.351 213.744C341.071 212.84 339.952 210.259 340.858 207.983C341.763 205.707 344.348 204.589 346.628 205.493C346.821 205.565 347.004 205.656 347.177 205.758L347.32 205.839V205.849Z" fill="#F7AF94"/>
<path d="M145.883 152.23C145.781 152.23 145.679 152.169 145.649 152.068C143.807 147.018 138.26 138.574 129.61 127.671C129.335 127.326 129.162 127.112 129.122 127.051C129.04 126.94 129.071 126.777 129.183 126.696C129.295 126.615 129.458 126.645 129.539 126.757C129.58 126.808 129.742 127.021 130.007 127.356C138.688 138.31 144.254 146.794 146.117 151.895C146.168 152.027 146.096 152.169 145.964 152.22C145.934 152.22 145.903 152.23 145.873 152.23H145.883Z" fill="#C73112"/>
<path d="M80.9352 75.3633C82.0139 74.5199 91.0915 70.7807 92.3127 70.1914C97.2383 67.8138 98.7139 69.531 98.3475 70.039C97.3502 71.4514 95.5998 72.6808 94.5109 73.6664C93.422 74.6317 84.3851 79.448 83.0316 79.9459C81.5051 80.5047 80.1109 79.6817 79.7547 77.6597C79.5308 76.3794 79.9277 76.1558 80.8945 75.3938L80.9352 75.3633Z" fill="#F7AF94"/>
<path d="M79.0423 72.8334C79.2866 72.1425 79.8361 71.5938 80.4976 71.2788C83.6931 69.7648 91.3968 66.3711 93.9715 65.8834C97.5639 64.9384 97.8896 65.6192 98.0829 66.5743C98.2457 67.3973 94.9383 68.9011 94.2056 69.2263C94.2056 69.2263 91.3561 70.5675 88.9748 71.7868C86.5934 72.9858 84.1918 74.2458 81.8206 75.3939H81.7901C80.4162 76.0747 79.3578 75.3635 78.9609 73.8901C78.8693 73.5345 78.9202 73.1585 79.0423 72.8232V72.8334Z" fill="#F7AF94"/>
<path d="M83.3063 79.6817C85.6877 78.3507 88.242 77.4464 90.8371 76.6538C93.4423 75.8816 97.6656 74.9874 97.6656 74.9874C98.6731 74.8553 101.553 74.8553 101.482 76.5014C101.482 76.5014 95.1113 80.0272 92.6485 81.2465C90.1756 82.4455 87.4279 83.7258 84.7412 84.3862C83.1333 84.7825 81.2608 84.244 80.8639 82.6386C80.5383 81.3075 82.1055 80.3524 83.2555 79.7122L83.3063 79.6817Z" fill="#F7AF94"/>
<path d="M85.698 83.8476C86.4918 83.8476 87.4891 83.8679 88.3948 83.8984C89.3209 83.9289 90.2571 83.9289 91.1832 83.9289C92.1195 83.9289 93.0455 83.8679 93.9818 83.8171C94.9282 83.7663 95.8441 83.6241 96.8211 83.5225L96.2614 83.5834C97.0144 83.5021 98.8564 84.061 98.6224 85.4734C98.5308 85.9916 93.7172 87.0889 91.5597 87.5157C90.481 87.7291 89.2598 87.8408 88.1607 87.8612C87.0413 87.8916 86.0134 87.9018 84.7922 87.6579C83.51 87.4039 82.2074 86.5606 82.4618 85.2803C82.6857 84.1524 84.3852 83.8476 85.4944 83.8476H85.698Z" fill="#F7AF94"/>
<path d="M183.943 44.3521C183.506 44.3521 183.17 44.3013 182.987 44.1794C182.854 44.0879 182.783 43.9558 182.783 43.8136C182.783 43.1226 183.353 32.027 183.373 31.5596C183.373 31.4173 183.475 31.2954 183.638 31.3157C183.781 31.3157 183.882 31.4376 183.882 31.5799C183.882 31.6917 183.323 42.7467 183.292 43.7729C183.76 44.0473 187.037 43.5494 188.502 42.9601C188.635 42.9093 188.777 42.9702 188.838 43.1023C188.889 43.2344 188.828 43.3767 188.696 43.4376C187.79 43.8034 185.368 44.3623 183.943 44.3623V44.3521Z" fill="#C73112"/>
<path d="M204.765 151.702C202.974 151.702 200.999 151.529 199.025 151.123C195.636 150.452 191.047 148.867 188.472 145.159C187.129 143.218 186.264 141.114 185.918 138.899C184.941 132.64 188.431 127.489 188.462 127.438C188.543 127.326 188.706 127.296 188.818 127.377C188.93 127.458 188.96 127.611 188.879 127.733C188.848 127.783 185.47 132.772 186.416 138.828C186.752 140.962 187.576 143.004 188.879 144.874C191.352 148.44 195.809 149.975 199.107 150.625C204.907 151.804 210.138 150.96 211.186 149.873C211.288 149.772 211.441 149.772 211.542 149.873C211.644 149.975 211.644 150.127 211.542 150.229C210.698 151.113 208.032 151.702 204.734 151.702H204.765Z" fill="#180F10"/>
<path d="M173.451 150.523C171.711 150.523 169.961 150.35 168.312 150.005C164.007 149.09 160.527 147.048 158.268 144.091C151.429 135.2 158.827 124.064 158.899 123.952C158.98 123.83 159.133 123.81 159.255 123.881C159.367 123.963 159.397 124.115 159.326 124.237C159.255 124.349 152.07 135.19 158.675 143.786C161.443 147.394 165.503 148.897 168.424 149.517C171.66 150.198 175.334 150.198 178.509 149.507C179.466 149.294 180.331 149.04 181.063 148.735C181.196 148.684 181.338 148.735 181.399 148.877C181.45 149.009 181.399 149.151 181.257 149.212C180.483 149.527 179.598 149.791 178.611 150.015C176.983 150.371 175.212 150.543 173.451 150.543V150.523Z" fill="#180F10"/>
<path d="M176.942 150.016C177.166 149.945 177.715 149.812 178.519 149.66C178.01 149.802 177.491 149.924 176.942 150.016Z" fill="#180F10"/>
<path d="M194.466 149.974C186.589 147.424 177.176 150.991 171.09 150.168C180.911 149.06 185.358 142.872 186.009 134.865C186.315 136.836 185.002 139.112 188.686 145.026C190.782 148.379 194.995 150.076 199.076 150.889L197.794 150.706C196.664 150.543 195.545 150.33 194.466 149.985V149.974Z" fill="#180F10"/>
<path d="M234.39 139.56C234.39 139.56 234.329 139.56 234.298 139.539C234.166 139.489 234.105 139.336 234.156 139.214C235.031 136.969 239.895 134.337 248.617 131.401C248.749 131.36 248.891 131.431 248.942 131.563C248.983 131.695 248.912 131.837 248.779 131.888C242.887 133.88 235.641 136.796 234.634 139.407C234.593 139.509 234.502 139.57 234.4 139.57L234.39 139.56Z" fill="#180F10"/>
<path d="M208.001 162.096C208.001 162.096 207.991 162.096 207.981 162.096C202.201 161.731 190.843 159.211 184.961 152.149C184.87 152.037 184.89 151.885 184.992 151.793C185.104 151.702 185.256 151.722 185.348 151.824C191.128 158.753 202.313 161.223 208.012 161.588C208.154 161.588 208.256 161.72 208.246 161.853C208.246 161.985 208.123 162.086 207.991 162.086L208.001 162.096Z" fill="#180F10"/>
<path d="M229.759 164.474C226.024 164.474 223.785 159.902 222.94 158.174C222.829 157.951 222.727 157.727 222.656 157.615C222.533 157.565 222.472 157.422 222.513 157.29C222.554 157.199 222.656 157.118 222.757 157.107C222.981 157.107 223.042 157.229 223.388 157.941C224.192 159.587 226.329 163.956 229.749 163.956C229.891 163.956 230.003 164.068 230.003 164.21C230.003 164.352 229.891 164.464 229.749 164.464L229.759 164.474Z" fill="#180F10"/>
<path d="M225.169 113.06C225.047 113.06 224.945 112.979 224.925 112.857C224.894 112.725 224.986 112.582 225.118 112.552C225.179 112.542 231.479 111.211 244.088 112.552C244.23 112.562 244.332 112.694 244.311 112.826C244.301 112.969 244.169 113.07 244.026 113.05C231.509 111.719 225.281 113.03 225.22 113.05C225.2 113.05 225.179 113.05 225.169 113.05V113.06Z" fill="#180F10"/>
<path d="M259.892 126.818C259.821 126.818 259.76 126.788 259.709 126.737C259.617 126.635 259.617 126.473 259.719 126.381C264.736 121.687 263.118 114.158 263.098 114.076C263.067 113.944 263.149 113.802 263.291 113.772C263.434 113.741 263.566 113.832 263.597 113.965C263.617 114.046 265.296 121.849 260.065 126.747C260.014 126.788 259.953 126.818 259.892 126.818Z" fill="#180F10"/>
<path d="M140.723 110.662L140.561 110.185C141.69 109.809 148 108.03 161.565 110.042C161.708 110.063 161.799 110.195 161.779 110.327C161.759 110.469 161.626 110.561 161.494 110.54C148.051 108.549 141.833 110.286 140.723 110.662Z" fill="#180F10"/>
<path d="M147.918 132.193C147.918 132.193 147.857 132.193 147.837 132.183C138.352 128.749 135.136 120.661 135.136 120.051C135.136 119.909 135.248 119.797 135.391 119.797C135.533 119.797 135.645 119.909 135.645 120.051C135.686 120.681 138.973 128.434 148.01 131.705C148.142 131.756 148.213 131.898 148.162 132.031C148.122 132.132 148.03 132.193 147.928 132.193H147.918Z" fill="#180F10"/>
<path d="M299.042 178.781C298.981 178.781 298.93 178.761 298.879 178.72C292.936 173.772 289.14 165.013 289.537 164.119C289.598 163.987 289.74 163.936 289.873 163.987C289.995 164.037 290.056 164.18 290.005 164.302C289.913 165.043 293.231 173.355 299.205 178.324C299.316 178.415 299.327 178.578 299.235 178.679C299.184 178.74 299.113 178.771 299.042 178.771V178.781Z" fill="#C73112"/>
<path d="M178.051 34.3338C178.438 35.4617 177.98 36.6403 177.013 36.9756C176.046 37.311 174.957 36.6607 174.56 35.5328C174.174 34.4049 174.632 33.2263 175.598 32.891C176.565 32.5557 177.654 33.206 178.051 34.3338Z" fill="#180F10"/>
<path d="M181.135 32.9824C181.074 32.9824 181.013 32.962 180.962 32.9214C177.949 30.2389 174.937 30.2897 173.115 31.2347C172.993 31.2957 172.841 31.255 172.769 31.1229C172.708 31.001 172.749 30.8486 172.881 30.7775C174.846 29.7614 178.092 29.6801 181.298 32.5353C181.399 32.6267 181.409 32.7893 181.318 32.8909C181.267 32.9519 181.196 32.9722 181.125 32.9722L181.135 32.9824Z" fill="#180F10"/>
<path d="M195.759 34.222C196.145 35.3499 195.687 36.5285 194.721 36.8638C193.754 37.1991 192.665 36.5488 192.268 35.421C191.881 34.2931 192.339 33.1145 193.306 32.7792C194.273 32.4438 195.362 33.0941 195.759 34.222Z" fill="#180F10"/>
<path d="M194.66 45.1548C194.66 45.1548 194.436 48.4876 193.398 51.4647C192.675 53.5375 191.566 55.4071 189.877 55.8644C187.984 56.3521 186.803 56.1997 186.162 56.0066C185.775 55.8948 185.602 55.7729 185.602 55.7729C185.45 55.7119 184.442 54.8991 183.852 52.8567C183.16 50.4994 181.532 48.2539 181.532 48.2539C181.532 48.2539 185.144 49.3106 189.408 47.9693C193.673 46.6281 194.67 45.1548 194.67 45.1548H194.66Z" fill="#180F10"/>
<path d="M198.628 33.1752C198.567 33.1752 198.506 33.1549 198.455 33.1143C195.443 30.4318 192.431 30.4826 190.609 31.4276C190.487 31.4885 190.334 31.4479 190.263 31.3158C190.202 31.1939 190.243 31.0415 190.375 30.9703C192.339 29.9542 195.586 29.873 198.791 32.7282C198.893 32.8196 198.903 32.9822 198.812 33.0838C198.761 33.1448 198.689 33.1651 198.618 33.1651L198.628 33.1752Z" fill="#180F10"/>
<path d="M194.609 45.3076C194.609 45.3076 193.754 49.1992 188.269 50.1442C184.534 50.7843 182.875 49.7073 182.58 49.5955C182.356 49.5142 182 49.1789 181.583 48.2441C182.336 48.3559 186.539 48.8537 190.406 47.7157C193.011 46.9537 194.324 45.775 194.721 45.145L194.599 45.3076H194.609Z" fill="white"/>
<path d="M193.154 51.3734C192.431 53.4463 191.322 55.3159 189.632 55.7731C187.74 56.2608 186.559 56.1084 185.918 55.9154C186.671 54.7672 188.106 53.5276 189.948 52.5724C191.057 51.9933 192.156 51.597 193.164 51.3633L193.154 51.3734Z" fill="#943724"/>
<path d="M184.768 48.7013C183.058 48.7013 181.796 48.5285 181.552 48.498C181.461 48.498 181.41 48.4777 181.41 48.4777C181.277 48.4472 181.186 48.305 181.216 48.1729C181.247 48.0408 181.379 47.9493 181.522 47.9798C181.522 47.9798 181.552 47.9798 181.603 47.9798C182.102 48.051 186.386 48.62 190.345 47.4616C192.818 46.73 193.815 45.8257 194.222 45.1957C194.426 44.8706 194.436 44.6572 194.436 44.6572C194.436 44.515 194.527 44.393 194.69 44.4134C194.833 44.4134 194.945 44.5251 194.945 44.6674C194.945 44.6979 194.945 45.023 194.65 45.4701C194.202 46.1814 193.113 47.1771 190.487 47.9493C188.493 48.5387 186.427 48.6911 184.768 48.6911V48.7013Z" fill="#C73112"/>
<path d="M187.994 56.4438C186.325 56.4438 185.083 55.7427 184.625 55.3464C184.524 55.255 184.503 55.0924 184.605 54.9908C184.697 54.879 184.859 54.8689 184.961 54.9705C185.562 55.4887 187.719 56.5962 190.375 55.4175C192.614 54.4319 193.143 51.4446 193.153 51.4142C193.174 51.2719 193.306 51.1805 193.449 51.2109C193.591 51.2313 193.683 51.3634 193.652 51.5056C193.632 51.6377 193.062 54.7876 190.579 55.8849C189.653 56.2914 188.777 56.454 187.994 56.454V56.4438Z" fill="#C73112"/>
<path d="M171.426 27.2106C171.589 26.1945 171.915 25.2597 172.393 24.3452C172.881 23.4409 173.563 22.5772 174.479 21.9168C175.395 21.3071 176.382 20.9007 177.39 20.6467C178.407 20.4028 179.374 20.2707 180.463 20.3012C181.033 20.3215 181.491 20.7889 181.471 21.3681C181.46 21.9066 181.043 22.3334 180.514 22.374H180.443C179.629 22.4452 178.713 22.5569 177.878 22.7398C177.033 22.9329 176.219 23.1666 175.527 23.573C174.845 23.9286 174.235 24.518 173.685 25.1987C173.146 25.8795 172.658 26.6721 172.261 27.4646L172.24 27.4951C172.128 27.7085 171.864 27.7898 171.65 27.6882C171.477 27.5967 171.385 27.4138 171.416 27.2309L171.426 27.2106Z" fill="#180F10"/>
<path d="M358.799 223.123C358.718 223.123 358.636 223.082 358.585 223.011C357.191 220.979 355.37 219.069 353.029 217.158C352.337 216.6 351.543 216.091 350.77 215.594C349.396 214.71 347.971 213.805 346.984 212.525C346.903 212.413 346.913 212.251 347.025 212.169C347.137 212.078 347.3 212.098 347.381 212.21C348.317 213.419 349.701 214.303 351.045 215.167C351.828 215.665 352.642 216.183 353.355 216.762C355.736 218.703 357.588 220.654 359.013 222.716C359.094 222.828 359.064 222.991 358.952 223.072C358.911 223.103 358.86 223.113 358.809 223.113L358.799 223.123Z" fill="#C73112"/>
<path d="M377.809 232.959C377.758 232.959 377.697 232.938 377.657 232.908C375.062 230.926 367.857 223.072 367.134 222.29C365.139 221.7 355.675 219.404 355.573 219.384C355.441 219.353 355.349 219.211 355.39 219.079C355.421 218.947 355.563 218.855 355.695 218.896C356.092 218.998 365.496 221.263 367.348 221.832C367.388 221.843 367.429 221.873 367.46 221.904C367.541 221.985 375.326 230.5 377.962 232.512C378.074 232.593 378.094 232.755 378.013 232.867C377.962 232.928 377.891 232.969 377.809 232.969V232.959Z" fill="#C73112"/>
<path d="M373.637 232.958C373.637 232.958 373.545 232.948 373.505 232.918C371.469 231.698 363.745 222.137 363.419 221.731C363.328 221.619 363.348 221.456 363.46 221.375C363.572 221.284 363.735 221.304 363.816 221.416C363.898 221.517 371.815 231.312 373.769 232.481C373.891 232.552 373.932 232.704 373.851 232.826C373.8 232.908 373.718 232.948 373.637 232.948V232.958Z" fill="#C73112"/>
<path d="M246.194 245.68C246.123 245.68 246.052 245.65 246.001 245.599C243.569 242.815 240.964 240.071 238.277 237.419C232.832 232.024 227.378 227.279 222.758 223.357C221.72 222.473 220.712 221.629 219.766 220.827C217.13 218.611 214.86 216.691 213.191 215.147C213.09 215.055 213.08 214.893 213.181 214.791C213.273 214.689 213.436 214.679 213.537 214.781C215.196 216.315 217.466 218.225 220.091 220.44C221.048 221.243 222.045 222.086 223.093 222.981C227.724 226.913 233.189 231.658 238.643 237.074C241.34 239.726 243.945 242.49 246.398 245.274C246.49 245.375 246.479 245.538 246.378 245.629C246.327 245.67 246.266 245.69 246.205 245.69L246.194 245.68Z" fill="#180F10"/>
<path d="M298.839 231.902C298.727 231.902 298.615 231.821 298.594 231.709C293.343 209.02 285.487 200.403 285.405 200.312C285.314 200.21 285.314 200.047 285.416 199.956C285.517 199.865 285.68 199.865 285.772 199.966C285.853 200.047 293.801 208.776 299.083 231.587C299.113 231.719 299.032 231.861 298.889 231.892C298.869 231.892 298.849 231.892 298.828 231.892L298.839 231.902Z" fill="#180F10"/>
<path d="M351.035 278.875C351.035 278.875 350.953 278.875 350.923 278.845C340.359 273.399 324.748 268.237 324.596 268.176C324.463 268.135 324.392 267.993 324.433 267.851C324.474 267.719 324.626 267.648 324.758 267.688C324.911 267.739 340.563 272.921 351.167 278.388C351.289 278.449 351.34 278.601 351.279 278.733C351.238 278.824 351.147 278.875 351.055 278.875H351.035Z" fill="#180F10"/>
<path d="M245.594 298.253C245.513 298.253 245.431 298.212 245.38 298.131C236.18 283.661 220.844 274.903 220.692 274.822C220.569 274.75 220.529 274.598 220.6 274.476C220.671 274.354 220.824 274.313 220.946 274.385C221.099 274.476 236.557 283.296 245.818 297.866C245.889 297.988 245.859 298.141 245.736 298.212C245.696 298.242 245.645 298.253 245.604 298.253H245.594Z" fill="#180F10"/>
<path d="M201.152 194.581C201.051 194.581 200.949 194.51 200.908 194.408C197.896 185.345 196.237 176.647 197.224 175.021C197.295 174.899 197.458 174.869 197.57 174.93C197.692 175.001 197.733 175.153 197.652 175.275C196.97 176.393 197.916 183.79 201.386 194.236C201.427 194.368 201.356 194.51 201.224 194.561C201.193 194.561 201.173 194.571 201.142 194.571L201.152 194.581Z" fill="#180F10"/>
<path d="M190.131 220.075C190.131 220.075 190.09 220.075 190.07 220.075C189.938 220.044 189.846 219.902 189.876 219.77C191.322 213.419 194.385 205.067 195.525 204.366C195.647 204.295 195.799 204.325 195.871 204.447C195.942 204.569 195.911 204.722 195.789 204.793C194.934 205.321 191.942 212.972 190.365 219.882C190.334 220.003 190.233 220.075 190.121 220.075H190.131Z" fill="#180F10"/>
<path d="M241.431 74.3371C241.37 74.3371 241.309 74.3167 241.258 74.2659C230.105 63.6173 224.04 54.3811 222.696 46.0187C222.676 45.8764 222.767 45.7545 222.91 45.724C223.042 45.7037 223.174 45.7951 223.205 45.9374C224.528 54.1779 230.542 63.3227 241.615 73.89C241.716 73.9916 241.716 74.144 241.615 74.2456C241.564 74.2964 241.493 74.3269 241.431 74.3269V74.3371Z" fill="#180F10"/>
<path d="M187.77 6.78729C187.658 6.78729 187.556 6.71616 187.526 6.60439C187.444 6.31989 185.49 -0.365969 176.169 0.599315C176.026 0.619636 175.904 0.507867 175.894 0.375775C175.884 0.233523 175.985 0.111592 176.118 0.101431C185.897 -0.904496 187.994 6.40118 188.014 6.4723C188.055 6.60439 187.974 6.74665 187.831 6.78729C187.811 6.78729 187.79 6.78729 187.76 6.78729H187.77Z" fill="#180F10"/>
<path d="M211.553 44.1692C209.772 47.2479 206.576 48.7314 204.409 47.4816C202.251 46.242 201.926 42.7162 203.717 39.6476C204.602 38.1234 205.823 36.9956 207.095 36.4062C208.978 37.7373 210.841 38.7026 212.662 39.2818C212.866 40.7551 212.499 42.5231 211.563 44.159L211.553 44.1692Z" fill="#F7AF94"/>
<path d="M214.494 39.7393C214.494 39.7393 214.464 39.7393 214.453 39.7393C213.863 39.6478 213.242 39.5056 212.591 39.3024C210.912 38.774 209.172 37.8697 207.401 36.6199C203.381 33.7952 198.883 29.0399 193.245 21.6529C185.908 12.061 183.109 5.88323 182.814 5.20245C182.763 5.08052 182.814 4.92811 182.936 4.86714C183.058 4.80618 183.211 4.85698 183.272 4.97891C183.577 5.66985 186.356 11.7969 193.652 21.3481C199.249 28.6944 203.717 33.4192 207.696 36.2135C209.426 37.4328 211.126 38.3168 212.744 38.8248C213.364 39.0179 213.965 39.1499 214.535 39.2414C214.677 39.2617 214.769 39.3938 214.748 39.5361C214.728 39.658 214.616 39.7494 214.494 39.7494V39.7393Z" fill="#180F10"/>
<path d="M244.098 277.809C242.694 268.197 224.813 227.065 222.92 223.164C227.571 227.116 233.046 231.871 238.46 237.236C240.648 250.689 242.673 264.722 244.098 277.799V277.809Z" fill="#180F10"/>
<path d="M79.9479 75.8105C79.7545 75.8105 79.6833 75.7597 79.6324 75.7292C79.551 75.6784 79.49 75.5361 79.5001 75.4447C79.5205 75.3024 79.663 75.211 79.7851 75.2211C79.8461 75.2211 79.9072 75.2618 79.9479 75.3024C80.1921 75.3228 81.5558 75.1602 88.1401 71.8681C95.2333 68.3219 97.4213 67.1636 97.9505 66.8791C97.9098 66.6962 97.7978 66.371 97.4416 66.1272C96.8819 65.741 95.6505 65.4667 92.9435 66.3913C92.8112 66.432 92.6688 66.371 92.6179 66.2288C92.5772 66.0967 92.6382 65.9544 92.7807 65.9036C95.1315 65.1009 96.8005 65.0399 97.7469 65.7106C98.4695 66.2288 98.4796 66.9807 98.4796 67.0112C98.4796 67.1026 98.4288 67.1839 98.3474 67.2347C98.2965 67.2652 96.8819 68.0577 88.364 72.3151C82.3598 75.3126 80.5585 75.8003 79.9479 75.8003V75.8105Z" fill="#C73112"/>
<path d="M81.4237 80.8503C81.4237 80.8503 81.4034 80.8503 81.383 80.8503C81.2406 80.8299 81.149 80.6979 81.1693 80.5658C81.1999 80.3625 81.3322 80.3117 81.8512 80.1288C82.8587 79.763 85.1993 78.8892 89.7788 76.2271C95.0809 73.128 97.5945 70.6386 98.1847 70.0188C97.8387 69.6327 96.5972 68.6775 93.4831 69.968C93.3508 70.0188 93.2083 69.968 93.1473 69.8359C93.0964 69.7038 93.1473 69.5615 93.2796 69.5006C97.4418 67.7732 98.6834 69.8257 98.7343 69.907C98.7852 69.9984 98.775 70.1204 98.7038 70.2017C98.602 70.3134 96.2206 73.0569 90.0332 76.664C85.4232 79.3566 83.0418 80.2305 82.0242 80.6064C81.8512 80.6674 81.6782 80.7283 81.6171 80.769C81.5662 80.8299 81.495 80.8604 81.4237 80.8604V80.8503Z" fill="#C73112"/>
<path d="M83.1231 84.8434C82.8382 84.8434 82.5838 84.813 82.3701 84.752C82.2378 84.7113 82.1563 84.5792 82.1971 84.437C82.2378 84.3049 82.3802 84.2236 82.5125 84.2643C84.5479 84.8333 90.8269 82.1 94.5821 79.9052C97.7674 78.0458 100.546 76.6741 101.238 76.3388C101.207 76.1762 101.095 75.8815 100.739 75.6377C99.8333 75.0077 97.0855 74.4692 88.7916 77.8832C88.6593 77.934 88.5168 77.8832 88.4557 77.741C88.4048 77.6089 88.4557 77.4666 88.5982 77.4057C96.7294 74.0627 99.8536 74.3676 101.044 75.2211C101.797 75.7596 101.757 76.4607 101.757 76.4912C101.757 76.5826 101.696 76.6639 101.614 76.7046C101.584 76.7147 98.4798 78.2084 94.8365 80.3218C91.4986 82.2626 85.8607 84.813 83.1333 84.813L83.1231 84.8434Z" fill="#C73112"/>
<path d="M87.3565 88.095C85.1481 88.095 83.4588 87.7495 82.9296 87.0687C82.8482 86.957 82.8686 86.7944 82.9703 86.7131C83.0823 86.6318 83.2451 86.642 83.3265 86.7537C84.4154 88.1559 92.5059 87.9426 98.3473 85.3109C98.3168 85.0772 98.1947 84.62 97.7774 84.2542C97.2177 83.7664 96.3221 83.614 95.1111 83.7868C92.7298 84.1221 90.8878 84.3659 90.8878 84.3659C90.7453 84.3863 90.6232 84.2846 90.6029 84.1526C90.5825 84.0103 90.6843 83.8884 90.8166 83.868C90.8166 83.868 92.6585 83.6242 95.0399 83.2889C96.4137 83.0958 97.4518 83.2889 98.1234 83.8884C98.8765 84.5488 98.8663 85.443 98.8663 85.4836C98.8663 85.5852 98.8053 85.6665 98.7238 85.7072C95.2536 87.3126 90.7046 88.1051 87.3565 88.1051V88.095Z" fill="#C73112"/>
<path d="M198.72 277.768C197.987 284.555 197.774 292.196 197.377 299.258C195.748 299.156 194.13 299.045 192.502 298.923C192.156 298.892 191.8 298.872 191.454 298.831C190.212 298.74 188.981 298.638 187.75 298.537C185.185 298.323 182.631 298.079 180.097 297.805C180.056 297.805 180.005 297.805 179.964 297.785C179.14 297.703 178.316 297.612 177.491 297.51C176.647 297.419 175.802 297.317 174.957 297.216C174.957 297.195 174.957 297.175 174.957 297.155C173.807 290.885 173.421 283.854 174.286 276.508C175.283 268.237 177.308 261.46 179.771 256.166C180.677 254.195 181.654 252.427 182.661 250.872C188.024 242.499 194.263 239.908 196.786 242.855C201.631 247.986 199.89 260.606 198.73 277.768H198.72Z" fill="white"/>
</g>
<defs>
<clipPath id="clip0_400_8294">
<rect width="470" height="300" fill="white"/>
</clipPath>
</defs>
</svg>
