<svg width="470" height="420" viewBox="0 0 470 420" fill="none" xmlns="http://www.w3.org/2000/svg">
<g clip-path="url(#clip0_400_9205)">
<path d="M470 246.011H0V420H470V246.011Z" fill="#FAF7F5"/>
<path d="M148.89 175.48C155.16 168.344 168.56 167.584 173.22 175.861C171.9 154.993 175.79 133.805 184.44 114.768C187.6 107.812 194.79 100.006 201.45 103.739C204.43 105.41 205.85 108.883 206.94 112.126C211.92 126.829 214.75 142.262 215.33 157.775C215 148.828 215.81 139.84 217.75 131.092C218.31 128.55 219.03 125.918 220.78 123.996C225.85 118.422 235.67 122.605 239.5 129.091C243.33 135.576 243.91 143.563 247.56 150.149C244.65 141.181 247.59 130.132 255.59 125.157C263.59 120.173 276.01 123.466 279.19 132.343C277.09 112.206 276.1 91.9589 276.21 71.7215C276.25 64.4253 276.66 56.4985 281.38 50.9437C286.12 45.3589 294.9 43.7175 301.33 47.2105C307.77 50.7035 311.18 58.9606 309.09 65.9866C309.09 57.079 309.93 47.791 314.58 40.2045C319.23 32.618 328.68 27.3235 337.15 30.0258C349.8 34.0692 351.84 50.8636 351.44 64.155C350.19 105 347.92 145.815 344.62 186.54C319.69 192.305 294.66 198.09 269.18 200.352C256.08 201.513 242.92 201.733 229.77 201.953C208.24 202.313 186.72 202.674 165.19 203.044C157.55 203.174 147.24 206.217 143.38 199.081C140.03 192.885 144.76 180.174 148.89 175.48Z" fill="#E6F9FF"/>
<path d="M356.861 101.557C356.231 69.2795 355.471 36.9919 354.561 4.7142C354.501 2.43224 352.701 0.590664 350.401 0.550629C318.121 -0.0198596 285.831 -0.210023 253.551 0.270389C233.161 0.570647 212.041 0.810852 191.391 1.79169C170.631 2.78254 149.991 6.2355 129.181 6.1154C127.081 6.10539 124.981 6.07537 122.881 6.01531C120.731 5.95526 118.931 7.87691 118.921 9.97871C118.551 74.1737 118.181 138.369 117.811 202.564C117.801 204.736 119.651 206.557 121.811 206.567C178.281 206.897 234.811 207.238 291.201 203.755C305.431 202.874 319.651 201.753 333.831 200.332C339.531 199.761 346.441 200.012 351.811 197.83C356.951 195.738 358.131 190.914 358.171 185.839C358.421 157.765 357.401 129.611 356.861 101.537V101.557ZM349.291 136.447C349.191 136.447 349.091 136.447 348.981 136.447C340.911 136.507 332.481 138.459 324.431 139.27C315.561 140.17 306.681 140.931 297.791 141.582C297.811 128.21 297.771 114.839 297.681 101.467C297.631 93.7505 297.621 86.0139 297.601 78.2572C305.391 77.6767 313.171 77.0062 320.941 76.1955C325.641 75.705 330.331 75.1746 335.021 74.6041C335.901 74.494 347.231 73.383 348.001 73.1629C348.491 94.2609 348.921 115.369 349.291 136.467V136.447ZM346.351 8.82772C346.921 28.7848 347.431 48.7519 347.901 68.709C347.291 68.5889 346.671 68.5389 346.071 68.5389C338.101 68.599 329.781 70.5506 321.841 71.3613C313.771 72.192 305.691 72.9026 297.601 73.5232C297.501 51.8446 297.171 30.116 295.411 8.58752C312.391 8.51746 329.371 8.57751 346.361 8.81771L346.351 8.82772ZM176.901 106.712C176.991 98.1743 177.141 89.627 177.291 81.0696C177.991 81.0696 178.691 81.0796 179.391 81.0897C196.351 81.2798 213.311 81.2998 230.261 81.0596C230.081 88.6862 229.931 96.3127 229.751 103.919C229.431 117.441 229.161 130.972 228.901 144.494C212.051 144.754 195.201 144.764 178.351 144.614C177.731 144.614 177.111 144.594 176.491 144.584C176.631 131.963 176.771 119.342 176.911 106.722L176.901 106.712ZM235.321 178.103C235.441 169.856 235.571 161.619 235.711 153.372C235.741 151.88 235.771 150.379 235.791 148.888C236.401 148.878 237.011 148.878 237.621 148.868C255.321 148.547 273.011 147.887 290.671 146.766C290.591 163.08 290.461 179.404 290.311 195.718C271.941 196.849 253.551 197.579 235.161 198.03C235.481 191.414 235.221 184.678 235.321 178.103ZM237.291 80.9495C255.021 80.6092 272.741 79.9187 290.431 78.7477C290.561 86.3241 290.671 93.8906 290.701 101.447C290.761 114.989 290.741 128.52 290.691 142.062C285.851 142.382 281.021 142.682 276.181 142.933C262.761 143.633 249.321 144.084 235.881 144.354C236.121 130.872 236.391 117.391 236.691 103.909C236.861 96.2627 237.081 88.6061 237.291 80.9395V80.9495ZM290.261 8.61754C289.511 30.3762 289.961 52.2249 290.351 74.0436C284.971 74.4139 279.581 74.7642 274.191 75.0445C261.941 75.695 249.681 76.1254 237.421 76.4056C238.041 54.0365 238.581 31.6373 238.081 9.30814C255.471 8.96784 272.871 8.72764 290.271 8.61754H290.261ZM233.681 9.39821C231.701 31.6873 230.921 54.1265 230.371 76.5458C212.791 76.856 195.201 76.876 177.611 76.7159C177.531 76.7159 177.441 76.7159 177.361 76.7159C177.731 54.7371 178.001 32.7282 177.191 10.7994C196.021 10.269 214.851 9.78855 233.681 9.39821ZM170.381 10.9896C171.211 10.9696 172.041 10.9395 172.871 10.9195C171.481 32.7482 171.111 54.697 170.891 76.6158C156.111 76.3256 141.241 75.645 126.491 76.2055C126.601 55.4777 126.711 34.7499 126.821 14.0222C141.391 14.2223 155.981 13.2315 170.381 10.9896ZM126.471 79.8986C141.171 81.0496 156.071 80.9696 170.851 81.0296C170.751 91.939 170.671 102.838 170.501 113.718C170.341 123.966 170.181 134.215 170.021 144.464C155.411 144.154 140.711 143.533 126.141 144.104C126.251 122.695 126.371 101.297 126.481 79.8886L126.471 79.8986ZM125.851 198.58C125.941 181.636 126.031 164.701 126.121 147.757C140.641 148.898 155.351 148.868 169.951 148.908C169.861 154.693 169.771 160.478 169.681 166.263C169.541 175.02 169.391 183.778 169.301 192.535C169.281 194.527 169.301 196.699 169.691 198.73C155.081 198.73 140.461 198.66 125.851 198.58ZM176.461 198.72C175.601 196.939 175.911 194.347 175.931 192.545C175.971 188.462 176.041 184.368 176.091 180.285C176.191 172.108 176.271 163.931 176.361 155.764C176.391 153.492 176.411 151.22 176.441 148.948C177.681 148.948 178.911 148.968 180.151 148.978C196.371 149.158 212.601 149.188 228.821 148.978C228.791 150.439 228.761 151.9 228.741 153.362C228.591 161.609 228.461 169.846 228.331 178.093C228.231 184.728 227.791 191.514 227.951 198.19C222.911 198.3 217.871 198.39 212.831 198.46C200.711 198.63 188.591 198.69 176.471 198.71L176.461 198.72ZM350.051 186.46C350.001 190.423 348.081 190.634 344.481 191.094C340.951 191.544 337.391 191.865 333.841 192.225C321.691 193.456 309.511 194.447 297.331 195.268C297.611 178.944 297.751 162.62 297.791 146.286C306.391 145.675 314.971 144.954 323.551 144.074C328.311 143.583 333.061 143.053 337.811 142.482C338.531 142.392 346.011 141.672 349.381 141.261C349.531 150.149 349.691 159.036 349.821 167.914C349.911 174.089 350.151 180.285 350.071 186.46H350.051Z" fill="#C6E6F4"/>
<path d="M76.2804 345.787C73.6504 347.368 71.2304 349.18 68.8204 351.081C66.5604 352.873 63.8304 354.624 62.2004 357.036C61.5904 357.947 62.6104 359.208 63.6204 358.888C66.4004 357.997 68.8604 355.865 71.2204 354.194C73.7304 352.422 76.1304 350.611 78.3904 348.529C79.8604 347.178 77.9704 344.766 76.2704 345.787H76.2804Z" fill="#C9E3F4"/>
<path d="M88.4006 354.144C85.4806 355.135 83.5106 357.677 81.5806 359.969C79.5206 362.421 77.6606 364.993 76.0906 367.776C75.1206 369.497 77.5106 371.519 78.9106 369.947C81.0006 367.615 83.0106 365.223 85.0806 362.881C86.9806 360.73 89.2806 358.758 90.2606 355.995C90.6406 354.935 89.4506 353.774 88.4006 354.134V354.144Z" fill="#C9E3F4"/>
<path d="M102.25 362.431C101.11 364.322 100.48 366.514 99.71 368.576C98.89 370.768 98.09 372.94 97.52 375.222C97.21 376.453 98.85 377.113 99.53 376.072C100.82 374.101 101.87 372.039 102.93 369.937C103.92 367.965 105.09 366.014 105.71 363.892C106.31 361.81 103.36 360.609 102.26 362.431H102.25Z" fill="#C9E3F4"/>
<path d="M123.981 362.17C122.941 367.255 121.651 372.429 121.311 377.614C121.181 379.695 124.071 379.786 124.711 378.074C126.481 373.38 127.391 368.306 128.501 363.421C129.171 360.469 124.581 359.228 123.981 362.17Z" fill="#C9E3F4"/>
<path d="M146.05 364.172C145.38 366.905 145.1 369.657 145.02 372.469C144.95 375.082 144.92 378.114 145.76 380.606C146.16 381.787 148.03 381.978 148.34 380.606C148.87 378.254 148.82 375.732 149.1 373.33C149.41 370.658 149.93 368.016 150.37 365.353C150.82 362.571 146.76 361.31 146.06 364.162L146.05 364.172Z" fill="#C9E3F4"/>
<path d="M171.401 361.63C170.971 360.539 169.401 359.729 168.481 360.859C166.901 362.781 166.921 365.213 166.851 367.615C166.771 370.167 166.801 372.89 167.451 375.372C168.011 377.514 170.911 376.873 171.101 374.882C171.321 372.62 171.191 370.318 171.351 368.046C171.501 365.944 172.191 363.642 171.401 361.63Z" fill="#C9E3F4"/>
<path d="M192.591 370.197C192.581 368.045 193.111 365.713 192.561 363.632C192.161 362.12 189.831 361.68 189.081 363.181C187.991 365.363 188.301 367.975 188.621 370.337C188.941 372.679 189.421 375.592 190.901 377.504C191.561 378.364 192.771 378.064 192.891 376.963C193.131 374.781 192.601 372.419 192.591 370.207V370.197Z" fill="#C9E3F4"/>
<path d="M214.16 360.219C213.56 358.247 210.76 358.237 210.15 360.219C209.32 362.921 209.82 366.054 210.02 368.836C210.22 371.539 210.1 374.651 211.04 377.203C211.44 378.294 212.86 378.294 213.26 377.203C214.2 374.641 214.08 371.539 214.28 368.836C214.49 366.054 214.98 362.921 214.15 360.219H214.16Z" fill="#C9E3F4"/>
<path d="M233.981 366.995C233.731 364.513 233.941 362.071 233.841 359.599C233.741 357.176 230.281 356.616 229.581 359.018C228.081 364.192 228.601 370.528 230.741 375.412C231.611 377.394 235.041 376.423 234.851 374.301C234.621 371.849 234.231 369.437 233.981 366.995Z" fill="#C9E3F4"/>
<path d="M251.501 366.394C251.101 364.132 251.311 361.86 250.941 359.618C250.691 358.107 248.211 357.767 247.571 359.178C245.821 363.071 245.781 370.397 249.071 373.51C249.971 374.361 251.861 374.121 252.101 372.709C252.461 370.518 251.891 368.556 251.501 366.394Z" fill="#C9E3F4"/>
<path d="M269.34 372.199C269.09 369.937 268.46 367.856 268.01 365.644C267.56 363.422 267.66 361.09 267.1 358.908C266.58 356.876 264.01 357.247 263.34 358.908C261.68 363.031 262.75 369.777 265.36 373.28C266.46 374.762 269.61 374.561 269.35 372.199H269.34Z" fill="#C9E3F4"/>
<path d="M287.25 358.928C286.16 357.546 284.35 359.108 284.59 360.479C285.02 362.891 285.77 365.243 286.31 367.625C286.86 370.047 287.42 372.369 288.29 374.701C289.03 376.683 291.59 376.253 291.85 374.221C292.51 368.956 290.53 363.071 287.25 358.938V358.928Z" fill="#C9E3F4"/>
<path d="M308.881 367.325C308.491 365.013 309.001 362.441 308.141 360.249C307.501 358.637 305.531 358.297 304.521 359.778C302.941 362.07 303.371 365.313 303.731 367.925C304.111 370.728 304.721 373.55 306.941 375.482C308.131 376.513 309.961 375.822 310.031 374.201C310.131 371.809 309.281 369.647 308.891 367.335L308.881 367.325Z" fill="#C9E3F4"/>
<path d="M332.561 369.567C332.261 367.435 331.561 365.453 330.891 363.411C330.271 361.53 329.831 359.458 328.741 357.777C327.761 356.265 325.331 356.826 325.311 358.707C325.291 360.849 326.081 362.971 326.601 365.033C327.141 367.175 327.681 369.216 328.591 371.238C329.701 373.69 332.871 371.759 332.561 369.567Z" fill="#C9E3F4"/>
<path d="M350.35 364.973C349.72 362.711 348.61 360.649 347.93 358.407C347.35 356.516 347.3 354.224 345.91 352.743C345.25 352.032 344.42 352.392 344.1 353.043C344.08 353.023 344.07 353.003 344.05 352.983C342.68 354.854 343.42 357.827 343.85 359.939C344.39 362.571 345.21 364.893 346.93 366.965C348.28 368.596 350.87 366.835 350.35 364.973Z" fill="#C9E3F4"/>
<path d="M370.36 363.702C369.65 361.36 368.55 359.238 367.47 357.056C366.37 354.834 365.54 352.492 364.49 350.25C363.33 347.768 360.16 349.72 360.46 351.952C361.1 356.726 363.42 362.401 367.1 365.614C368.49 366.825 370.96 365.694 370.36 363.712V363.702Z" fill="#C9E3F4"/>
<path d="M389.101 352.362C387.131 350.691 385.271 348.899 383.621 346.917C382.031 345.006 380.781 342.714 379.071 340.932C378.231 340.051 376.671 340.722 376.681 341.923C376.721 347.638 381.751 353.153 386.191 356.145C388.431 357.657 391.211 354.134 389.111 352.362H389.101Z" fill="#C9E3F4"/>
<path d="M404.13 337.119C400 335.858 396.8 333.586 393.22 331.314C391.38 330.153 389.01 332.485 390.21 334.326C392.93 338.53 398.04 341.042 402.87 341.703C405.81 342.103 407.16 338.04 404.13 337.119Z" fill="#C9E3F4"/>
<path d="M406.121 317.022C404.231 316.261 402.241 316.061 400.211 316.271C398.601 316.431 396.561 316.732 395.691 318.233C395.361 318.813 395.561 319.574 396.131 319.914C397.351 320.645 398.831 320.275 400.211 320.345C401.831 320.425 403.411 320.745 405.001 321.105C407.711 321.716 408.591 318.033 406.121 317.032V317.022Z" fill="#C9E3F4"/>
<path d="M409.41 300.468C405.04 299.117 399.9 301.028 395.87 302.65C394.66 303.14 395.1 304.872 396.41 304.621C400.74 303.801 405.12 304.772 409.41 304.171C411.41 303.891 411.05 300.968 409.41 300.468Z" fill="#C9E3F4"/>
<path d="M395.53 283.003C392.97 283.493 390.65 285.124 388.75 286.856C386.79 288.637 389.28 291.48 391.46 290.369C393.75 289.208 395.99 287.566 397.35 285.365C398.14 284.093 396.84 282.752 395.54 283.003H395.53Z" fill="#C9E3F4"/>
<path d="M385.38 274.095C381.67 274.516 378.21 275.707 375.23 278.019C373.62 279.27 375.37 282.122 377.22 281.442C380.15 280.371 383 279.039 385.89 277.868C387.69 277.138 387.74 273.825 385.38 274.095Z" fill="#C9E3F4"/>
<path d="M360.641 265.888C357.921 266.378 355.341 267.79 353.611 269.972C352.961 270.792 352.771 271.813 353.451 272.694C354.031 273.445 355.281 273.835 356.121 273.224C357.901 271.953 359.741 270.872 361.831 270.202C364.611 269.321 363.451 265.388 360.641 265.888Z" fill="#C9E3F4"/>
<path d="M361.661 271.603C373.871 275.436 385.801 281.431 394.081 291.19C402.361 300.948 406.361 315.01 401.791 326.98C396.751 340.172 383.021 347.828 369.701 352.492C329.511 366.534 285.69 363.011 243.12 363.842C196.251 364.763 149.041 371.158 102.711 363.962C91.7105 362.25 79.3705 358.687 74.5505 348.649C71.9505 343.234 72.1205 336.909 73.0405 330.974C74.1605 323.797 76.4005 316.621 80.8505 310.876C87.7905 301.909 99.0405 297.585 109.84 294.142C174.771 273.424 244.52 268.38 312.27 265.798C328.88 265.167 345.751 266.608 361.661 271.613V271.603Z" fill="#99BBD6"/>
<path d="M380.141 303.89C372.761 284.874 350.971 277.548 332.441 275.036C328.611 274.515 324.791 274.195 320.951 274.075C320.741 273.995 320.521 273.935 320.261 273.935C297.781 273.404 275.631 278.018 253.741 282.572C242.791 284.854 231.831 287.126 220.781 288.848C209.351 290.619 197.851 291.85 186.341 292.961C174.811 294.072 163.251 294.953 151.741 296.324C141.481 297.545 131.231 299.367 121.691 303.48C113.511 307.013 105.941 312.238 100.491 319.354C94.8807 326.68 91.2507 336.779 95.8807 345.516C100.201 353.673 109.371 357.406 118.081 358.437C123.251 359.048 128.481 358.888 133.671 358.748C139.531 358.587 145.381 358.317 151.231 357.967C174.211 356.586 197.091 353.963 219.991 351.742C242.901 349.52 265.831 347.818 288.861 347.858C300.291 347.878 311.731 348.118 323.161 347.758C333.851 347.418 344.961 346.937 355.291 343.905C364.071 341.333 372.311 336.488 377.521 328.782C382.531 321.375 383.371 312.178 380.151 303.88L380.141 303.89ZM377.351 320.795C374.631 329.232 367.111 335.388 359.131 338.64C349.731 342.474 339.321 343.244 329.291 343.775C318.461 344.345 307.611 344.245 296.771 344.165C275.041 344.015 253.451 344.966 231.801 346.887C210.331 348.799 188.931 351.321 167.441 352.973C156.631 353.803 145.811 354.444 134.981 354.704C125.571 354.934 114.991 355.675 106.591 350.621C103.031 348.479 99.9007 345.266 98.6307 341.233C97.2007 336.679 98.2507 331.774 100.301 327.581C104.161 319.674 111.151 313.679 118.781 309.555C127.351 304.921 136.951 302.639 146.521 301.218C157.091 299.637 167.791 298.886 178.431 297.895C199.851 295.894 221.111 293.412 242.211 289.168C262.991 284.984 283.711 279.96 304.911 278.379C310.021 277.998 315.131 277.748 320.261 277.758C321.281 277.758 321.871 277.108 322.041 276.347C330.621 277.408 339.101 279.189 347.341 281.822C356.251 284.664 365.091 288.818 371.271 296.064C376.991 302.77 380.141 312.168 377.361 320.805L377.351 320.795Z" fill="#C9E3F4"/>
<path d="M92.5003 209.66C82.2503 195.037 72.5103 179.264 70.1103 161.568C69.7903 159.186 70.7803 155.683 73.1003 156.294C73.9103 156.504 74.4804 157.225 74.9804 157.895C81.0203 166.072 85.8603 175.05 90.6703 183.998C84.9303 166.272 82.5503 147.466 83.7103 128.87C84.0103 123.986 84.8103 118.612 88.5303 115.429C91.4403 118.041 92.3503 122.155 93.1003 125.998C96.2703 142.122 99.4303 158.246 102.6 174.359C101.98 150.979 101.41 127.129 108.12 104.72C108.83 102.338 109.98 99.6454 112.38 99.0448C114.3 98.5644 116.33 99.7354 117.46 101.367C118.58 102.998 118.99 105 119.34 106.952C123.65 131.202 122.32 156.064 120.98 180.665C123.28 167.554 126.7 154.632 131.17 142.092C131.98 139.81 133.31 137.168 135.72 136.977C137.55 136.837 139.19 138.339 139.82 140.07C140.45 141.801 140.28 143.703 140.08 145.535C138.48 160.207 134.98 174.68 129.69 188.451C134.47 179.113 140.38 168.825 150.54 166.222C151.61 169.595 150.42 173.238 149.06 176.501C142.97 191.164 133.22 204.285 120.95 214.354C117.07 217.536 112.76 220.499 107.82 221.4C102.88 222.3 97.1803 220.639 94.6003 216.325" fill="#487D39"/>
<path d="M113.701 142.182C113.611 137.348 113.491 132.504 113.191 127.679C112.901 123.025 112.881 118.151 111.911 113.587C111.871 113.397 111.611 113.457 111.591 113.627C111.221 117.821 111.641 122.155 111.711 126.358C111.781 130.612 111.901 134.856 111.961 139.099C112.071 147.597 112.061 156.104 111.851 164.601C111.421 181.596 110.331 198.58 108.511 215.485C107.451 225.313 106.111 235.112 104.651 244.88C104.481 246.001 106.191 246.501 106.381 245.36C112.011 211.331 114.341 176.651 113.721 142.182H113.701Z" fill="#75A35B"/>
<path d="M134.191 146.015C130.191 161.579 127.191 177.362 122.871 192.855C118.551 208.359 113.281 223.522 107.901 238.685C107.511 239.786 109.201 240.206 109.631 239.165C115.711 224.152 120.531 208.559 124.781 192.935C128.941 177.622 132.981 161.889 134.561 146.065C134.581 145.855 134.251 145.825 134.201 146.015H134.191Z" fill="#75A35B"/>
<path d="M146.051 172.768C132.271 191.334 121.291 212.302 112.291 233.571C111.851 234.621 113.371 235.552 113.851 234.481C123.351 213.203 134.641 193.046 146.291 172.909C146.381 172.748 146.151 172.628 146.051 172.768Z" fill="#75A35B"/>
<path d="M113.54 235.742C107.29 220.88 101.99 205.627 98.2403 189.933C96.3403 181.976 94.8703 173.939 93.6403 165.842C92.3403 157.295 91.0703 148.648 90.1403 140.05C90.1003 139.64 89.4403 139.63 89.4803 140.05C90.3003 148.738 90.8203 157.405 91.9903 166.063C93.0703 174.109 94.5703 182.096 96.4203 189.993C100.14 205.897 105.28 221.49 112.14 236.323C112.5 237.093 113.87 236.533 113.53 235.732L113.54 235.742Z" fill="#75A35B"/>
<path d="M118.08 235.872C110.39 225.683 102.66 215.665 95.9804 204.766C92.6504 199.341 89.5204 193.786 86.5804 188.141C83.6504 182.516 81.2104 176.591 78.0704 171.087C77.8704 170.746 77.3204 170.977 77.4304 171.357C79.1504 177.352 82.0904 183.127 84.8604 188.682C87.7604 194.507 90.9104 200.192 94.2804 205.756C100.87 216.626 108.18 227.485 116.84 236.823C117.44 237.464 118.63 236.593 118.08 235.862V235.872Z" fill="#75A35B"/>
<path d="M74.8701 164.661C74.8701 164.661 74.8301 164.621 74.8101 164.601C74.3601 164.151 73.5301 164.111 73.0901 164.601C72.6401 165.091 72.6101 165.842 73.0901 166.322C73.1101 166.342 73.1301 166.363 73.1501 166.383C73.6001 166.833 74.4301 166.863 74.8701 166.383C75.3101 165.902 75.3501 165.141 74.8701 164.661Z" fill="#75A35B"/>
<path d="M79.6301 167.224C79.4501 167.144 79.3101 167.094 79.1101 167.083C78.7201 167.083 78.3701 167.424 78.3801 167.814C78.3801 168.014 78.4401 168.154 78.5201 168.335C78.7301 168.825 79.4601 168.835 79.7901 168.495C80.1301 168.154 80.1101 167.434 79.6301 167.224Z" fill="#75A35B"/>
<path d="M81.9003 173.099C81.2103 173.099 81.2103 174.179 81.9003 174.179C82.5903 174.179 82.5903 173.099 81.9003 173.099Z" fill="#75A35B"/>
<path d="M102.67 182.597C102.24 182.507 101.84 182.617 101.56 182.977C101.18 183.478 101.31 184.208 101.86 184.528C102.37 184.829 103 184.628 103.31 184.148C103.66 183.598 103.33 182.727 102.68 182.597H102.67Z" fill="#75A35B"/>
<path d="M99.99 177.612C99.53 177.612 99.09 178.013 99.11 178.493C99.13 178.963 99.5 179.374 99.99 179.374C100.45 179.374 100.89 178.973 100.87 178.493C100.85 178.023 100.48 177.612 99.99 177.612Z" fill="#75A35B"/>
<path d="M107.63 174.94C107.18 174.68 106.51 174.91 106.4 175.44C106.38 175.52 106.37 175.601 106.35 175.681C106.28 176.011 106.39 176.391 106.71 176.561C107 176.711 107.42 176.701 107.65 176.441C107.7 176.381 107.75 176.321 107.81 176.261C108.16 175.861 108.13 175.23 107.64 174.94H107.63Z" fill="#75A35B"/>
<path d="M90.4507 128.36C90.3007 128.15 90.1607 128.02 89.9607 127.87C89.4207 127.469 88.6807 128.01 88.6807 128.61C88.6807 128.771 88.6907 128.931 88.7407 129.081C88.9207 129.611 89.4707 129.912 90.0107 129.691C90.4907 129.491 90.7807 128.831 90.4607 128.36H90.4507Z" fill="#75A35B"/>
<path d="M86.5008 133.895C86.3708 133.935 86.2508 133.995 86.1308 134.045C85.6608 134.245 85.6608 135.076 86.1308 135.276C86.2508 135.326 86.3808 135.386 86.5008 135.426C87.0008 135.606 87.5108 135.146 87.5108 134.655C87.5108 134.165 87.0008 133.715 86.5008 133.885V133.895Z" fill="#75A35B"/>
<path d="M92.3104 135.987C91.4304 135.987 91.4304 137.358 92.3104 137.358C93.1904 137.358 93.1904 135.987 92.3104 135.987Z" fill="#75A35B"/>
<path d="M88.0809 152.701C88.0809 152.701 88.0609 152.631 88.0509 152.601C87.8009 151.84 86.7609 151.84 86.5109 152.601C86.5009 152.631 86.4909 152.671 86.4809 152.701C86.3109 153.221 86.7609 153.752 87.2809 153.752C87.8009 153.752 88.2509 153.211 88.0809 152.701Z" fill="#75A35B"/>
<path d="M96.68 156.514C95.69 156.514 95.69 158.055 96.68 158.055C97.67 158.055 97.67 156.514 96.68 156.514Z" fill="#75A35B"/>
<path d="M108.841 127.159C108.841 127.159 108.751 127.109 108.711 127.079C107.851 126.589 106.871 127.569 107.361 128.43C107.391 128.47 107.411 128.52 107.441 128.56C107.771 129.141 108.591 129.231 109.061 128.77C109.521 128.31 109.431 127.479 108.851 127.159H108.841Z" fill="#75A35B"/>
<path d="M107.351 137.278C107.181 136.878 106.581 136.688 106.191 136.808L106.141 136.828C105.181 137.128 105.181 138.469 106.141 138.769L106.191 138.789C106.581 138.909 107.181 138.719 107.351 138.319C107.421 138.149 107.501 137.999 107.491 137.798C107.491 137.608 107.421 137.458 107.351 137.278Z" fill="#75A35B"/>
<path d="M118.681 148.547C118.681 148.047 118.241 147.567 117.721 147.587C117.201 147.607 116.761 148.007 116.761 148.547C116.761 148.567 116.761 148.587 116.761 148.607C116.761 149.108 117.201 149.588 117.721 149.568C118.241 149.548 118.681 149.148 118.681 148.607C118.681 148.587 118.681 148.567 118.681 148.547Z" fill="#75A35B"/>
<path d="M117.611 158.616C116.431 158.616 116.431 160.448 117.611 160.448C118.791 160.448 118.791 158.616 117.611 158.616Z" fill="#75A35B"/>
<path d="M114.971 109.464C114.791 109.234 114.541 109.134 114.271 109.064C113.631 108.884 113.071 109.484 113.221 110.115C113.271 110.345 113.341 110.585 113.521 110.745C113.701 110.905 113.911 111.015 114.151 111.045C114.431 111.085 114.661 111.075 114.891 110.895C115.081 110.745 115.251 110.485 115.231 110.225C115.201 109.944 115.151 109.694 114.981 109.464H114.971Z" fill="#75A35B"/>
<path d="M135.781 160.718C135.781 160.718 135.761 160.698 135.751 160.688C135.391 160.388 134.971 160.388 134.611 160.688C134.601 160.688 134.591 160.708 134.581 160.718C134.321 160.938 134.281 161.349 134.411 161.639C134.541 161.939 134.851 162.179 135.181 162.159C135.481 162.149 135.761 161.999 135.911 161.739C136.091 161.439 136.061 160.948 135.781 160.708V160.718Z" fill="#75A35B"/>
<path d="M137.63 143.753C137.36 143.293 136.78 143.113 136.3 143.313C135.79 143.533 135.58 144.043 135.68 144.574C135.68 144.584 135.68 144.604 135.68 144.614C135.68 144.794 135.77 144.984 135.85 145.134C136.26 145.845 137.23 145.775 137.65 145.134C137.92 144.724 137.85 144.154 137.62 143.743L137.63 143.753Z" fill="#75A35B"/>
<path d="M137.661 149.759C137.421 149.498 136.961 149.498 136.721 149.759C136.521 149.969 136.431 150.159 136.421 150.449C136.401 150.85 136.791 151.24 137.191 151.22C137.591 151.2 137.981 150.88 137.961 150.449C137.951 150.169 137.851 149.959 137.661 149.759Z" fill="#75A35B"/>
<path d="M130.151 157.095C130.021 156.484 129.301 156.204 128.761 156.424C128.161 156.684 128.011 157.325 128.271 157.885C128.411 158.196 128.661 158.336 128.961 158.456C129.361 158.606 129.821 158.346 130.031 158.016C130.221 157.725 130.221 157.415 130.151 157.095Z" fill="#75A35B"/>
<path d="M125.111 169.015C124.061 169.015 124.061 170.657 125.111 170.657C126.161 170.657 126.161 169.015 125.111 169.015Z" fill="#75A35B"/>
<path d="M119.031 170.296C118.941 169.976 118.621 169.706 118.281 169.726C117.971 169.736 117.691 169.916 117.571 170.206C117.411 170.586 117.571 170.947 117.891 171.177C117.911 171.187 117.921 171.197 117.941 171.207C118.121 171.337 118.451 171.337 118.631 171.207C118.651 171.197 118.661 171.187 118.681 171.177C118.961 170.967 119.141 170.656 119.041 170.296H119.031Z" fill="#75A35B"/>
<path d="M145.59 178.093C145.11 178.093 144.64 178.513 144.67 179.014C144.69 179.514 145.08 179.934 145.59 179.934C146.07 179.934 146.54 179.514 146.51 179.014C146.49 178.513 146.1 178.093 145.59 178.093Z" fill="#75A35B"/>
<path d="M140.79 175.701C140.52 175.18 139.68 175.18 139.41 175.701C139.16 176.181 139.29 176.652 139.73 176.962C139.93 177.102 140.28 177.102 140.47 176.962C140.91 176.652 141.03 176.181 140.79 175.701Z" fill="#75A35B"/>
<path d="M135.51 183.397C134.65 183.397 134.65 184.729 135.51 184.729C136.37 184.729 136.37 183.397 135.51 183.397Z" fill="#75A35B"/>
<path d="M141.79 195.798C141.79 195.798 141.42 198.45 140.81 202.804C140.62 204.135 140.41 205.616 140.18 207.228C139.65 210.921 139.03 215.305 138.34 220.049C138.12 221.61 137.88 223.221 137.65 224.843C136.94 229.747 136.18 234.921 135.42 240.046C135.17 241.667 134.93 243.289 134.69 244.89C134.11 248.713 133.54 252.456 132.99 255.989C132.73 257.651 132.48 259.262 132.23 260.824C131.68 264.247 131.17 267.379 130.71 270.072C130.71 270.072 122.14 271.273 109.02 271.072C103.97 270.992 98.24 270.712 92.07 270.072C92.07 270.072 90.66 265.418 88.66 257.801C88.33 256.55 87.99 255.219 87.63 253.818C86.79 250.485 85.88 246.752 84.94 242.708C84.64 241.387 84.33 240.026 84.02 238.645C82.97 233.941 81.92 228.906 80.94 223.662C80.69 222.311 80.44 220.949 80.19 219.568C79.54 215.905 78.92 212.162 78.36 208.389C78.15 206.997 77.96 205.606 77.77 204.215C77.39 201.413 77.05 198.59 76.75 195.788C76.75 195.788 101.06 195.498 128.67 195.668C132.99 195.698 137.39 195.728 141.79 195.788V195.798Z" fill="#D16D4C"/>
<path d="M140.811 202.794C140.621 204.125 140.411 205.606 140.181 207.218C139.781 207.258 139.381 207.318 138.981 207.378C135.661 207.878 132.341 208.359 129.001 208.749C128.651 208.789 128.301 208.829 127.951 208.869C121.271 209.61 114.541 210.02 107.821 210.11C98.1305 210.24 88.0905 209.97 78.3605 208.399C78.1505 207.008 77.9605 205.616 77.7705 204.225C87.9105 205.116 98.0105 206.047 108.251 205.867C114.941 205.746 121.621 205.316 128.271 204.555C128.661 204.515 129.041 204.465 129.431 204.425C132.951 204.005 136.441 203.424 139.951 202.924C140.231 202.884 140.521 202.844 140.811 202.804V202.794Z" fill="#FFAE90"/>
<path d="M138.341 220.049C138.121 221.61 137.881 223.221 137.651 224.843C135.341 225.143 133.031 225.433 130.711 225.683C129.041 225.864 127.371 226.014 125.701 226.134C120.411 226.524 115.101 226.634 109.791 226.484C102.641 226.284 95.5207 225.603 88.4207 224.723C85.9207 224.412 83.4207 224.052 80.9307 223.652C80.6807 222.3 80.4307 220.939 80.1807 219.558C83.0707 219.848 85.9607 220.149 88.8507 220.449C95.8007 221.159 102.801 221.69 109.781 221.84C115.371 221.97 120.931 221.78 126.491 221.32C127.901 221.2 129.301 221.069 130.701 220.919C133.241 220.639 135.791 220.339 138.331 220.039L138.341 220.049Z" fill="#FFAE90"/>
<path d="M135.411 240.056C135.161 241.677 134.921 243.299 134.681 244.9C133.051 245.01 131.411 245.09 129.771 245.15C126.831 245.25 123.881 245.26 120.931 245.2C116.971 245.12 113.011 244.92 109.061 244.69C101.861 244.26 94.6707 243.679 87.4907 242.978C86.6407 242.888 85.7807 242.808 84.9307 242.718C84.6307 241.397 84.3207 240.036 84.0107 238.655C92.3507 239.205 100.721 239.636 109.061 240.046C113.511 240.266 117.951 240.396 122.401 240.416C124.711 240.426 127.031 240.416 129.341 240.346C131.361 240.296 133.391 240.206 135.411 240.066V240.056Z" fill="#FFAE90"/>
<path d="M132.98 256C132.72 257.661 132.47 259.273 132.22 260.834C126.46 260.814 120.7 260.624 114.94 260.273C114.22 260.233 113.5 260.183 112.78 260.143C105.67 259.663 98.5703 258.962 91.4903 258.162C90.5403 258.052 89.5904 257.941 88.6404 257.821C88.3104 256.57 87.9704 255.239 87.6104 253.838C88.9004 253.928 90.1904 254.008 91.4804 254.108C98.2704 254.599 105.08 255.049 111.88 255.389C113.59 255.479 115.31 255.559 117.02 255.629C122.11 255.85 127.21 255.99 132.31 256.01C132.52 256.01 132.74 256.01 132.95 256.01L132.98 256Z" fill="#FFAE90"/>
<path opacity="0.39" d="M141.791 195.798C141.791 195.798 141.421 198.45 140.811 202.804C140.621 204.135 140.411 205.616 140.181 207.228C139.651 210.921 139.031 215.305 138.341 220.049C138.121 221.61 137.881 223.222 137.651 224.843C136.941 229.747 136.181 234.922 135.421 240.046C135.171 241.667 134.931 243.289 134.691 244.89C134.111 248.713 133.541 252.457 132.991 255.99C132.731 257.651 132.481 259.262 132.231 260.824C131.681 264.247 131.171 267.379 130.711 270.072C130.711 270.072 122.141 271.273 109.021 271.073C111.201 267.59 113.181 263.977 114.961 260.263C115.691 258.732 116.391 257.181 117.061 255.619C118.511 252.206 119.811 248.723 120.951 245.2C121.471 243.609 121.961 242.008 122.411 240.406C123.221 237.584 123.931 234.741 124.561 231.879C124.981 229.967 125.361 228.056 125.711 226.144C126.001 224.543 126.271 222.941 126.511 221.34C127.141 217.206 127.611 213.053 127.961 208.879C128.081 207.438 128.191 206.007 128.281 204.556C128.471 201.603 128.601 198.651 128.681 195.688C133.001 195.718 137.401 195.748 141.801 195.808L141.791 195.798Z" fill="#B75D46"/>
<path d="M155.001 300.788C153.991 301.939 152.511 302.51 151.071 303.03C148.941 303.801 146.801 304.531 144.641 305.212C143.361 305.612 142.081 306.003 140.801 306.373C133.741 308.425 126.541 309.996 119.261 311.087C118.571 311.197 117.871 311.297 117.171 311.387C116.501 311.477 115.831 311.557 115.151 311.637C112.161 311.958 109.131 312.008 106.331 310.987C100.981 309.025 97.7307 303.641 95.4807 298.406C94.9007 297.045 94.3707 295.404 95.1807 294.172C95.8307 293.172 97.1207 292.831 98.3007 292.631C99.9307 292.341 101.581 292.141 103.231 292.001C104.271 291.911 105.321 291.84 106.371 291.79C111.401 291.54 116.481 291.62 121.481 291.02C123.921 290.719 126.361 290.249 128.721 289.498C129.621 289.218 130.521 288.898 131.391 288.528C132.231 288.177 133.051 287.797 133.851 287.367C137.131 285.605 139.881 282.542 143.331 281.141C150.951 278.039 155.771 288.628 156.331 294.733C156.521 296.855 156.381 299.187 154.981 300.798L155.001 300.788Z" fill="#FF924A"/>
<path d="M119.26 311.087C118.57 311.197 117.87 311.297 117.17 311.387C116.5 311.477 115.83 311.557 115.15 311.637C111.93 308.795 109.27 305.382 107.15 301.589C105.54 298.706 104.02 295.383 103.24 291.99C104.28 291.9 105.33 291.83 106.38 291.78C107.35 294.573 108.39 297.325 109.94 299.957C112.41 304.161 115.67 307.814 119.26 311.077V311.087Z" fill="#F7EDEC"/>
<path d="M144.64 305.212C143.36 305.612 142.08 306.003 140.8 306.373C138.15 303.781 135.66 301.038 133.47 298.026C131.69 295.584 130.2 292.971 129.04 290.189C128.95 289.979 128.85 289.739 128.74 289.488C129.64 289.208 130.54 288.888 131.41 288.518C131.54 288.838 131.68 289.148 131.82 289.418C133.16 291.941 134.79 294.343 136.57 296.584C139.02 299.667 141.79 302.48 144.65 305.212H144.64Z" fill="#F7EDEC"/>
<path d="M280.74 260.293C280.74 260.293 249.39 238.104 203.75 230.168C202.41 229.937 201.03 230.158 199.81 230.788C191.09 235.302 154.38 255.319 132.04 283.593C132.04 283.593 141.81 298.826 154.98 307.794C154.98 307.794 189.61 285.165 207.45 266.799C207.45 266.799 239.74 284.274 256.73 295.023L315.25 285.935L280.73 260.303L280.74 260.293Z" fill="#3C4E56"/>
<path d="M131.47 332.875C129.77 335.017 123.94 335.778 121.5 336.529C115.32 338.43 109.05 340.032 102.72 341.313C101.08 341.643 99.43 341.953 97.78 342.243C96.62 342.444 95.47 342.634 94.31 342.814C89.81 343.515 84.71 343.905 81.21 340.992C77.98 338.31 77.23 333.766 76.11 329.733C74.25 323.037 70.83 316.812 68.27 310.376C67.63 308.755 67.04 307.133 66.55 305.482C66 303.64 65.56 301.779 65.29 299.867C64.8 296.414 65.25 292.191 68.33 290.539C71.71 288.718 75.77 291.26 78.5 293.962C78.93 294.382 79.35 294.813 79.76 295.243C80.78 296.314 81.75 297.445 82.69 298.606C84.03 300.287 85.28 302.049 86.42 303.881C88.28 306.873 89.89 310.106 92.49 312.488C94.03 313.899 95.82 314.93 97.75 315.681C98.86 316.121 100.02 316.461 101.2 316.732C103.56 317.282 106.03 317.552 108.43 317.712C113.65 318.053 118.89 318.043 124.11 317.672C125.55 317.572 127.09 317.462 128.34 318.183C129.83 319.044 130.48 320.815 130.91 322.477C131.55 324.979 133.3 330.623 131.5 332.895L131.47 332.875Z" fill="#FF924A"/>
<path d="M82.6703 298.596C80.8803 301.058 78.8403 303.33 76.5103 305.292C74.2603 307.174 71.3503 309.145 68.2503 310.366C67.6103 308.745 67.0203 307.124 66.5303 305.472C66.7103 305.412 66.8903 305.342 67.0703 305.272C69.6503 304.231 72.1003 302.66 74.2203 300.868C76.2203 299.177 78.0403 297.235 79.7403 295.233C80.7603 296.304 81.7303 297.435 82.6703 298.596Z" fill="#F7EDEC"/>
<path d="M102.721 341.313C101.081 341.643 99.4309 341.953 97.7809 342.244C97.6909 341.873 97.6009 341.503 97.5109 341.143C96.6509 337.59 96.1409 333.957 96.0309 330.303C95.9209 326.68 96.1409 323.027 96.8109 319.464C97.0609 318.153 97.3709 316.902 97.7409 315.671C98.8509 316.111 100.011 316.452 101.191 316.722C100.551 321.236 100.411 325.87 100.751 330.293C101.021 333.756 101.601 337.199 102.501 340.552C102.571 340.812 102.641 341.063 102.721 341.313Z" fill="#F7EDEC"/>
<path d="M279.431 280.01C279.431 280.01 182.581 289.869 106.841 303.31C106.841 303.31 103.121 323.918 106.841 347.218C106.841 347.218 179.681 338.701 217.761 325.709C217.761 325.709 267.011 330.634 306.331 327.501C306.331 327.501 350.201 323.918 346.061 280.01H279.431Z" fill="#455660"/>
<path d="M295.34 101.928C291.97 104.97 290.13 109.534 290.03 114.088C289.93 118.492 291.26 123.276 289.01 127.059C286.8 130.752 281.93 132.033 279.35 135.486C274.23 142.342 280.9 152.621 277.63 160.528C276.07 164.311 272.48 166.843 270.23 170.266C267.51 174.38 266.87 179.674 268 184.478C269.13 189.282 271.91 193.586 275.43 197.039C276.9 198.48 278.56 199.872 279.23 201.813C280.25 204.776 278.64 208.089 279.29 211.151C279.72 213.153 281.06 214.834 282.55 216.236C289.69 222.971 301.17 224.583 309.88 220.069C312.57 218.678 315.04 216.756 317.97 215.985C321.61 215.035 325.46 216.005 329.06 217.086C340.03 220.389 351.88 224.803 362.53 220.599C364.95 219.639 367.29 218.177 368.62 215.935C369.88 213.814 370.11 211.221 369.84 208.769C369.22 203.234 366.29 198.28 364.08 193.176C361.87 188.071 360.36 182.106 362.62 177.022C364.15 173.589 367.28 170.877 368.02 167.194C369.09 161.859 364.88 157.115 361.58 152.791C357.06 146.866 353.67 139.55 354.55 132.154C354.87 129.451 355.74 126.729 355.16 124.067C354.05 119.002 348.41 116.54 345.05 112.587C342.93 110.085 341.72 106.952 340.04 104.14C338.36 101.327 335.93 98.6248 332.7 98.0543C329.23 97.4338 325.78 99.3954 322.25 99.3054C317.06 99.1753 312.94 95.5521 307.58 97.1435C303.37 98.3946 298.73 98.865 295.32 101.938L295.34 101.928Z" fill="#120902"/>
<path d="M333.971 137.908C334.991 137.848 336.061 137.958 336.941 138.479C337.941 139.069 338.581 140.15 338.801 141.281C339.021 142.412 338.861 143.583 338.531 144.694C337.971 146.546 336.921 148.257 335.511 149.598C334.391 150.669 333.011 151.52 331.471 151.78C329.941 152.04 328.241 151.65 327.161 150.539C326.211 149.568 325.821 148.147 325.901 146.796C326.181 142.102 328.901 138.209 333.971 137.908Z" fill="#FFAE90"/>
<path d="M326.82 148.307C326.53 152.851 325.98 157.365 325.31 161.869C324.72 165.822 324.03 169.766 323.34 173.699C323.28 174.029 323.21 174.38 322.98 174.6C322.74 174.83 322.4 174.87 322.08 174.9C317.32 175.36 312.51 175.21 307.79 174.44C307.88 174.44 309.02 169.325 309.54 167.023C309.66 166.483 309.75 166.103 309.78 165.972C310.38 163.43 310.97 160.898 311.56 158.356C312.1 156.044 312.29 152.831 313.35 150.729C314.17 149.098 317.82 148.958 319.58 148.708C321.98 148.357 324.42 148.217 326.84 148.297L326.82 148.307Z" fill="#FFAE90"/>
<path d="M326.821 148.307C326.531 152.851 325.981 157.365 325.311 161.869C324.701 162.539 324.041 163.16 323.321 163.71C321.511 165.081 319.361 165.952 317.181 166.593C315.401 167.113 313.561 167.494 311.701 167.393C310.971 167.353 310.231 167.233 309.521 167.033C309.641 166.493 309.731 166.112 309.761 165.982C310.361 163.44 310.951 160.908 311.541 158.366C312.081 156.054 312.271 152.841 313.331 150.739C314.151 149.108 317.801 148.968 319.561 148.717C321.961 148.367 324.401 148.227 326.821 148.307Z" fill="#FC987A"/>
<path d="M294.21 141.912C294.13 145.074 294.17 148.277 294.97 151.33C295.77 154.392 297.42 157.325 300.02 159.116C302.58 160.888 305.78 161.398 308.88 161.639C312.68 161.929 316.67 161.839 320.05 160.077C322.23 158.936 324.03 157.165 325.53 155.213C329.96 149.458 331.94 142.192 333.18 135.036C334.2 129.171 334.76 122.995 332.79 117.381C330.22 110.034 323.13 104.49 315.38 103.759C295.41 101.897 294.53 128.03 294.2 141.912H294.21Z" fill="#FFAE90"/>
<path d="M308.941 120.233C312.721 123.496 318.831 124.146 321.071 128.6C322.141 130.722 322.031 133.234 322.761 135.496C323.801 138.679 326.651 141.211 329.931 141.862C333.211 142.512 336.811 141.261 338.981 138.719C337.581 135.476 337.991 131.793 337.791 128.27C337.431 121.854 334.871 115.589 330.651 110.745C326.431 105.911 320.571 102.528 314.271 101.297C312.291 100.906 310.151 100.746 308.321 101.597C302.261 104.399 304.931 116.78 308.931 120.233H308.941Z" fill="#120902"/>
<path d="M303.731 139.239C302.741 139.459 301.281 139.63 300.401 138.909C298.131 137.037 299.931 138.078 300.301 137.588C300.131 137.818 301.671 136.597 301.501 136.767C301.781 136.497 302.231 135.816 302.431 135.496C303.631 133.554 304.441 130.982 303.891 128.72C303.821 128.43 303.391 128.44 303.311 128.72C302.651 130.962 302.421 133.384 300.831 135.256C300.041 136.187 298.341 136.277 298.081 137.658C297.521 140.58 302.261 141.341 304.141 140.691C305.041 140.37 304.691 139.049 303.741 139.249L303.731 139.239Z" fill="#F7886D"/>
<path d="M335.13 143.734C332.9 142.152 330.33 143.864 328.48 145.185C327.83 145.655 328.19 146.806 329.06 146.556C330.94 146.016 332.46 146.616 333.71 148.057C334.27 148.708 335.25 147.877 334.86 147.167C334.17 145.915 332.93 145.135 331.57 144.865C332.57 144.364 333.66 144.104 334.88 144.304C335.23 144.364 335.42 143.944 335.12 143.724L335.13 143.734Z" fill="#F7886D"/>
<path d="M299.421 130.012C299.421 130.012 299.421 129.992 299.421 129.972C299.401 129.902 299.371 129.832 299.331 129.762C298.821 128.601 297.891 127.79 296.621 128.32C296.351 128.43 296.341 128.941 296.701 128.901C297.041 128.861 297.331 128.921 297.571 129.041C297.551 129.071 297.531 129.091 297.511 129.121C296.791 130.492 296.241 132.124 297.121 133.565C297.751 134.596 298.821 134.516 299.421 133.485C299.901 132.664 299.871 131.193 299.421 130.012Z" fill="#120902"/>
<path d="M312.51 131.393C311.8 130.993 311.01 131.173 310.54 131.813C310.35 132.074 310.67 132.464 310.96 132.354C311.1 132.304 311.21 132.284 311.32 132.284C309.99 133.174 309.65 135.557 310.6 136.778C311.18 137.518 312.18 137.498 312.76 136.778C313.41 135.977 313.65 134.716 313.64 133.705C313.63 132.824 313.33 131.863 312.51 131.403V131.393Z" fill="#120902"/>
<path d="M300.831 125.418C299.841 124.297 298.241 123.346 296.691 123.436C295.731 123.496 295.141 124.917 296.161 125.408C296.731 125.678 297.361 125.818 297.931 126.088C298.511 126.369 299.101 126.629 299.661 126.939C300.641 127.48 301.551 126.238 300.831 125.418Z" fill="#120902"/>
<path d="M316.411 128.87C315.191 127.509 312.991 126.388 311.131 126.548C310.371 126.619 309.901 127.699 310.711 128.11C311.461 128.49 312.261 128.74 313.011 129.121C313.771 129.501 314.471 130.001 315.191 130.462C316.201 131.102 317.161 129.701 316.421 128.87H316.411Z" fill="#120902"/>
<path d="M305.16 144.053C305 143.863 304.76 143.713 304.43 143.613C303.96 143.463 303.45 143.463 302.96 143.443C300.7 143.363 297.11 141.341 296.8 144.634C296.65 146.255 297 148.938 298.12 150.229C299.58 151.92 302.26 150.369 303.43 149.098C304.18 148.287 304.71 147.316 305.13 146.305C305.46 145.505 305.66 144.634 305.16 144.063V144.053Z" fill="white"/>
<path d="M273.911 121.434L263.941 159.827C263.711 160.938 262.661 161.689 261.541 161.549C261.441 161.539 261.341 161.519 261.241 161.509C257.501 161.028 251.211 159.947 243.561 158.436C242.381 158.206 241.621 157.065 241.841 155.884C243.181 148.718 247.621 125.308 250.091 116.26C250.221 115.78 250.511 115.369 250.881 115.089C251.371 114.719 252.011 114.559 252.651 114.699L272.221 118.842C273.401 119.092 274.151 120.253 273.911 121.434Z" fill="#36474F"/>
<path d="M272.051 121.805L262.081 160.198C261.961 160.738 261.661 161.198 261.241 161.509C257.501 161.028 251.211 159.947 243.561 158.436C242.381 158.206 241.621 157.065 241.841 155.884C243.181 148.718 247.621 125.308 250.091 116.26C250.221 115.779 250.511 115.369 250.881 115.089L270.361 119.212C271.541 119.463 272.291 120.624 272.051 121.805Z" fill="#455660"/>
<path d="M258.9 124.227L259.85 119.723C259.91 119.452 260.17 119.272 260.45 119.332L269.27 121.194C269.53 121.244 269.7 121.484 269.66 121.744C269.56 122.595 269.3 124.497 268.95 126.308C268.9 126.579 268.64 126.759 268.36 126.709C266.71 126.398 261.34 125.378 259.26 124.807C259 124.737 258.85 124.477 258.9 124.217V124.227Z" fill="#5D707A"/>
<path d="M263.22 124.487L263.9 121.264C263.94 121.074 264.08 120.934 264.2 120.964L268.25 121.825C268.37 121.845 268.44 122.015 268.41 122.195C268.32 122.806 268.1 124.157 267.84 125.458C267.8 125.648 267.67 125.788 267.54 125.768C266.78 125.638 264.31 125.198 263.36 124.907C263.24 124.867 263.18 124.697 263.22 124.507V124.487Z" fill="#36474F"/>
<path d="M256.41 126.599C256.89 126.619 257.27 127.029 257.2 127.51C257.03 128.54 256.1 129.471 255.22 130.152C253.24 131.693 251.13 133.054 248.92 134.235C253.27 134.916 257.82 135.677 261.24 138.499C261.53 138.729 261.71 139.099 261.67 139.46C261.59 140.22 260.72 140.381 260.03 140.381C257.32 140.411 254.6 140.2 251.93 139.73C253.41 140.581 255.16 140.811 256.75 141.431C257.87 141.862 258.98 142.613 259.58 143.613C259.94 144.224 259.5 145.005 258.79 144.985C256.29 144.904 253.79 144.614 251.34 144.124C252.96 144.774 254.56 145.475 256.14 146.226C256.83 146.556 257.55 146.926 257.85 147.687C257.99 148.037 257.98 148.458 257.77 148.768C257.38 149.358 256.68 149.288 256.07 149.198C253.99 148.898 251.91 148.598 249.83 148.287C251.98 148.598 253.52 150.78 253.71 152.951C253.91 155.113 252.35 159.117 250.2 158.796C249.42 162.66 248.47 164.241 247.37 168.024C242.41 166.543 237.68 164.281 233.41 161.339C234.81 158.326 236.22 155.313 237.49 152.251C238.8 149.088 239.97 145.775 239.95 142.352C239.94 140.621 239.61 138.889 239.62 137.158C239.62 132.804 241.99 131.493 245.46 129.671C248.84 127.9 252.57 126.459 256.43 126.599H256.41Z" fill="#FFAE90"/>
<path d="M377.18 224.663C374.02 212.132 366.96 200.972 359.38 190.523C355.77 185.549 351.99 180.655 347.56 176.391C346.43 175.3 344.62 173.409 342.77 172.398C341.52 171.357 340.07 170.546 338.49 169.916C333.08 167.724 326.22 167.604 320.91 167.283C310.38 166.653 300.27 168.464 290.1 170.556C288 170.987 285.89 171.437 283.78 171.867C278.88 172.878 274.01 174.049 269.18 175.38C259.53 178.033 250.04 181.305 240.81 185.179C245.77 179.594 249.67 173.068 252.26 166.062C252.42 165.642 252.57 165.192 252.46 164.751C252.35 164.311 252 163.971 251.65 163.67C246.96 159.517 241.45 156.304 235.52 154.282C226.39 168.334 217.09 182.797 213.55 199.181C213.12 201.162 212.78 203.274 213.42 205.196C214.59 208.729 218.54 210.44 222.15 211.321C232.55 213.853 243.5 212.932 253.98 210.831C263.01 209.029 271.84 206.357 280.8 204.275C281.46 210.611 282.77 216.866 284.73 222.921C285.59 225.593 286.59 228.436 285.86 231.148C285.3 233.2 283.84 234.861 282.41 236.433C277.39 241.997 272.36 247.572 267.34 253.137C266.78 253.747 266.2 254.428 266.14 255.259C266.09 255.979 266.44 256.65 266.79 257.27C271.83 266.088 280.16 272.684 289.26 277.188C298.36 281.701 308.27 284.294 318.14 286.646C327.92 288.968 337.74 291.069 347.61 292.961C347.85 282.452 347.14 271.913 345.51 261.524C344.86 257.401 344.21 253.287 343.58 249.174C345.43 249.904 347.29 250.545 349.16 251.105C356.44 253.257 364.91 254.558 371.15 250.224C374.98 247.572 377.32 243.118 378.12 238.524C378.92 233.931 378.3 229.186 377.17 224.673L377.18 224.663ZM340.16 218.868C339.98 215.575 339.89 212.272 339.89 208.949C340.2 209.48 340.49 210.01 340.78 210.54C343.07 214.834 344.72 219.738 348.54 222.741C345.59 221.59 342.82 220.269 340.15 218.868H340.16Z" fill="#F7EDEC"/>
<path d="M338.491 169.906C329.421 177.983 317.841 183.197 305.781 184.618C303.211 184.919 300.521 185.039 298.131 184.058C295.151 182.837 293.041 180.044 291.911 177.032C291.421 175.721 290.441 172.928 290.091 170.556C300.271 168.464 310.371 166.653 320.901 167.283C326.211 167.604 333.071 167.724 338.481 169.916L338.491 169.906Z" fill="#FFAE90"/>
<path d="M252.211 164.541C250.151 166.983 248.731 169.936 247.081 172.658C245.301 175.6 243.461 178.513 241.541 181.365C239.521 184.358 237.391 187.28 235.161 190.123C233.191 192.635 230.651 194.987 229.041 197.739C228.621 198.46 229.521 199.531 230.271 198.97C232.981 196.889 235.091 193.716 237.171 191.024C239.171 188.441 241.091 185.799 242.931 183.097C244.861 180.254 246.681 177.332 248.381 174.339C250.071 171.367 251.971 168.214 252.751 164.851C252.821 164.571 252.441 164.291 252.221 164.541H252.211Z" fill="#E2D1D0"/>
<path d="M287.49 185.219C285.02 188.161 283.07 192.135 281.68 195.708C280.25 199.401 280.17 203.424 280.57 207.328C281.43 215.625 284.46 223.512 285.78 231.729C285.99 233.05 287.94 232.469 287.76 231.178C286.69 223.372 283.77 215.955 282.82 208.128C282.34 204.175 282.27 200.031 283.71 196.258C285.07 192.685 287.34 189.392 288.21 185.639C288.3 185.249 287.78 184.869 287.49 185.219Z" fill="#E2D1D0"/>
<path d="M363.631 225.964C357.601 224.002 351.551 222.301 345.641 219.979C342.661 218.808 339.731 217.527 336.811 216.185C334.011 214.904 331.271 213.333 328.341 212.372C327.931 212.242 327.541 212.572 327.451 212.953C324.981 214.874 322.691 216.996 320.101 218.788C317.311 220.709 314.411 222.411 311.331 223.842C310.761 224.102 310.611 224.943 310.911 225.443C314.561 231.468 319.351 236.773 324.901 241.117C330.201 245.27 336.521 249.124 343.091 250.825C344.551 251.205 345.001 249.184 343.691 248.633C337.381 245.991 331.461 243.279 326.071 238.965C321.211 235.082 317.091 230.448 313.641 225.303C319.041 222.581 324.651 218.898 328.271 214.004C332.951 217.477 338.941 219.688 344.271 221.86C350.311 224.322 356.651 226.724 363.041 228.096C364.441 228.396 365.001 226.394 363.631 225.954V225.964Z" fill="#E2D1D0"/>
<path d="M315.59 178.814C315.54 179.284 314.78 179.634 313.5 179.845C311.28 180.215 307.52 180.175 303.3 179.654C299.23 179.154 295.68 178.323 293.55 177.452C292.19 176.902 291.42 176.331 291.47 175.831C291.6 174.54 297.1 174.16 303.76 174.98C310.42 175.801 315.72 177.512 315.59 178.804V178.814Z" fill="#C75749"/>
<path d="M315.45 178.713L308.49 208.479C306.02 209.279 303.4 209.39 300.96 209.169C295.6 208.679 291.12 206.577 291.12 206.577L291.6 175.761L315.44 178.723L315.45 178.713Z" fill="#C75749"/>
<path d="M315.011 178.714L308.501 208.479C306.031 209.28 303.411 209.39 300.971 209.17C303.331 206.527 305.221 202.904 306.561 199.241C309.021 192.575 310.381 185.459 311.111 178.283L315.011 178.714Z" fill="#BF4A41"/>
<path d="M315.01 178.714C314.97 179.114 314.24 179.404 313.02 179.584C310.91 179.895 307.33 179.865 303.31 179.424C299.44 179.004 296.06 178.303 294.03 177.573C292.74 177.102 292 176.632 292.05 176.201C292.17 175.11 297.4 174.79 303.74 175.481C310.07 176.171 315.12 177.623 315 178.704L315.01 178.714Z" fill="#AD3E36"/>
<path d="M313.02 179.594C310.91 179.904 307.33 179.874 303.31 179.434C299.44 179.014 296.06 178.313 294.03 177.582C296.14 177.272 299.72 177.302 303.74 177.743C307.6 178.163 310.99 178.864 313.01 179.604L313.02 179.594Z" fill="white"/>
<g opacity="0.43">
<path d="M303.501 158.036C302.751 156.334 300.991 155.273 299.281 156.384C297.941 157.255 299.161 159.387 300.541 158.546C301.941 157.695 301.991 161.128 301.861 161.659C301.621 162.62 301.041 163.17 300.371 163.821C299.211 164.952 298.271 165.752 297.981 167.414C297.721 168.855 298.071 170.196 298.511 171.557C298.801 172.468 299.191 173.379 299.341 174.33C299.531 175.511 299.201 176.431 299.001 177.552C298.971 177.723 299.111 177.943 299.311 177.863C301.051 177.222 301.021 175.08 300.781 173.499C300.501 171.667 299.531 169.516 300.131 167.644C300.601 166.173 302.181 165.412 302.991 164.151C304.141 162.349 304.371 159.997 303.501 158.026V158.036Z" fill="white"/>
<path d="M311.56 158.926C310.81 157.225 309.05 156.164 307.34 157.275C306 158.146 307.22 160.278 308.6 159.437C310 158.586 310.05 162.019 309.92 162.549C309.68 163.51 309.1 164.061 308.43 164.711C307.27 165.842 306.33 166.643 306.04 168.304C305.78 169.746 306.13 171.087 306.57 172.448C306.86 173.359 307.25 174.27 307.4 175.22C307.59 176.401 307.26 177.322 307.06 178.443C307.03 178.613 307.17 178.833 307.37 178.753C309.11 178.113 309.08 175.971 308.84 174.39C308.56 172.558 307.59 170.406 308.19 168.535C308.66 167.063 310.24 166.303 311.05 165.042C312.2 163.24 312.43 160.888 311.56 158.916V158.926Z" fill="white"/>
</g>
<path d="M300.061 182.937C299.181 183.087 298.781 184.158 299.341 184.859C299.841 185.469 300.591 185.959 301.301 186.33C303.521 187.491 305.841 188.472 308.221 189.242C304.061 190.674 299.711 192.235 296.841 195.608C296.601 195.888 296.491 196.278 296.591 196.629C296.801 197.359 297.691 197.359 298.371 197.249C301.051 196.799 303.681 196.108 306.231 195.177C304.931 196.278 303.241 196.809 301.791 197.7C300.881 198.26 300.011 199.061 299.541 200.002C299.151 200.792 299.861 201.683 300.721 201.493C303.061 200.972 305.361 200.272 307.591 199.401C306.111 200.322 304.651 201.293 303.241 202.313C302.621 202.764 301.971 203.254 301.811 204.055C301.741 204.425 301.811 204.836 302.081 205.106C302.561 205.616 303.251 205.426 303.831 205.236C305.831 204.575 307.821 203.905 309.821 203.244C307.761 203.925 307.451 206.887 307.641 209.049C307.831 211.211 309.741 215.725 311.801 215.024C313.251 218.688 313.961 218.698 315.711 222.231C320.331 219.899 324.591 216.836 328.281 213.193C326.371 210.48 324.461 207.758 322.671 204.966C320.831 202.083 319.081 199.031 318.511 195.648C318.221 193.936 318.231 192.185 317.931 190.473C317.161 186.19 314.601 185.309 310.861 184.138C307.401 183.047 303.681 182.306 300.071 182.937H300.061Z" fill="#FFAE90"/>
<path d="M324.521 298.616C323.771 299.217 322.601 299.046 321.591 299.157C319.021 299.447 317.411 301.589 315.961 303.58C307.171 315.591 297.021 326.37 285.701 335.708C287.021 337.069 288.321 338.59 288.901 340.322C289.491 342.063 289.151 344.035 287.751 344.566C285.561 345.396 282.931 342.594 280.811 340.532C278.431 338.23 275.671 336.509 272.951 334.767C272.631 334.557 272.301 334.357 271.981 334.147C271.801 334.036 271.621 333.916 271.451 333.796C266.091 330.283 260.931 326.29 256.061 321.886C255.421 321.316 254.781 320.725 254.151 320.135C251.551 317.692 249.041 315.13 246.631 312.478C243.401 308.915 240.721 304.912 237.751 301.178C237.391 300.728 237.031 300.288 236.661 299.847C236.361 299.487 236.051 299.127 235.741 298.766C233.141 295.794 228.831 293.412 228.691 289.188C228.691 289.138 228.691 289.088 228.691 289.038C228.671 286.486 230.471 284.494 232.861 284.444C233.911 284.424 235.051 284.724 236.021 284.474C236.911 284.244 237.551 283.563 238.161 282.903C247.131 273.154 256.101 263.416 265.071 253.668C265.661 253.027 266.271 252.336 266.431 251.386C266.621 250.205 266.071 248.843 265.751 247.562C264.941 244.3 266.471 240.516 269.551 241.367C270.611 241.667 271.591 242.448 272.521 243.209C275.941 246.001 279.371 248.803 282.771 251.656C283.311 252.106 283.851 252.567 284.401 253.027C288.261 256.3 292.071 259.633 295.771 263.106C296.041 263.356 296.311 263.626 296.591 263.876C301.281 268.32 305.781 272.974 309.961 277.968C312.201 280.641 314.351 283.423 316.621 286.075C316.891 286.386 317.161 286.706 317.431 287.016C317.681 287.296 317.931 287.577 318.181 287.857C319.181 288.968 320.231 290.049 321.311 291.08C323.631 293.272 326.471 297.055 324.531 298.616H324.521Z" fill="#FF924A"/>
<path d="M324.52 298.616C323.77 299.217 322.6 299.047 321.59 299.157C319.02 299.447 317.41 301.589 315.96 303.581C307.17 315.591 297.02 326.37 285.7 335.708C287.02 337.069 288.32 338.591 288.9 340.322C289.49 342.064 289.15 344.035 287.75 344.566C285.56 345.396 282.93 342.594 280.81 340.532C278.15 337.95 275.01 336.108 271.99 334.147C262.81 328.202 254.22 320.845 246.64 312.478C242.7 308.134 239.58 303.13 235.75 298.766C233.15 295.794 228.84 293.412 228.7 289.188C228.7 289.138 228.7 289.088 228.7 289.038C229.06 289.248 229.43 289.478 229.82 289.739C237.54 294.803 244.3 298.486 250.96 305.552C256.64 311.587 262.51 318.944 270.23 320.825C279.3 323.037 285.86 316.442 293.14 312.768C298.44 310.096 304.7 308.865 309.13 304.982C313.96 300.758 316.01 294.002 317.42 287.026C318.66 288.438 319.94 289.809 321.31 291.09C323.63 293.282 326.47 297.065 324.53 298.626L324.52 298.616Z" fill="#F48840"/>
<path d="M284.391 253.027C277.181 261.074 269.831 268.971 262.351 276.738C254.341 285.045 246.281 293.402 237.771 301.178C237.411 300.728 237.051 300.288 236.681 299.847C244.651 291.82 252.791 283.984 260.621 275.807C268.161 267.92 275.541 259.873 282.771 251.666C283.311 252.116 283.851 252.577 284.401 253.037L284.391 253.027Z" fill="white"/>
<path d="M296.57 263.876C289.87 273.455 283.25 283.103 276.5 292.631C269.64 302.329 262.94 312.188 256.06 321.876C255.42 321.306 254.78 320.715 254.15 320.125C260.99 310.446 268.05 300.948 274.96 291.35C281.8 281.852 288.8 272.494 295.75 263.096C296.02 263.346 296.29 263.616 296.57 263.866V263.876Z" fill="white"/>
<path d="M318.17 287.857C317.1 288.978 316.03 290.099 314.96 291.21C301.02 305.802 286.98 320.275 272.95 334.757C272.63 334.547 272.3 334.347 271.98 334.137C271.8 334.027 271.62 333.906 271.45 333.786C272.23 332.956 273 332.125 273.78 331.294C282.93 321.606 292.05 311.898 301.21 302.229C305.75 297.445 310.3 292.681 314.84 287.907C315.42 287.296 316.01 286.676 316.59 286.065C316.86 286.376 317.13 286.696 317.4 287.006C317.65 287.286 317.9 287.567 318.15 287.847L318.17 287.857Z" fill="white"/>
</g>
<defs>
<clipPath id="clip0_400_9205">
<rect width="470" height="420" fill="white"/>
</clipPath>
</defs>
</svg>
