<svg width="156" height="300" viewBox="0 0 156 300" fill="none" xmlns="http://www.w3.org/2000/svg">
<g clip-path="url(#clip0_400_9526)">
<path d="M131.952 0.0219727H49.9082V85.542H131.952V0.0219727Z" fill="#E0E0E0"/>
<path d="M126.395 0.0219727H44.3516V85.542H126.395V0.0219727Z" fill="#FAFAFA"/>
<path d="M126.424 85.5715H44.3291V0H126.424V85.5715ZM44.3806 85.52H126.372V0.0514517H44.3806V85.52Z" fill="#E0E0E0"/>
<path d="M115.369 11.5254H55.3838V74.0539H115.369V11.5254Z" fill="#FAFAFA"/>
<path d="M55.3843 74.4652C55.4284 74.524 54.8624 75.1782 53.9069 76.1852C52.9513 77.1995 51.6062 78.5667 50.0921 80.0514C48.5853 81.5361 47.1961 82.8592 46.1744 83.8C45.1527 84.7409 44.4912 85.2995 44.4398 85.2407C44.3883 85.1892 44.9543 84.535 45.9098 83.5281C46.8653 82.5137 48.2178 81.1466 49.7319 79.6545C51.2461 78.1624 52.6353 76.8393 53.657 75.8985C54.6786 74.9577 55.3328 74.4064 55.3843 74.4652Z" fill="#E0E0E0"/>
<path d="M115.37 74.311C115.428 74.2669 116.082 74.8329 117.089 75.7884C118.104 76.7439 119.471 78.089 120.956 79.6032C122.44 81.11 123.763 82.4992 124.704 83.5208C125.645 84.5425 126.204 85.204 126.145 85.2555C126.094 85.307 125.439 84.741 124.432 83.7855C123.425 82.8299 122.051 81.4775 120.559 79.9633C119.067 78.4492 117.744 77.06 116.803 76.0383C115.862 75.0166 115.311 74.3624 115.37 74.311Z" fill="#E0E0E0"/>
<path d="M115.2 11.6869C115.156 11.6281 115.722 10.9739 116.677 9.96695C117.633 8.95261 118.978 7.58547 120.492 6.10072C121.999 4.61597 123.388 3.29293 124.41 2.3521C125.431 1.41127 126.093 0.852651 126.144 0.911452C126.196 0.962904 125.63 1.61708 124.674 2.62406C123.719 3.63839 122.366 5.00554 120.852 6.49763C119.338 7.98973 117.949 9.31278 116.927 10.2536C115.905 11.1944 115.251 11.7457 115.2 11.6869Z" fill="#E0E0E0"/>
<path d="M55.2221 11.8413C55.1633 11.8854 54.5091 11.3194 53.5021 10.3639C52.4878 9.40836 51.1206 8.05592 49.6359 6.54912C48.1511 5.04232 46.8281 3.65313 45.8873 2.63144C44.9464 1.60976 44.3878 0.948239 44.4466 0.896787C44.4981 0.845335 45.1522 1.4113 46.1592 2.36683C47.1735 3.32237 48.5407 4.67481 50.0328 6.18896C51.5249 7.70311 52.8479 9.0923 53.7888 10.114C54.7296 11.1357 55.2809 11.7898 55.2221 11.8413Z" fill="#E0E0E0"/>
<path d="M115.2 74.0465C115.2 74.0465 115.193 73.9362 115.185 73.7451C115.185 73.5319 115.178 73.2453 115.171 72.8704C115.171 72.0839 115.156 70.9594 115.141 69.4967C115.127 66.5345 115.104 62.2273 115.082 56.7513C115.053 45.7995 115.016 30.2023 114.965 11.518L115.193 11.7458C97.7285 11.7532 77.2214 11.7679 55.3764 11.7826L55.6411 11.518C55.6264 34.4654 55.6117 55.9355 55.6043 74.0465L55.3764 73.8186C73.3037 73.8701 88.2247 73.9068 98.6914 73.9362C103.917 73.9583 108.034 73.9803 110.856 73.995C112.253 74.0097 113.326 74.0171 114.075 74.0244C114.428 74.0244 114.7 74.0318 114.906 74.0391C115.097 74.0391 115.193 74.0465 115.193 74.0538C115.193 74.0538 115.104 74.0612 114.928 74.0685C114.73 74.0685 114.465 74.0685 114.12 74.0832C113.385 74.0832 112.319 74.0979 110.944 74.1126C108.129 74.1273 104.035 74.1494 98.8311 74.1714C88.3349 74.2008 73.3551 74.2376 55.3691 74.289H55.1412V74.0612C55.1339 55.9575 55.1192 34.4801 55.1045 11.5327V11.2681H55.3691C77.214 11.2828 97.7212 11.2901 115.185 11.3048H115.421V11.5327C115.369 30.2758 115.332 45.9244 115.303 56.9131C115.274 62.3596 115.259 66.6521 115.244 69.6069C115.229 71.0549 115.222 72.1648 115.215 72.9366C115.215 73.2967 115.207 73.576 115.2 73.7818C115.2 73.973 115.193 74.0612 115.185 74.0612L115.2 74.0465Z" fill="#E0E0E0"/>
<path d="M95.3838 32.7749H75.3691V52.7896H95.3838V32.7749Z" fill="#EBEBEB"/>
<path d="M53.1716 66.2844C51.2752 63.2708 50.7533 59.4266 51.7824 56.0234C52.3925 54.0095 53.495 52.1866 54.6563 50.4446C56.0161 48.4086 57.5082 46.4093 59.4781 44.954C58.6622 45.7184 59.7794 44.7335 59.4781 44.954C59.8309 44.6306 60.2793 42.7269 60.4924 42.2932C61.6097 40.0514 62.4108 39.4266 63.1826 39.1841C64.6527 38.7136 64.9761 38.5813 66.4976 38.3535C68.0191 38.1256 70.621 39.2061 71.9073 40.0587C72.4439 38.0889 74.1565 36.5233 76.1264 35.994C78.0962 35.4648 80.2793 35.9205 81.9845 37.0451C82.1683 37.1627 82.3667 37.3024 82.5799 37.273C82.8298 37.2436 83.0062 37.0231 83.1606 36.832C84.3513 35.3619 86.3432 34.4872 88.1881 34.9062C90.033 35.3252 91.5178 37.1921 91.2458 39.0664C92.6718 37.9492 94.796 37.8169 96.3469 38.743C97.8978 39.6692 98.7872 41.6023 98.4785 43.3884C99.8162 43.1017 101.36 42.8518 102.44 43.6971C103.749 44.7114 104.41 46.8871 104.16 48.5262C104.006 49.5405 103.087 51.7603 102.058 52.6717C100.808 53.7743 99.75 53.0833 98.1256 53.4362C95.7074 53.9727 93.1495 54.4799 90.7828 53.7302" fill="#263238"/>
<path d="M106.292 67.9161C105.182 53.7522 93.3702 42.815 79.1622 42.7856H77.7509C62.5286 43.6383 54.7447 57.0525 56.0236 72.2454L58.7579 142.455H93.6569L93.3482 119.603C93.3482 119.603 107.99 117.354 108.203 102.727C108.306 95.6633 107.328 81.0877 106.292 67.9161Z" fill="#B78876"/>
<path d="M93.4726 119.588C93.4726 119.588 84.1305 120.132 74.3105 113.936C74.3105 113.936 78.8015 124.476 93.3991 123.19L93.4726 119.588Z" fill="#995037"/>
<path d="M100.595 79.4778C100.632 80.5804 99.7276 81.5212 98.5737 81.58C97.427 81.6388 96.4568 80.7935 96.42 79.691C96.3833 78.5885 97.2874 77.6476 98.434 77.5888C99.588 77.53 100.551 78.3753 100.588 79.4778H100.595Z" fill="#263238"/>
<path d="M103.131 75.0679C102.874 75.3399 101.294 74.1639 99.0445 74.1639C96.7953 74.1345 95.1489 75.2885 94.8989 75.0091C94.7813 74.8842 95.0459 74.3991 95.7663 73.8772C96.4719 73.3553 97.6847 72.8555 99.0812 72.8629C100.485 72.8702 101.661 73.3921 102.337 73.9213C103.028 74.4505 103.264 74.9503 103.131 75.0679Z" fill="#263238"/>
<path d="M78.9709 80.4778C79.0077 81.5804 78.1036 82.5212 76.9496 82.58C75.803 82.6388 74.8328 81.7935 74.796 80.691C74.7593 79.5885 75.6633 78.6476 76.81 78.5888C77.964 78.53 78.9268 79.3753 78.9636 80.4778H78.9709Z" fill="#263238"/>
<path d="M80.9998 76.1925C80.7426 76.4644 79.1549 75.2884 76.9131 75.2884C74.6639 75.259 73.0175 76.413 72.7675 76.1337C72.6499 76.0087 72.9072 75.5236 73.6349 75.0017C74.3405 74.4798 75.5533 73.98 76.9498 73.9874C78.3537 73.9947 79.5298 74.5166 80.206 75.0458C80.8969 75.575 81.1321 76.0749 80.9998 76.1925Z" fill="#263238"/>
<path d="M89.1588 92.1351C89.1515 92.0101 90.548 91.7676 92.8119 91.4809C93.3852 91.4221 93.9291 91.3119 94.0247 90.915C94.157 90.5033 93.9218 89.8786 93.6424 89.2097C93.1059 87.8205 92.5399 86.3652 91.9519 84.8363C89.6072 78.6033 87.9093 73.4875 88.1592 73.392C88.4091 73.2964 90.5186 78.2725 92.8633 84.5055C93.4293 86.0417 93.9659 87.5044 94.4804 88.9083C94.6935 89.5625 95.0684 90.3049 94.7744 91.1649C94.62 91.5912 94.1937 91.9072 93.8262 92.0028C93.4587 92.113 93.1353 92.1204 92.8486 92.1351C90.57 92.2527 89.1588 92.26 89.1441 92.1351H89.1588Z" fill="#263238"/>
<path d="M82.5355 93.6789C82.903 93.6568 82.903 96.0971 84.9831 97.8391C87.0632 99.5811 89.6652 99.3165 89.6873 99.6546C89.724 99.809 89.1066 100.125 88.0114 100.154C86.9309 100.191 85.3653 99.8384 84.0864 98.7799C82.8148 97.7141 82.2709 96.2955 82.19 95.2959C82.1018 94.2742 82.3738 93.6715 82.5428 93.6862L82.5355 93.6789Z" fill="#263238"/>
<path d="M82.1535 71.0988C81.9403 71.7088 79.6911 71.4442 77.0524 71.7897C74.4137 72.0837 72.2894 72.8775 71.9366 72.3336C71.7749 72.069 72.1424 71.4957 72.9951 70.893C73.8403 70.2902 75.1928 69.7169 76.7804 69.5258C78.3607 69.3347 79.8161 69.5699 80.779 69.9521C81.7492 70.3343 82.2417 70.8048 82.1535 71.0988Z" fill="#263238"/>
<path d="M103.682 68.5705C103.249 69.1291 101.308 68.791 99.0369 68.9968C96.7583 69.1364 94.884 69.7612 94.3842 69.2761C94.1637 69.0409 94.4136 68.497 95.2074 67.931C95.9866 67.365 97.3317 66.8358 98.8899 66.7182C100.456 66.6006 101.852 66.924 102.69 67.365C103.543 67.806 103.859 68.3059 103.675 68.5705H103.682Z" fill="#263238"/>
<path d="M58.221 83.0871C57.9711 82.9769 48.1732 80.0956 48.4746 90.0993C48.7759 100.103 58.7576 97.7435 58.7649 97.4495C58.7723 97.1628 58.221 83.0871 58.221 83.0871Z" fill="#B78876"/>
<path d="M56.4719 93.7522C56.4278 93.7228 56.3028 93.8771 56.0088 94.0241C55.7222 94.1638 55.2371 94.2667 54.7078 94.0903C53.6421 93.7375 52.7012 92.0837 52.5983 90.2829C52.5469 89.3714 52.7086 88.4968 53.0099 87.7764C53.2966 87.0341 53.7523 86.5122 54.2815 86.4019C54.8107 86.2623 55.1929 86.571 55.3253 86.8503C55.4649 87.1223 55.4135 87.3281 55.4649 87.3428C55.4943 87.3648 55.6781 87.1664 55.5825 86.7548C55.5384 86.5563 55.4135 86.3284 55.1709 86.1373C54.9283 85.9462 54.5682 85.858 54.2007 85.9095C53.4289 85.983 52.76 86.718 52.4293 87.5118C52.0544 88.313 51.8486 89.2979 51.9074 90.3196C52.0324 92.3336 53.1202 94.1858 54.5755 94.5607C55.2812 94.7224 55.8618 94.4946 56.1632 94.252C56.4645 93.9947 56.5086 93.7669 56.4792 93.7522H56.4719Z" fill="#995037"/>
<path d="M64.7777 53.3479L69.7244 49.0775L85.4539 51.481L96.494 48.6364L103.109 49.6508C101.874 51.3119 102.881 49.0848 100.368 47.1737C94.9431 43.065 88.2838 40.4924 81.4775 40.3748C74.6711 40.2572 60.8233 48.5409 55.8913 53.2377C51.9442 56.9937 51.9736 60.2425 51.9736 60.2425C51.3488 65.6522 54.3771 71.797 55.5752 77.1113C56.1926 79.8529 57.3907 88.1366 57.3907 88.1366C59.6913 88.1293 60.544 86.2991 60.1912 84.0278L59.7575 75.112C59.7575 75.112 67.5782 69.5552 63.8736 59.3898C63.2783 58.5813 62.0067 54.8621 64.763 53.3553L64.7777 53.3479Z" fill="#263238"/>
<path d="M62.7339 55.7294C63.6233 52.8775 66.7324 51.0987 69.7166 51.1355C72.7008 51.1722 75.5012 52.7305 77.6843 54.7738C78.2502 55.303 78.7942 55.8764 79.4704 56.2439C80.1466 56.6114 81.0139 56.751 81.6901 56.3835C81.896 56.2659 82.1165 56.1042 82.3443 56.1704C82.506 56.2145 82.6163 56.3615 82.7118 56.5011C83.3292 57.3832 84.0496 58.2431 85.0272 58.6989C86.0047 59.1472 87.2984 59.0664 87.9967 58.2505C89.0845 59.2575 90.7824 59.5368 92.1348 58.9414C93.4873 58.346 94.4208 56.898 94.4134 55.4206C95.7144 55.869 97.1404 55.0678 98.0591 54.0388C99.5145 52.3997 100.183 50.0917 99.8305 47.9308C99.4777 45.7698 98.1179 43.7926 96.2142 42.6974C94.7515 41.8521 93.0536 41.536 91.3778 41.3008C88.7537 40.9333 86.1003 40.7349 83.4542 40.7055C82.2929 40.6908 81.1021 40.7202 80.0069 41.1171C78.4854 41.6683 77.2212 42.9032 75.6188 43.1016C74.5898 43.2266 73.5681 42.9032 72.5758 42.6165C71.1426 42.1976 69.6578 41.8374 68.1657 41.9697C65.233 42.2343 62.8147 44.3365 60.8743 46.5489C59.5071 48.1072 58.2355 49.8418 57.8019 51.8631C57.3756 53.8844 58.0003 56.2586 59.757 57.3464C60.448 57.7727 61.3373 57.9785 62.0797 57.6551C62.8221 57.3317 63.2998 56.3688 62.9103 55.6485" fill="#263238"/>
<path d="M58.2214 128.6L17.6113 148.783L34.3478 244.564L24.6529 299.794L129.21 300L122.418 193.539L136.972 150.775L93.4732 128.063C81.1027 142.705 69.2541 139.743 58.2288 128.592L58.2214 128.6Z" fill="#FAA56D"/>
<path d="M100.051 210.54C100.051 210.54 100.029 210.305 100.015 209.849C99.9998 209.379 99.9778 208.702 99.9484 207.828C99.8969 206.042 99.8308 203.447 99.7426 200.147C99.5882 193.51 99.3604 184.05 99.0884 172.679L99.3971 172.745C96.7143 178.537 93.245 184.763 88.9157 190.944L88.7172 191.231L88.5923 190.908C86.3798 185.189 83.7705 179.177 80.7569 173.135C80.213 172.062 79.6691 170.988 79.1252 169.93H79.4633C75.4059 177.082 72.7378 184.601 71.2825 191.775L71.2163 192.098L70.9811 191.863C66.3357 187.269 62.0065 182.991 58.0741 179.103L58.3387 178.978C59.2942 188.967 61.0436 197.082 62.4622 202.661C63.1751 205.454 63.7999 207.622 64.2336 209.092C64.4467 209.82 64.6158 210.378 64.7334 210.768C64.8436 211.15 64.8877 211.349 64.8877 211.349C64.8877 211.349 64.8142 211.157 64.6819 210.783C64.557 210.393 64.3732 209.834 64.138 209.121C63.675 207.659 63.0208 205.498 62.2858 202.705C60.8157 197.126 59.0149 189.011 58.0226 179.008L57.9785 178.581L58.2872 178.883C62.227 182.763 66.5709 187.027 71.2237 191.606L70.9223 191.701C72.3776 184.491 75.0458 176.935 79.1252 169.746L79.3016 169.438L79.4633 169.754C80.0072 170.819 80.5511 171.892 81.095 172.966C84.1086 179.015 86.7253 185.042 88.9304 190.775L88.607 190.738C92.9289 184.579 96.3982 178.383 99.0958 172.613L99.3971 171.973L99.4118 172.679C99.625 184.05 99.8014 193.517 99.9263 200.154C99.9778 203.454 100.015 206.049 100.044 207.835C100.051 208.71 100.059 209.386 100.059 209.856C100.059 210.312 100.051 210.547 100.051 210.547V210.54Z" fill="#263238"/>
<path d="M55.083 171.694C55.083 171.694 55.2006 171.598 55.4578 171.576C55.7077 171.547 56.0973 171.591 56.5016 171.826C56.8911 172.054 57.3248 172.48 57.4644 173.113C57.6188 173.745 57.3248 174.502 56.7441 174.935C56.1781 175.384 55.4064 175.523 54.8036 175.266C54.2156 175.024 53.8334 174.494 53.804 174.002C53.7746 173.502 54.0392 173.157 54.245 173.01C54.4582 172.855 54.6199 172.863 54.6199 172.877C54.6272 172.907 54.5023 172.951 54.3479 173.12C54.2009 173.282 54.0245 173.59 54.0833 173.973C54.1348 174.347 54.4582 174.759 54.9433 174.943C55.4137 175.134 56.0385 175.009 56.5162 174.634C56.994 174.267 57.2292 173.679 57.1263 173.179C57.0308 172.672 56.6853 172.282 56.3619 172.054C55.671 171.576 55.0903 171.768 55.0903 171.694H55.083Z" fill="#263238"/>
<path d="M79.3902 163.506C79.3902 163.506 79.5225 163.433 79.7871 163.44C80.0444 163.455 80.4339 163.565 80.8014 163.866C81.1616 164.168 81.5218 164.675 81.5438 165.336C81.5732 166.005 81.1101 166.696 80.4486 167.027C79.7944 167.365 78.9639 167.336 78.4346 166.909C77.9054 166.498 77.7143 165.902 77.6849 165.439C77.6629 164.961 77.8025 164.587 77.9422 164.366C78.0892 164.146 78.2141 164.072 78.2288 164.079C78.295 164.109 77.8466 164.55 77.9495 165.41C78.0083 165.814 78.2068 166.314 78.6405 166.623C79.0594 166.939 79.7136 166.961 80.2649 166.681C80.8161 166.402 81.191 165.858 81.1763 165.336C81.1763 164.807 80.9043 164.351 80.6103 164.065C79.9855 163.469 79.3608 163.572 79.3755 163.499L79.3902 163.506Z" fill="#263238"/>
<path d="M101.007 165.748C101.021 165.814 100.389 165.704 99.8086 166.343C99.5367 166.645 99.3015 167.13 99.3897 167.644C99.4632 168.159 99.9556 168.592 100.558 168.703C101.161 168.813 101.778 168.578 102.028 168.122C102.293 167.674 102.234 167.137 102.095 166.762C101.778 165.961 101.146 165.843 101.183 165.785C101.183 165.77 101.337 165.755 101.58 165.866C101.823 165.968 102.131 166.226 102.344 166.659C102.543 167.078 102.653 167.71 102.344 168.306C102.036 168.916 101.227 169.232 100.5 169.085C99.7719 168.96 99.1251 168.387 99.0516 167.703C98.9634 167.034 99.2941 166.483 99.6322 166.16C99.985 165.836 100.367 165.704 100.625 165.689C100.889 165.674 101.021 165.741 101.021 165.755L101.007 165.748Z" fill="#263238"/>
<path d="M104.793 212.591C104.793 212.591 104.624 212.613 104.308 212.62C103.947 212.62 103.492 212.62 102.918 212.62C101.661 212.62 99.9268 212.62 97.8026 212.613C93.488 212.613 87.5196 212.709 80.9411 213.025C74.3627 213.341 68.4163 213.826 64.1164 214.23C61.9995 214.436 60.2722 214.605 59.03 214.73C58.4641 214.781 58.001 214.825 57.6482 214.862C57.3321 214.884 57.1631 214.892 57.1631 214.884C57.1631 214.869 57.3248 214.84 57.6409 214.789C57.9937 214.737 58.4494 214.671 59.0153 214.59C60.2134 214.421 61.9481 214.208 64.0944 213.973C68.3869 213.495 74.3406 212.973 80.9338 212.657C87.5196 212.341 93.4953 212.297 97.8173 212.356C99.9782 212.385 101.728 212.429 102.933 212.488C103.506 212.517 103.962 212.539 104.322 212.554C104.638 212.576 104.807 212.591 104.807 212.606L104.793 212.591Z" fill="#263238"/>
<path d="M120.97 203.278L153.348 201.859C153.348 201.859 145.844 152.613 135.325 149.856C124.807 147.1 118.141 177.861 118.141 177.861L120.97 203.278Z" fill="#FAA56D"/>
<path d="M0 214.193C0.161705 212.429 5.63763 154.274 17.6112 148.783C29.5847 143.285 36.7071 209.629 36.7071 209.629L0 214.193Z" fill="#FAA56D"/>
<path d="M125.049 234.855C125.049 234.855 125.035 234.796 125.02 234.686C125.005 234.553 124.99 234.392 124.968 234.193C124.932 233.73 124.88 233.098 124.814 232.304C124.704 230.628 124.542 228.269 124.351 225.358C123.983 219.493 123.535 211.385 123.146 202.433C122.756 193.473 122.528 185.358 122.455 179.478C122.433 176.538 122.411 174.164 122.44 172.517C122.455 171.724 122.462 171.091 122.469 170.628C122.484 170.195 122.491 169.967 122.506 169.967C122.506 169.967 122.521 170.026 122.528 170.136C122.528 170.268 122.543 170.43 122.55 170.628C122.558 171.091 122.572 171.724 122.594 172.517C122.624 174.193 122.675 176.56 122.727 179.471C122.874 185.343 123.138 193.458 123.535 202.411C123.925 211.363 124.329 219.471 124.623 225.336C124.77 228.247 124.888 230.606 124.968 232.282C125.005 233.076 125.027 233.708 125.049 234.171C125.064 234.605 125.064 234.833 125.049 234.833V234.855Z" fill="#263238"/>
<path d="M31.6427 231.863C31.6427 231.863 31.6207 231.65 31.6133 231.231C31.6133 230.783 31.606 230.188 31.5986 229.43C31.5986 227.828 31.5839 225.579 31.5692 222.808C31.5398 217.214 31.4075 209.489 31.2532 200.956C31.0988 192.422 31.0106 184.69 31.0474 179.096C31.0621 176.296 31.0915 174.032 31.1429 172.473C31.165 171.716 31.187 171.121 31.2017 170.673C31.2164 170.261 31.2311 170.048 31.2458 170.048C31.2605 170.048 31.2679 170.261 31.2752 170.673C31.2752 171.121 31.2826 171.716 31.2899 172.473C31.2899 174.076 31.3046 176.325 31.3193 179.096C31.3487 184.69 31.481 192.415 31.6354 200.948C31.7897 209.482 31.8779 217.207 31.8412 222.808C31.8265 225.608 31.7971 227.872 31.7456 229.43C31.7236 230.188 31.7015 230.783 31.6868 231.231C31.6721 231.643 31.6574 231.856 31.6427 231.856V231.863Z" fill="#263238"/>
<path d="M31.3345 165.902C31.2683 165.917 31.0331 164.697 30.4378 162.8C29.835 160.911 28.8281 158.324 27.064 155.862C25.3073 153.399 23.1169 151.657 21.3823 150.709C19.6476 149.746 18.4275 149.467 18.4495 149.394C18.4495 149.371 18.7656 149.423 19.3021 149.577C19.8461 149.732 20.6105 150.011 21.5072 150.474C23.308 151.371 25.5792 153.12 27.3727 155.641C29.1662 158.155 30.1584 160.801 30.695 162.727C30.967 163.697 31.136 164.491 31.2316 165.042C31.3271 165.593 31.3639 165.902 31.3345 165.91V165.902Z" fill="#263238"/>
<path d="M50.9589 228.232L57.7211 245.601C57.7211 245.601 25.7403 262.477 18.3606 263.095C10.981 263.712 8.6877 262.014 5.62265 256.34C3.18972 251.834 3.62339 240.772 4.25551 233.598C5.10813 223.815 5.85051 213.429 5.85051 213.429L31.1059 210.327L31.5616 231.79L50.9663 228.232" fill="#B78876"/>
<path d="M31.3191 232.061C31.3265 232.135 30.4738 232.135 29.2316 232.62C27.9821 233.091 26.4312 234.127 24.9612 235.545C23.4911 236.971 22.2122 238.339 21.3889 239.39C20.5584 240.448 20.1909 241.198 20.132 241.168C20.11 241.161 20.1762 240.955 20.3379 240.61C20.5069 240.264 20.7715 239.787 21.1684 239.228C21.9549 238.111 23.2044 236.707 24.6965 235.266C26.1886 233.826 27.8278 232.774 29.1434 232.363C29.7976 232.135 30.3562 232.076 30.7311 232.032C31.1133 232.025 31.3265 232.032 31.3265 232.054L31.3191 232.061Z" fill="#995037"/>
<path d="M151.533 201.933L124.675 203.109L128.843 234.193L121.14 235.149L107.681 231.422L100.456 250.945C100.456 250.945 129.761 263.947 138.567 264.866C147.373 265.785 153.422 260.463 155.443 254.046C157.465 247.63 151.533 201.926 151.533 201.926V201.933Z" fill="#B78876"/>
<path d="M90.2461 194.884H73.4728C70.7814 194.884 68.5996 197.066 68.5996 199.757V242.999C68.5996 245.69 70.7814 247.872 73.4728 247.872H90.2461C92.9375 247.872 95.1193 245.69 95.1193 242.999V199.757C95.1193 197.066 92.9375 194.884 90.2461 194.884Z" fill="#455A64"/>
<path d="M81.6689 203.976C82.5011 203.976 83.1757 203.302 83.1757 202.47C83.1757 201.637 82.5011 200.963 81.6689 200.963C80.8367 200.963 80.1621 201.637 80.1621 202.47C80.1621 203.302 80.8367 203.976 81.6689 203.976Z" fill="white"/>
<path d="M146.35 245.505C146.277 245.527 145.968 244.292 144.983 242.521C144.02 240.757 142.264 238.478 139.676 236.795C137.089 235.112 134.296 234.428 132.289 234.259C130.268 234.083 129.011 234.296 129.004 234.215C129.004 234.193 129.313 234.12 129.879 234.046C130.445 233.973 131.282 233.928 132.312 233.987C134.355 234.09 137.229 234.744 139.882 236.472C142.536 238.199 144.3 240.566 145.219 242.389C145.689 243.307 145.983 244.086 146.145 244.638C146.314 245.189 146.373 245.498 146.35 245.505Z" fill="#995037"/>
<path d="M68.9452 207.299C68.4821 207.144 64.388 207.299 64.388 207.299L57.9345 214.37C57.9345 214.37 57.1627 220.977 56.0896 222.359C55.0165 223.741 50.0918 228.511 50.0918 228.511L56.854 245.88L61.7713 244.961C61.7713 244.961 64.6894 246.806 67.7691 245.88C70.8415 244.961 75.3031 240.654 75.3031 240.654L84.4762 240.191L88.9672 235.957L82.9621 227.894L70.6945 227.431L76.8393 224.814L91.4442 223.432C91.4442 223.432 94.8254 223.124 93.4435 220.051C92.0617 216.979 83.1458 217.435 83.1458 217.435L76.2292 217.898C76.2292 217.898 81.7713 215.847 82.6534 214.024C83.3296 212.635 83.5133 211.297 81.9183 210.209C81.1466 209.68 69.6067 210.481 69.6067 210.481L68.9525 207.291L68.9452 207.299Z" fill="#B78876"/>
<path d="M61.8152 238.618C61.8152 238.618 61.7197 238.618 61.5433 238.566C61.3742 238.508 61.1243 238.419 60.8376 238.221C60.2717 237.846 59.5881 237.038 59.2794 235.832C58.956 234.627 59.1544 233.142 59.5366 231.606C59.6322 231.224 59.7278 230.827 59.8233 230.43C59.9262 230.033 59.9483 229.665 59.7278 229.349C59.5219 229.026 59.1691 228.769 58.8457 228.438C58.5223 228.1 58.2577 227.688 58.0887 227.24C57.7285 226.35 57.7579 225.329 58.0887 224.505C58.4047 223.69 58.7134 222.94 58.4856 222.212C58.2871 221.492 57.8387 220.867 57.5594 220.198C57.2728 219.529 57.1331 218.868 57.0964 218.258C57.0155 217.03 57.3169 216.06 57.5888 215.443C57.7285 215.134 57.8608 214.906 57.9637 214.759C58.0666 214.612 58.1254 214.539 58.1328 214.546C58.1622 214.561 57.9563 214.877 57.7285 215.494C57.5006 216.111 57.2581 217.06 57.3683 218.228C57.4198 218.809 57.5668 219.441 57.8534 220.066C58.1254 220.691 58.5885 221.308 58.8237 222.117C58.9413 222.521 58.956 222.984 58.8531 223.403C58.7575 223.829 58.5885 224.226 58.4488 224.623C58.1475 225.402 58.1328 226.284 58.4488 227.093C58.6032 227.497 58.8384 227.865 59.125 228.166C59.4117 228.475 59.7866 228.732 60.0512 229.143C60.1835 229.342 60.2643 229.592 60.2717 229.842C60.279 230.084 60.2349 230.305 60.1835 230.511C60.0806 230.915 59.9777 231.304 59.8821 231.687C59.4778 233.201 59.272 234.627 59.544 235.766C59.8013 236.913 60.4113 237.699 60.9258 238.096C61.4404 238.5 61.8226 238.574 61.8079 238.611L61.8152 238.618Z" fill="#995037"/>
<path d="M88.0856 234.443C88.0856 234.443 87.8578 234.539 87.4168 234.642C86.9757 234.715 86.3363 234.818 85.5351 234.818C83.9327 234.87 81.7424 234.553 79.3462 234.311C76.95 234.039 74.7817 234.34 73.2087 234.495C71.6358 234.678 70.6656 234.833 70.6582 234.774C70.6582 234.752 70.8861 234.678 71.3197 234.576C71.7534 234.473 72.3855 234.348 73.172 234.223C74.7302 233.995 76.95 233.642 79.3829 233.921C81.8012 234.171 83.9548 234.524 85.5351 234.539C87.1154 234.598 88.0709 234.362 88.0856 234.436V234.443Z" fill="#995037"/>
<path d="M76.9565 217.641C76.9859 217.766 74.4428 218.236 71.4439 219.25C68.4597 220.287 66.159 221.477 66.1002 221.36C66.0782 221.316 66.6295 220.978 67.5556 220.492C68.4817 220.015 69.8048 219.405 71.3189 218.883C72.8331 218.368 74.2443 218.038 75.2733 217.846C76.3024 217.655 76.9418 217.589 76.9565 217.633V217.641Z" fill="#995037"/>
<path d="M70.4301 209.908C70.4668 210.004 69.6362 210.496 68.5705 211.011C67.5047 211.525 66.6006 211.863 66.5491 211.768C66.4977 211.672 67.3283 211.18 68.4088 210.665C69.4892 210.151 70.3933 209.813 70.4301 209.908Z" fill="#995037"/>
<path d="M95.7807 209.342C95.7807 209.342 107.438 215.479 107.762 217.148C108.144 219.096 108.144 222.212 108.144 222.212L107.681 231.437L100.455 250.959C100.455 250.959 94.4577 251.576 91.8483 250.187C89.2317 248.805 87.6955 245.424 87.6955 245.424L84.4687 240.198L88.4305 235.707L81.8594 227.901C81.8594 227.901 87.5485 225.138 91.3926 226.828C95.2368 228.519 98.3092 231.628 98.3092 231.628L97.0817 226.064L89.6874 221.367L86.3063 218.941C84.5643 217.692 83.6822 215.502 84.2335 213.436C84.4246 212.716 84.7407 212.091 85.2478 211.768C86.9384 210.694 100.617 218.993 100.617 218.993C100.617 218.993 95.2221 214.061 94.7811 212.319C94.3548 210.643 94.9428 208.827 95.7881 209.357L95.7807 209.342Z" fill="#B78876"/>
<path d="M107.975 244.836C107.923 244.836 107.783 244.087 107.644 242.859C107.504 241.632 107.379 239.926 107.357 238.037C107.335 236.148 107.416 234.443 107.526 233.208C107.636 231.973 107.754 231.224 107.806 231.224C107.864 231.224 107.835 231.995 107.798 233.223C107.761 234.45 107.717 236.156 107.739 238.03C107.761 239.904 107.842 241.602 107.916 242.837C107.982 244.065 108.033 244.829 107.975 244.836Z" fill="#995037"/>
<path d="M87.7394 234.473C87.7835 234.473 87.9011 234.928 87.9599 235.7C87.9819 236.082 87.9819 236.553 87.8643 237.067C87.7541 237.582 87.4895 238.133 87.0779 238.581C86.2473 239.5 85.1595 239.86 84.4171 240.015C83.66 240.169 83.1822 240.162 83.1749 240.11C83.1675 240.051 83.6306 239.963 84.3509 239.75C85.0566 239.537 86.0488 239.155 86.7912 238.324C87.563 237.508 87.6732 236.443 87.6879 235.7C87.7026 234.95 87.6879 234.473 87.7394 234.473Z" fill="#995037"/>
<path d="M105.476 228.35C105.418 228.35 105.388 227.622 105.256 226.468C105.116 225.314 104.874 223.705 104.359 222.021C104.102 221.198 103.492 220.625 102.86 220.221C102.228 219.816 101.573 219.559 101.044 219.309C100.508 219.052 100.089 218.853 99.8093 218.618C99.6843 218.493 99.6255 218.339 99.6549 218.229C99.6917 218.118 99.7652 218.126 99.7652 218.133C99.7799 218.148 99.7284 218.177 99.7284 218.243C99.7284 218.309 99.7872 218.412 99.9048 218.508C100.155 218.662 100.61 218.846 101.147 219.059C101.691 219.28 102.36 219.508 103.043 219.927C103.72 220.323 104.44 220.985 104.719 221.904C105.256 223.646 105.454 225.27 105.528 226.454C105.594 227.63 105.528 228.365 105.484 228.365L105.476 228.35Z" fill="#995037"/>
<path d="M84.226 213.429C84.2701 213.429 84.1892 213.782 84.1819 214.399C84.1819 215.009 84.2627 215.928 84.7919 216.891C85.3065 217.861 86.262 218.787 87.5115 219.574C88.7611 220.389 90.1209 221.271 91.5468 222.205C93.6049 223.572 95.5233 224.844 97.155 225.924L97.2212 225.968V226.042C97.427 227.732 97.7872 229.077 98.0665 230.026C98.3311 230.974 98.456 231.525 98.4266 231.532C98.3899 231.54 98.2061 231.011 97.8901 230.077C97.5593 229.151 97.1477 227.776 96.9125 226.078L96.986 226.189C95.3395 225.123 93.4064 223.866 91.3337 222.514C89.9077 221.573 88.5553 220.676 87.3131 219.853C86.0709 219.059 85.0565 218.045 84.5567 217.008C84.0275 215.979 83.9834 215.009 84.0349 214.384C84.0496 214.068 84.1157 213.826 84.1525 213.664C84.1892 213.502 84.2186 213.421 84.226 213.421V213.429Z" fill="#995037"/>
<path d="M101.55 237.427C101.55 237.427 101.727 237.265 101.874 236.905C102.014 236.553 102.08 235.942 101.756 235.325C101.448 234.7 100.793 234.127 100.095 233.465C99.3968 232.811 98.603 232.113 97.7504 231.4C96.0451 229.981 94.4134 228.82 93.2006 228.004C91.9951 227.196 91.2234 226.718 91.2528 226.666C91.2748 226.622 92.0907 227.012 93.3402 227.776C94.5898 228.533 96.2656 229.673 97.9856 231.099C98.8456 231.812 99.632 232.525 100.33 233.201C101.014 233.877 101.675 234.487 101.991 235.2C102.322 235.906 102.205 236.589 102.006 236.957C101.793 237.339 101.55 237.427 101.543 237.413L101.55 237.427Z" fill="#995037"/>
<path d="M86.4172 234.789C86.4172 234.789 86.6231 234.7 86.9979 234.59C87.3654 234.48 87.924 234.333 88.5047 233.987C89.0927 233.664 89.6293 232.995 89.622 232.098C89.6367 231.657 89.5631 231.187 89.4823 230.687C89.4014 230.195 89.3132 229.687 89.0486 229.283C88.7914 228.879 88.3504 228.651 87.8873 228.526C87.4242 228.401 86.9391 228.335 86.4834 228.261C85.572 228.122 84.7487 228.041 84.0505 227.982C82.6613 227.872 81.7939 227.865 81.7939 227.806C81.7939 227.762 82.6613 227.673 84.0652 227.718C84.7708 227.74 85.6087 227.798 86.5275 227.916C86.9906 227.982 87.4683 228.034 87.9828 228.166C88.4827 228.291 89.0413 228.563 89.3647 229.077C89.6881 229.577 89.7763 230.136 89.8498 230.628C89.9233 231.128 89.9968 231.621 89.9674 232.113C89.9454 232.598 89.8057 233.076 89.5411 233.436C89.2838 233.804 88.9531 234.046 88.6297 234.223C87.9828 234.561 87.4095 234.664 87.02 234.737C86.6304 234.803 86.4099 234.811 86.4099 234.789H86.4172Z" fill="#995037"/>
<path d="M93.7668 241.345C93.708 241.419 92.0615 240.221 90.3269 238.412C89.4596 237.508 88.7539 236.612 88.3129 235.913C87.8719 235.215 87.6955 234.73 87.7323 234.715C87.7837 234.686 88.0483 235.12 88.5334 235.759C89.0185 236.406 89.7389 237.258 90.5989 238.148C92.3115 239.934 93.833 241.257 93.7595 241.345H93.7668Z" fill="#995037"/>
</g>
<defs>
<clipPath id="clip0_400_9526">
<rect width="155.862" height="300" fill="white"/>
</clipPath>
</defs>
</svg>
