<svg width="14" height="14" viewBox="0 0 14 14" fill="none" xmlns="http://www.w3.org/2000/svg">
<mask id="mask0_1_910" style="mask-type:alpha" maskUnits="userSpaceOnUse" x="0" y="0" width="14" height="14">
<rect width="14" height="14" fill="#D9D9D9"/>
</mask>
<g mask="url(#mask0_1_910)">
<path d="M6.8887 8.35363L7.6762 8.95738C7.77245 9.03613 7.87745 9.03832 7.9912 8.96394C8.10495 8.88956 8.13995 8.79113 8.0962 8.66863L7.7812 7.67113L8.66058 6.98863C8.75683 6.90988 8.78308 6.81144 8.73933 6.69332C8.69558 6.57519 8.61245 6.51613 8.48995 6.51613H7.4662L7.13808 5.5055C7.09433 5.383 7.0112 5.32175 6.8887 5.32175C6.7662 5.32175 6.68308 5.383 6.63933 5.5055L6.3112 6.51613H5.27433C5.15183 6.51613 5.07089 6.57519 5.03151 6.69332C4.99214 6.81144 5.02058 6.90988 5.11683 6.98863L5.96995 7.67113L5.65495 8.68175C5.6112 8.80425 5.64183 8.90269 5.74683 8.97707C5.85183 9.05144 5.95683 9.04925 6.06183 8.9705L6.8887 8.35363ZM2.6887 11.5561C2.39995 11.5561 2.15276 11.4533 1.94714 11.2477C1.74151 11.0421 1.6387 10.7949 1.6387 10.5061V8.73425C1.6387 8.638 1.66933 8.55488 1.73058 8.48488C1.79183 8.41488 1.87058 8.37113 1.96683 8.35363C2.17683 8.28363 2.34964 8.15675 2.48526 7.973C2.62089 7.78925 2.6887 7.58363 2.6887 7.35613C2.6887 7.12863 2.62089 6.923 2.48526 6.73925C2.34964 6.5555 2.17683 6.42863 1.96683 6.35863C1.87058 6.34113 1.79183 6.29738 1.73058 6.22738C1.66933 6.15738 1.6387 6.07425 1.6387 5.978V4.20613C1.6387 3.91738 1.74151 3.67019 1.94714 3.46457C2.15276 3.25894 2.39995 3.15613 2.6887 3.15613H11.0887C11.3775 3.15613 11.6246 3.25894 11.8303 3.46457C12.0359 3.67019 12.1387 3.91738 12.1387 4.20613V5.978C12.1387 6.07425 12.1081 6.15738 12.0468 6.22738C11.9856 6.29738 11.9068 6.34113 11.8106 6.35863C11.6006 6.42863 11.4278 6.5555 11.2921 6.73925C11.1565 6.923 11.0887 7.12863 11.0887 7.35613C11.0887 7.58363 11.1565 7.78925 11.2921 7.973C11.4278 8.15675 11.6006 8.28363 11.8106 8.35363C11.9068 8.37113 11.9856 8.41488 12.0468 8.48488C12.1081 8.55488 12.1387 8.638 12.1387 8.73425V10.5061C12.1387 10.7949 12.0359 11.0421 11.8303 11.2477C11.6246 11.4533 11.3775 11.5561 11.0887 11.5561H2.6887Z" fill="white"/>
</g>
</svg>
