<svg width="300" height="290" viewBox="0 0 300 290" fill="none" xmlns="http://www.w3.org/2000/svg">
<g clip-path="url(#clip0_400_10613)">
<path d="M283.243 43.4248H135.89V250.875H283.243V43.4248Z" fill="#EBEBEB"/>
<path d="M264.107 20.4643C265.618 19.5536 267.236 18.8572 268.896 18.3857L269.882 13.65L277.896 13.5107L279.053 18.2143C280.736 18.6322 282.364 19.2643 283.918 20.1215L287.968 17.4643L293.732 23.025L291.225 27.1607C292.136 28.6715 292.832 30.2893 293.303 31.95L298.039 32.9357L298.178 40.95L293.475 42.1072C293.057 43.7893 292.425 45.4179 291.568 46.9715L294.225 51.0215L288.664 56.7857L284.528 54.2786C283.018 55.1893 281.4 55.8857 279.739 56.3572L278.753 61.0929L270.739 61.2322L269.582 56.5286C267.9 56.1107 266.271 55.4786 264.718 54.6215L260.668 57.2786L254.903 51.7179L257.411 47.5822C256.5 46.0715 255.803 44.4536 255.332 42.7929L250.596 41.8072L250.457 33.7929L255.161 32.6357C255.578 30.9536 256.211 29.325 257.068 27.7715L254.411 23.7215L259.971 17.9572L264.107 20.4643ZM268.371 31.1357C265.071 34.5536 265.168 39.9857 268.586 43.2857C272.003 46.5857 277.436 46.4893 280.736 43.0715C284.036 39.6536 283.939 34.2215 280.521 30.9215C277.103 27.6215 271.671 27.7179 268.371 31.1357Z" fill="#E0E0E0"/>
<path d="M268.371 31.1356C268.371 31.1356 268.821 30.5035 269.968 29.732C271.093 28.982 273.075 28.1463 275.571 28.4035C276.803 28.5427 278.153 28.9392 279.386 29.7535C280.596 30.5677 281.753 31.7249 282.471 33.2249C282.846 33.9642 283.114 34.7785 283.253 35.6356C283.403 36.4927 283.425 37.382 283.307 38.282C283.093 40.082 282.236 41.8499 280.918 43.232C279.578 44.6035 277.832 45.5142 276.053 45.7928C275.164 45.9535 274.264 45.9642 273.407 45.8356C272.55 45.7285 271.714 45.4928 270.964 45.1392C269.443 44.4749 268.243 43.3713 267.386 42.182C266.528 40.982 266.078 39.6535 265.896 38.4213C265.543 35.9249 266.314 33.932 267.021 32.7749C267.75 31.5963 268.371 31.1249 268.371 31.1249C268.414 31.1677 267.857 31.6927 267.193 32.8713C266.55 34.0285 265.864 35.9892 266.239 38.3678C266.432 39.5463 266.882 40.8106 267.718 41.9463C268.543 43.0713 269.7 44.1106 271.146 44.7213C271.864 45.0535 272.646 45.2677 273.461 45.3642C274.275 45.482 275.121 45.4606 275.968 45.3106C277.661 45.0427 279.289 44.1749 280.564 42.8892C281.807 41.5713 282.611 39.9106 282.825 38.207C282.953 37.3606 282.932 36.5142 282.793 35.6999C282.664 34.8856 282.418 34.1142 282.064 33.407C281.4 31.982 280.318 30.8677 279.161 30.0749C278.003 29.282 276.718 28.8856 275.539 28.7249C273.139 28.4249 271.211 29.1749 270.075 29.8713C268.918 30.5785 268.414 31.157 268.371 31.1142V31.1356Z" fill="#E0E0E0"/>
<path d="M264.108 20.4645C264.108 20.4645 264.022 20.4216 263.84 20.3252C263.647 20.2074 263.379 20.0574 263.047 19.8645C262.318 19.4359 261.279 18.8252 259.929 18.0216H260.025C258.611 19.4895 256.747 21.4395 254.497 23.8074V23.6574C255.322 24.8788 256.222 26.2395 257.186 27.6966L257.229 27.7716L257.186 27.8466C256.404 29.2716 255.74 30.8895 255.3 32.6788L255.279 32.7752L255.183 32.7966C253.715 33.1609 252.129 33.5574 250.479 33.9645L250.608 33.7931C250.661 36.3109 250.715 38.9895 250.768 41.7966L250.618 41.6145C252.086 41.9145 253.704 42.2466 255.365 42.5895L255.483 42.6109L255.515 42.7288C255.954 44.2716 256.64 45.9216 257.583 47.4645L257.647 47.5716L257.583 47.6788C256.811 48.9645 255.954 50.3788 255.075 51.8252L255.043 51.5574C256.854 53.3038 258.815 55.1895 260.818 57.1181L260.529 57.0966C261.793 56.2716 263.175 55.3609 264.579 54.4395L264.697 54.3645L264.825 54.4288C266.24 55.2109 267.89 55.8859 269.625 56.3145L269.765 56.3466L269.797 56.4859C270.161 57.9538 270.558 59.5609 270.954 61.1895L270.718 61.0074C273.258 60.9645 275.968 60.9109 278.733 60.8681L278.497 61.0609C278.808 59.5609 279.14 57.9431 279.483 56.3252L279.515 56.1752L279.654 56.1324C281.229 55.6824 282.868 54.9966 284.379 54.0752L284.508 54.0002L284.636 54.0752C286.029 54.9216 287.411 55.7574 288.772 56.5824L288.472 56.6252C290.358 54.6752 292.211 52.7574 294.033 50.8609L294 51.1609C293.111 49.8002 292.222 48.4502 291.354 47.1109L291.268 46.9931L291.343 46.8645C292.19 45.3431 292.822 43.7145 293.24 42.0645L293.272 41.9252L293.411 41.8931C294.997 41.5073 296.572 41.1216 298.115 40.7466L297.933 40.9824C297.89 38.2502 297.847 35.5824 297.804 32.9681L297.986 33.1824C296.379 32.8502 294.804 32.5181 293.25 32.1859L293.122 32.1538L293.09 32.0252C292.608 30.3216 291.911 28.7359 291.043 27.2895L290.979 27.1824L291.043 27.0752C291.911 25.6609 292.747 24.2788 293.561 22.9395L293.593 23.1966C291.568 21.2359 289.661 19.3824 287.84 17.6252L288.075 17.6466C286.65 18.5788 285.311 19.4466 284.025 20.2931L283.94 20.3466L283.843 20.2931C282.225 19.3931 280.608 18.7824 279.033 18.3859L278.936 18.3645L278.915 18.2681C278.497 16.5538 278.133 15.0216 277.779 13.5645L277.918 13.6716C274.811 13.7145 272.175 13.7466 269.904 13.7788L270.011 13.6931C269.604 15.5788 269.272 17.1324 268.993 18.4288V18.4716L268.94 18.4824C267.247 18.9538 266.058 19.5109 265.275 19.8966C264.9 20.0895 264.622 20.2395 264.418 20.3466C264.225 20.4538 264.129 20.4966 264.129 20.4966C264.129 20.4966 264.225 20.4324 264.397 20.3145C264.579 20.1966 264.858 20.0359 265.243 19.8324C266.015 19.4252 267.193 18.8466 268.897 18.3431L268.843 18.4074C269.1 17.1109 269.422 15.5574 269.797 13.6609L269.818 13.5752H269.904C272.165 13.5216 274.811 13.4681 277.908 13.3931H278.025L278.058 13.5002C278.422 14.9574 278.797 16.4895 279.225 18.2038L279.108 18.0859C280.715 18.4824 282.365 19.0931 284.015 20.0038H283.833C285.118 19.1574 286.458 18.2788 287.872 17.3466L288 17.2609L288.108 17.3681C289.929 19.1252 291.847 20.9681 293.883 22.9181L294 23.0359L293.915 23.1752C293.1 24.5252 292.275 25.8966 291.408 27.3216V27.0966C292.308 28.5752 293.025 30.2038 293.518 31.9395L293.347 31.7788C294.9 32.1002 296.475 32.4216 298.093 32.7645L298.275 32.7966V32.9788C298.329 35.5824 298.372 38.2502 298.425 40.9824V41.1645L298.243 41.2073C296.7 41.5931 295.136 41.9681 293.54 42.3645L293.711 42.1931C293.293 43.8859 292.65 45.5466 291.783 47.1109V46.8645C292.65 48.2038 293.54 49.5538 294.429 50.9145L294.536 51.0752L294.397 51.2145C292.565 53.1109 290.711 55.0288 288.836 56.9788L288.697 57.1181L288.525 57.0109C287.154 56.1859 285.772 55.3395 284.39 54.5038H284.647C283.093 55.4466 281.422 56.1538 279.804 56.6038L279.975 56.4216C279.633 58.0502 279.3 59.6681 278.99 61.1574L278.947 61.3502H278.754C276 61.4038 273.279 61.4466 270.74 61.4895H270.547L270.504 61.3074C270.108 59.6895 269.711 58.0824 269.358 56.6038L269.529 56.7752C267.75 56.3359 266.058 55.6502 264.611 54.8359H264.858C263.454 55.7466 262.072 56.6466 260.808 57.4716L260.658 57.5681L260.529 57.4395C258.525 55.5002 256.575 53.6145 254.775 51.8681L254.647 51.7502L254.743 51.6002C255.622 50.1645 256.479 48.7502 257.261 47.4645V47.6895C256.308 46.1038 255.611 44.4216 255.161 42.8466L255.311 42.9859C253.65 42.6431 252.043 42.3002 250.575 41.9895L250.425 41.9574V41.8074C250.383 39.0002 250.34 36.3216 250.297 33.7931V33.6538L250.425 33.6216C252.075 33.2252 253.661 32.8395 255.129 32.4859L255.011 32.6038C255.461 30.7931 256.147 29.1538 256.95 27.7181V27.8681C256.008 26.4109 255.118 25.0395 254.315 23.8074L254.261 23.7216L254.325 23.6466C256.608 21.3109 258.493 19.3824 259.918 17.9145L259.961 17.8716L260.015 17.9038C261.333 18.7288 262.361 19.3609 263.068 19.8002C263.4 20.0145 263.658 20.1752 263.85 20.2931C264.022 20.4109 264.118 20.4645 264.118 20.4752L264.108 20.4645Z" fill="#E0E0E0"/>
<path d="M229.157 4.25379C230.068 3.70737 231.032 3.28951 232.029 3.01094L232.618 0.171652L237.418 0.0859375L238.104 2.90379C239.111 3.15022 240.086 3.53594 241.018 4.05022L243.44 2.46451L246.89 5.79665L245.39 8.27165C245.936 9.18237 246.354 10.1467 246.632 11.1431L249.472 11.7324L249.557 16.5217L246.74 17.2074C246.493 18.2145 246.107 19.1895 245.593 20.1109L247.179 22.5324L243.847 25.9824L241.372 24.4824C240.461 25.0288 239.497 25.4467 238.5 25.7252L237.911 28.5645L233.122 28.6502L232.436 25.8324C231.429 25.5859 230.454 25.2002 229.522 24.6859L227.1 26.2717L223.65 22.9395L225.15 20.4645C224.604 19.5538 224.186 18.5895 223.907 17.5931L221.068 17.0038L220.982 12.2145L223.8 11.5288C224.047 10.5217 224.432 9.54665 224.947 8.62522L223.361 6.20379L226.693 2.75379L229.168 4.25379H229.157ZM231.707 10.6395C229.736 12.6859 229.79 15.9431 231.836 17.9145C233.882 19.8859 237.14 19.8324 239.111 17.7859C241.082 15.7395 241.029 12.4824 238.982 10.5109C236.936 8.53951 233.679 8.59308 231.707 10.6395Z" fill="#F5F5F5"/>
<path d="M231.707 10.6391C231.707 10.6391 231.975 10.2641 232.66 9.80341C233.335 9.35341 234.514 8.84984 236.014 9.01056C236.753 9.09627 237.557 9.33199 238.296 9.82484C239.025 10.307 239.71 11.0034 240.139 11.9034C240.364 12.3427 240.525 12.8356 240.61 13.3498C240.707 13.8641 240.717 14.3998 240.642 14.9356C240.514 16.007 240 17.0677 239.217 17.9034C238.414 18.7177 237.375 19.2641 236.303 19.4356C235.767 19.532 235.232 19.532 234.717 19.4677C234.203 19.4034 233.71 19.2641 233.26 19.0498C232.35 18.6534 231.632 17.9891 231.117 17.282C230.603 16.5641 230.335 15.7606 230.228 15.032C230.014 13.5427 230.475 12.3427 230.903 11.6463C231.342 10.9391 231.707 10.6606 231.707 10.6606C231.739 10.682 231.396 11.0034 231 11.6998C230.614 12.3963 230.207 13.5641 230.432 14.9891C230.55 15.6963 230.817 16.4463 231.31 17.132C231.803 17.807 232.5 18.4284 233.367 18.7927C233.796 18.9856 234.267 19.1141 234.75 19.1784C235.232 19.2427 235.746 19.2427 236.25 19.1463C237.257 18.9856 238.242 18.4713 239.003 17.6891C239.753 16.907 240.235 15.9106 240.353 14.8927C240.428 14.3891 240.417 13.8748 240.332 13.3927C240.257 12.9106 240.107 12.4391 239.892 12.0213C239.496 11.1641 238.842 10.4998 238.157 10.0284C237.46 9.55699 236.689 9.31056 235.982 9.22484C234.546 9.0427 233.389 9.4927 232.714 9.91056C232.017 10.3284 231.717 10.682 231.696 10.6498L231.707 10.6391Z" fill="#F5F5F5"/>
<path d="M229.157 4.25352C229.157 4.25352 229.104 4.23209 228.996 4.1678C228.879 4.10352 228.729 4.00709 228.525 3.88923C228.096 3.63209 227.464 3.2678 226.661 2.78566H226.714C225.868 3.66423 224.754 4.83209 223.404 6.24637V6.14994C223.896 6.87852 224.432 7.6928 225.011 8.57137L225.043 8.61423L225.021 8.65709C224.55 9.51423 224.154 10.4785 223.896 11.5499V11.6035L223.821 11.6142C222.943 11.8285 222 12.0642 221.004 12.3107L221.079 12.2035C221.111 13.7142 221.143 15.3107 221.175 16.9928L221.079 16.8857C221.957 17.0678 222.921 17.2714 223.918 17.4749H223.993L224.014 17.5607C224.282 18.4821 224.689 19.4678 225.246 20.3999L225.289 20.4642L225.246 20.5285C224.786 21.2999 224.271 22.1464 223.746 23.0035L223.725 22.8428C224.807 23.8928 225.975 25.0178 227.175 26.1642H227.004C227.754 25.6499 228.589 25.1035 229.425 24.5571L229.5 24.5142L229.575 24.5571C230.421 25.0285 231.407 25.4357 232.446 25.6821L232.532 25.7035L232.554 25.7892C232.768 26.6678 233.004 27.6321 233.25 28.6071L233.111 28.4999C234.632 28.4678 236.261 28.4464 237.9 28.4142L237.761 28.5321C237.943 27.6321 238.146 26.6678 238.35 25.6928L238.371 25.6071L238.457 25.5857C239.4 25.3178 240.375 24.9107 241.286 24.3535L241.361 24.3107L241.436 24.3535C242.271 24.8571 243.096 25.3607 243.911 25.8535L243.729 25.8749C244.854 24.7071 245.968 23.5607 247.061 22.4249L247.039 22.6071C246.504 21.7928 245.979 20.9785 245.454 20.1857L245.411 20.1107L245.454 20.0357C245.968 19.1249 246.343 18.1499 246.589 17.1642L246.611 17.0785L246.696 17.0571C247.65 16.8214 248.582 16.5964 249.514 16.3714L249.407 16.5107C249.375 14.8714 249.354 13.2749 249.332 11.7214L249.439 11.8499C248.475 11.6464 247.532 11.4535 246.6 11.2607L246.525 11.2392L246.504 11.1642C246.214 10.1464 245.796 9.1928 245.271 8.32494L245.229 8.26066L245.271 8.19637C245.786 7.34994 246.289 6.52494 246.782 5.72137L246.804 5.87137C245.593 4.6928 244.446 3.58923 243.364 2.52852H243.504C242.646 3.09637 241.854 3.62137 241.071 4.12494L241.018 4.15709L240.964 4.12494C240 3.58923 239.036 3.21423 238.082 2.97852H238.029L238.018 2.90352C237.771 1.87494 237.546 0.953516 237.332 0.0856585L237.418 0.149944C235.564 0.171373 233.979 0.192801 232.618 0.21423L232.682 0.160658C232.436 1.29637 232.243 2.2178 232.071 2.99994V3.03209H232.039C231.021 3.31066 230.314 3.6428 229.843 3.87852C229.618 3.99637 229.446 4.08209 229.329 4.14637C229.211 4.21066 229.157 4.2428 229.157 4.23209C229.157 4.23209 229.211 4.18923 229.318 4.12494C229.425 4.06066 229.596 3.95352 229.821 3.83566C230.282 3.58923 230.989 3.24637 232.007 2.94637L231.975 2.97852C232.136 2.20709 232.318 1.27494 232.543 0.13923V0.0856585H232.607C233.957 0.0535156 235.543 0.0213728 237.396 -0.0214844H237.461L237.482 0.0428013C237.696 0.910658 237.932 1.83209 238.179 2.84994L238.104 2.77494C239.068 3.01066 240.054 3.37494 241.039 3.92137H240.932C241.704 3.4178 242.496 2.8928 243.354 2.33566L243.429 2.28209L243.493 2.34637C244.586 3.39637 245.732 4.49994 246.954 5.6678L247.029 5.73209L246.975 5.8178C246.493 6.62137 245.989 7.44637 245.475 8.2928V8.16423C246.011 9.0428 246.439 10.0178 246.739 11.0571L246.643 10.9607C247.575 11.1535 248.518 11.3464 249.482 11.5499L249.589 11.5714V11.6785C249.621 13.2321 249.654 14.8392 249.675 16.4678V16.5749L249.568 16.6071C248.646 16.8321 247.704 17.0678 246.75 17.3035L246.857 17.1964C246.611 18.2142 246.225 19.2107 245.7 20.1428V19.9928C246.214 20.7964 246.75 21.5999 247.286 22.4142L247.35 22.5107L247.264 22.5964C246.171 23.7321 245.057 24.8785 243.932 26.0464L243.846 26.1321L243.75 26.0678C242.936 25.5749 242.1 25.0714 241.275 24.5678H241.425C240.493 25.1357 239.496 25.5535 238.521 25.8321L238.629 25.7249C238.425 26.6999 238.221 27.6642 238.039 28.5642L238.018 28.6821H237.9C236.25 28.7142 234.621 28.7357 233.1 28.7678H232.982L232.95 28.6607C232.714 27.6857 232.479 26.7321 232.264 25.8428L232.371 25.9499C231.311 25.6928 230.293 25.2749 229.425 24.7928H229.575C228.739 25.3392 227.904 25.8749 227.154 26.3785L227.057 26.4428L226.982 26.3678C225.782 25.2107 224.614 24.0749 223.532 23.0357L223.457 22.9607L223.511 22.8749C224.036 22.0178 224.55 21.1714 225.021 20.3999V20.5285C224.454 19.5857 224.036 18.5785 223.768 17.6249L223.864 17.7107C222.868 17.5071 221.904 17.3035 221.025 17.1107L220.939 17.0892V16.9928C220.907 15.3107 220.886 13.7035 220.864 12.2035V12.1178L220.939 12.0964C221.925 11.8607 222.879 11.6249 223.757 11.4107L223.682 11.4857C223.95 10.4035 224.357 9.4178 224.85 8.56066V8.64637C224.282 7.7678 223.757 6.95352 223.275 6.21423L223.243 6.16066L223.286 6.1178C224.646 4.72494 225.782 3.5678 226.639 2.68923L226.661 2.65709L226.693 2.67852C227.486 3.17137 228.096 3.54637 228.514 3.81423C228.718 3.9428 228.868 4.03923 228.986 4.11423C229.093 4.17852 229.146 4.22137 229.146 4.22137L229.157 4.25352Z" fill="#F5F5F5"/>
<path d="M100.725 14.8179H14.0576V158.271H100.725V14.8179Z" fill="#E0E0E0"/>
<path d="M97.8427 14.8179H11.1748V158.271H97.8427V14.8179Z" fill="#EBEBEB"/>
<path d="M94.1461 17.7212H14.8604V155.357H94.1461V17.7212Z" fill="#FAFAFA"/>
<path d="M78.707 35.6143H29.957V137.486H78.707V35.6143Z" fill="#EBEBEB"/>
<path d="M29.9573 101.432C29.8394 91.9176 38.4001 82.6283 47.8287 81.2998C52.318 80.6676 57.0965 81.5569 61.2965 79.8319C68.7858 76.7569 71.1751 66.8033 78.718 63.8462L79.0608 137.475H29.9573V101.432Z" fill="#E0E0E0"/>
<path d="M220.082 258.525C221.078 257.925 222.139 257.464 223.232 257.154L223.886 254.036L229.157 253.939L229.918 257.036C231.021 257.304 232.093 257.722 233.111 258.289L235.768 256.543L239.561 260.207L237.911 262.929C238.511 263.925 238.971 264.986 239.282 266.079L242.4 266.732L242.496 272.004L239.4 272.764C239.132 273.868 238.714 274.939 238.146 275.957L239.893 278.625L236.228 282.418L233.507 280.768C232.511 281.368 231.45 281.829 230.357 282.139L229.703 285.257L224.432 285.354L223.671 282.257C222.568 281.989 221.496 281.572 220.478 281.004L217.821 282.75L214.028 279.086L215.678 276.364C215.078 275.368 214.618 274.307 214.307 273.214L211.189 272.561L211.093 267.289L214.189 266.529C214.457 265.425 214.886 264.354 215.443 263.336L213.696 260.668L217.361 256.875L220.082 258.525ZM222.889 265.543C220.725 267.793 220.778 271.372 223.028 273.536C225.278 275.7 228.857 275.636 231.021 273.397C233.186 271.147 233.121 267.568 230.882 265.404C228.632 263.239 225.053 263.304 222.889 265.543Z" fill="#F5F5F5"/>
<path d="M296.164 289.832C296.164 289.832 296.475 289.821 297.107 289.811C297.75 289.811 298.703 289.811 299.989 289.789V289.864C285.096 289.939 224.432 290.003 151.907 290.003C109.95 289.982 71.9785 289.961 44.4749 289.95C30.7285 289.928 19.6178 289.907 11.9142 289.896C8.07852 289.886 5.08923 289.875 3.06423 289.864C2.05709 289.864 1.28566 289.853 0.760658 289.843C0.246373 289.843 -0.0214844 289.821 -0.0214844 289.821C-0.0214844 289.821 0.246373 289.811 0.760658 289.8C1.28566 289.8 2.05709 289.8 3.06423 289.778C5.09994 289.778 8.07852 289.757 11.9142 289.746C19.6071 289.736 30.7285 289.714 44.4749 289.693C71.9678 289.682 109.95 289.661 151.907 289.639C224.432 289.639 285.086 289.693 299.989 289.778V289.853C298.703 289.853 297.75 289.843 297.107 289.832C296.475 289.832 296.164 289.811 296.164 289.811V289.832Z" fill="#263238"/>
<path d="M271.414 32.6143H123.032V241.971H271.414V32.6143Z" fill="white"/>
<path d="M271.403 241.971C271.403 240.579 271.339 156.289 271.242 32.6143L271.403 32.775C226.532 32.775 176.142 32.775 123.042 32.7857H123.021L123.192 32.6143C123.182 111.075 123.171 183.621 123.16 241.971L123.021 241.832C213.15 241.918 270.246 241.971 271.403 241.971C270.257 241.971 213.15 242.025 123.021 242.111H122.882V241.971C122.882 183.611 122.86 111.064 122.85 32.6143V32.4429H123.042C176.142 32.4429 226.532 32.4536 271.403 32.4536H271.564V32.6143C271.467 156.3 271.403 240.579 271.403 241.971Z" fill="#263238"/>
<path d="M189.193 171.611H140.185C136.227 171.611 133.018 174.82 133.018 178.779V178.961C133.018 182.92 136.227 186.129 140.185 186.129H189.193C193.151 186.129 196.36 182.92 196.36 178.961V178.779C196.36 174.82 193.151 171.611 189.193 171.611Z" fill="#F5F5F5"/>
<path d="M255.289 171.611H207.685C203.727 171.611 200.518 174.82 200.518 178.779V178.961C200.518 182.92 203.727 186.129 207.685 186.129H255.289C259.248 186.129 262.457 182.92 262.457 178.961V178.779C262.457 174.82 259.248 171.611 255.289 171.611Z" fill="#F5F5F5"/>
<path d="M256.157 201.386H139.886C135.927 201.386 132.718 204.595 132.718 208.554V208.736C132.718 212.694 135.927 215.904 139.886 215.904H256.157C260.116 215.904 263.325 212.694 263.325 208.736V208.554C263.325 204.595 260.116 201.386 256.157 201.386Z" fill="#F5F5F5"/>
<path d="M162.108 165.772C162.108 165.868 155.99 165.943 148.436 165.943C140.883 165.943 134.765 165.868 134.765 165.772C134.765 165.675 140.883 165.6 148.436 165.6C155.99 165.6 162.108 165.675 162.108 165.772Z" fill="#263238"/>
<path d="M226.79 165.772C226.79 165.868 221.968 165.943 216.022 165.943C210.075 165.943 205.254 165.868 205.254 165.772C205.254 165.675 210.075 165.6 216.022 165.6C221.968 165.6 226.79 165.675 226.79 165.772Z" fill="#263238"/>
<path d="M179.454 195.386C179.454 195.482 169.522 195.557 157.275 195.557C145.029 195.557 135.097 195.482 135.097 195.386C135.097 195.289 145.029 195.214 157.275 195.214C169.522 195.214 179.454 195.289 179.454 195.386Z" fill="#263238"/>
<path d="M256.36 138.643H137.368C133.515 138.643 130.393 141.766 130.393 145.618V147.547C130.393 151.399 133.515 154.522 137.368 154.522H256.36C260.213 154.522 263.335 151.399 263.335 147.547V145.618C263.335 141.766 260.213 138.643 256.36 138.643Z" fill="#E0E0E0"/>
<path d="M225.182 146.582C225.182 146.679 213.386 146.754 198.836 146.754C184.286 146.754 172.489 146.679 172.489 146.582C172.489 146.486 184.286 146.411 198.836 146.411C213.386 146.411 225.182 146.486 225.182 146.582Z" fill="#263238"/>
<path d="M256.36 42.1177H137.368C133.515 42.1177 130.393 45.2405 130.393 49.0927V51.0212C130.393 54.8734 133.515 57.9962 137.368 57.9962H256.36C260.213 57.9962 263.335 54.8734 263.335 51.0212V49.0927C263.335 45.2405 260.213 42.1177 256.36 42.1177Z" fill="#E0E0E0"/>
<path d="M225.182 50.0572C225.182 50.1536 213.386 50.2286 198.836 50.2286C184.286 50.2286 172.489 50.1536 172.489 50.0572C172.489 49.9607 184.286 49.8857 198.836 49.8857C213.386 49.8857 225.182 49.9607 225.182 50.0572Z" fill="#263238"/>
<path d="M271.403 61.8428C271.403 61.9392 238.157 62.0142 197.153 62.0142C156.15 62.0142 122.893 61.9392 122.893 61.8428C122.893 61.7464 156.128 61.6714 197.153 61.6714C238.178 61.6714 271.403 61.7464 271.403 61.8428Z" fill="#EBEBEB"/>
<path d="M271.403 132.064C271.403 132.161 238.157 132.236 197.153 132.236C156.15 132.236 122.893 132.161 122.893 132.064C122.893 131.968 156.128 131.893 197.153 131.893C238.178 131.893 271.403 131.968 271.403 132.064Z" fill="#EBEBEB"/>
<path d="M189.193 77.7534H140.185C136.227 77.7534 133.018 80.9626 133.018 84.9213V85.1034C133.018 89.0621 136.227 92.2713 140.185 92.2713H189.193C193.151 92.2713 196.36 89.0621 196.36 85.1034V84.9213C196.36 80.9626 193.151 77.7534 189.193 77.7534Z" fill="#F5F5F5"/>
<path d="M255.289 77.7534H207.685C203.727 77.7534 200.518 80.9626 200.518 84.9213V85.1034C200.518 89.0621 203.727 92.2713 207.685 92.2713H255.289C259.248 92.2713 262.457 89.0621 262.457 85.1034V84.9213C262.457 80.9626 259.248 77.7534 255.289 77.7534Z" fill="#F5F5F5"/>
<path d="M256.157 107.528H139.886C135.927 107.528 132.718 110.737 132.718 114.696V114.878C132.718 118.837 135.927 122.046 139.886 122.046H256.157C260.116 122.046 263.325 118.837 263.325 114.878V114.696C263.325 110.737 260.116 107.528 256.157 107.528Z" fill="#F5F5F5"/>
<path d="M162.108 71.9141C162.108 72.0105 155.99 72.0855 148.436 72.0855C140.883 72.0855 134.765 72.0105 134.765 71.9141C134.765 71.8177 140.883 71.7427 148.436 71.7427C155.99 71.7427 162.108 71.8177 162.108 71.9141Z" fill="#263238"/>
<path d="M226.79 71.9141C226.79 72.0105 221.968 72.0855 216.022 72.0855C210.075 72.0855 205.254 72.0105 205.254 71.9141C205.254 71.8177 210.075 71.7427 216.022 71.7427C221.968 71.7427 226.79 71.8177 226.79 71.9141Z" fill="#263238"/>
<path d="M179.454 101.528C179.454 101.625 169.522 101.7 157.275 101.7C145.029 101.7 135.097 101.625 135.097 101.528C135.097 101.432 145.029 101.357 157.275 101.357C169.522 101.357 179.454 101.432 179.454 101.528Z" fill="#263238"/>
<path d="M258.75 224.732C258.75 224.828 249.064 224.903 237.117 224.903C225.171 224.903 215.485 224.828 215.485 224.732C215.485 224.636 225.171 224.561 237.117 224.561C249.064 224.561 258.75 224.636 258.75 224.732Z" fill="#263238"/>
<path d="M186.632 86.5393C186.632 86.5393 186.29 86.6679 185.604 86.7965C184.929 86.9251 183.9 87.0536 182.582 86.9679C181.275 86.8715 179.647 86.5608 177.965 85.7036C177.547 85.4786 177.14 85.1894 176.786 84.8144C176.432 84.4394 176.175 83.9465 176.079 83.4001C175.982 82.8643 176.047 82.2429 176.422 81.7608C176.797 81.2786 177.472 81.0536 178.093 81.2251C178.404 81.3108 178.682 81.5465 178.832 81.8465C178.982 82.1465 179.015 82.4894 178.961 82.8108C178.843 83.4536 178.49 84.0322 178.05 84.5143C177.182 85.4893 176.047 86.2929 174.729 86.7858C173.411 87.2786 171.922 87.4608 170.443 87.1715C169.704 87.0215 168.965 86.7536 168.343 86.2501C167.743 85.7572 167.24 84.9965 167.325 84.1286C167.368 83.7108 167.529 83.3144 167.786 82.9715C168.032 82.6394 168.386 82.3394 168.825 82.2429C169.275 82.1251 169.757 82.3179 170.068 82.6501C170.379 82.9929 170.507 83.4429 170.507 83.8715C170.507 84.3108 170.411 84.7393 170.207 85.1358C169.993 85.5322 169.661 85.8322 169.307 86.0786C168.579 86.5715 167.743 86.7965 166.94 87.0322C165.332 87.4929 163.575 87.9858 161.786 87.5786C160.918 87.3751 160.061 86.9572 159.418 86.2929C158.775 85.6394 158.336 84.7179 158.39 83.7644C158.411 83.1751 158.636 82.5644 159.107 82.1572C159.6 81.7501 160.307 81.7072 160.854 81.9751C161.132 82.1036 161.379 82.3286 161.518 82.6179C161.647 82.9072 161.679 83.2393 161.593 83.5286C161.432 84.1286 160.993 84.5572 160.565 84.8894C158.754 86.1429 156.686 86.8929 154.607 87.1501C153.579 87.2786 152.486 87.2893 151.5 86.8822C150.525 86.4751 149.754 85.5965 149.593 84.5465C149.422 83.4965 150.129 82.3929 151.168 82.1679C151.693 82.0608 152.261 82.2751 152.582 82.6715C152.915 83.0679 153.054 83.5715 153.075 84.0429C153.097 84.5251 152.99 85.0072 152.775 85.4358C152.54 85.8536 152.207 86.1965 151.832 86.4643C151.082 87.0001 150.225 87.2679 149.4 87.4822C147.782 87.9108 146.068 88.2108 144.557 87.6536C143.818 87.3751 143.175 86.9036 142.715 86.3143C142.265 85.7251 141.997 84.9858 142.061 84.2679C142.125 83.5608 142.468 82.9179 142.95 82.4679C143.432 82.0179 144.107 81.7822 144.718 81.9429L144.793 81.9644V82.0393C144.836 83.4965 144.225 84.7286 143.497 85.5644C142.768 86.4215 141.9 86.8929 141.182 87.1501C140.443 87.3965 139.843 87.3965 139.447 87.3751C139.05 87.3215 138.857 87.2679 138.857 87.2679C138.857 87.2036 139.704 87.5572 141.161 87.0644C141.868 86.8072 142.704 86.3251 143.4 85.4786C144.107 84.6643 144.675 83.4536 144.622 82.0608L144.697 82.1465C144.161 82.0179 143.561 82.2215 143.122 82.6393C142.682 83.0572 142.372 83.6572 142.318 84.3001C142.222 85.6286 143.282 86.9251 144.675 87.4286C146.1 87.9429 147.75 87.6644 149.357 87.2251C150.161 87.0108 150.997 86.7429 151.682 86.2393C152.025 85.9929 152.325 85.6715 152.529 85.3072C152.722 84.9322 152.818 84.5036 152.786 84.0643C152.765 83.6358 152.636 83.1965 152.357 82.8751C152.09 82.5429 151.65 82.3929 151.243 82.4786C150.397 82.6501 149.765 83.6144 149.925 84.5036C150.065 85.4144 150.761 86.2179 151.64 86.5822C152.54 86.9572 153.568 86.9572 154.575 86.8286C156.6 86.5715 158.625 85.8322 160.372 84.6215C160.779 84.3108 161.165 83.9143 161.282 83.4536C161.411 82.9822 161.186 82.4894 160.725 82.2858C160.286 82.0715 159.718 82.1144 159.354 82.4251C158.979 82.7465 158.775 83.2715 158.754 83.7858C158.7 84.6322 159.097 85.4572 159.686 86.0572C160.275 86.6679 161.068 87.0536 161.893 87.2465C163.565 87.6215 165.268 87.1608 166.875 86.7108C167.679 86.4751 168.493 86.2608 169.147 85.8108C169.468 85.5858 169.768 85.3072 169.94 84.9858C170.122 84.6536 170.218 84.2679 170.207 83.8929C170.207 83.5179 170.09 83.1429 169.854 82.8858C169.618 82.6286 169.254 82.4893 168.922 82.5751C168.236 82.7358 167.743 83.4751 167.668 84.1715C167.593 84.8786 168.022 85.5751 168.568 86.0143C169.125 86.4751 169.832 86.7429 170.529 86.8822C171.943 87.1608 173.39 86.9894 174.665 86.5179C175.94 86.0465 177.043 85.2751 177.89 84.3429C178.318 83.8929 178.65 83.3465 178.747 82.7786C178.865 82.2215 178.597 81.6108 178.061 81.4715C177.557 81.3215 176.957 81.5143 176.647 81.9108C176.325 82.3179 176.25 82.8751 176.336 83.3679C176.497 84.3965 177.3 85.1036 178.093 85.5429C179.732 86.4001 181.34 86.7322 182.625 86.8394C183.932 86.9465 184.95 86.8393 185.625 86.7322C185.968 86.6786 186.225 86.6251 186.397 86.5929C186.568 86.5608 186.665 86.5393 186.665 86.5501L186.632 86.5393Z" fill="#FAA56D"/>
<path d="M251.4 85.7574C251.4 85.7574 251.133 85.9395 250.565 86.1752C249.997 86.4002 249.129 86.6788 247.961 86.7217C246.804 86.7645 245.336 86.561 243.868 85.7681C243.15 85.3717 242.379 84.8467 241.875 84.0217C241.629 83.6038 241.458 83.111 241.522 82.586C241.586 82.0717 241.843 81.5574 242.293 81.2252C242.518 81.0645 242.797 80.9467 243.097 80.9574C243.397 80.9574 243.686 81.0967 243.9 81.3002C244.329 81.7181 244.5 82.3395 244.436 82.9288C244.35 83.5288 244.018 84.0752 243.6 84.5038C243.183 84.9431 242.679 85.2967 242.154 85.6074C241.093 86.2288 239.85 86.6574 238.533 86.7645C237.236 86.8717 235.822 86.7217 234.579 86.0252C233.968 85.6824 233.4 85.1895 233.047 84.5467C232.875 84.2252 232.736 83.8824 232.693 83.4859C232.661 83.1002 232.725 82.7252 232.854 82.3717C233.122 81.6752 233.658 81.0324 234.429 80.7752C234.815 80.6574 235.265 80.6895 235.618 80.8931C235.983 81.086 236.25 81.4181 236.411 81.7824C236.733 82.511 236.69 83.3895 236.325 84.0967C235.972 84.8145 235.383 85.3824 234.75 85.8324C233.465 86.7324 231.911 87.2681 230.304 87.3645C228.697 87.461 227.09 87.1074 225.708 86.3788C225.022 86.0145 224.368 85.5645 223.833 84.9859C223.308 84.4181 222.9 83.6788 222.9 82.8645C222.922 82.0502 223.415 81.2788 224.175 80.9788C224.561 80.8288 225.033 80.8824 225.365 81.1181C225.708 81.3538 225.911 81.7181 226.018 82.0824C226.243 82.8324 225.997 83.6467 225.568 84.2252C225.15 84.8252 224.593 85.2752 224.047 85.6931C221.797 87.3431 218.968 87.8467 216.568 87.2895C215.368 87.011 214.222 86.4431 213.536 85.4681C213.193 84.9967 212.979 84.4288 212.979 83.8609C212.968 83.2931 213.108 82.7467 213.375 82.2752C213.643 81.8145 214.072 81.4288 214.597 81.3002C215.111 81.1717 215.658 81.3217 216.043 81.6217C216.815 82.2324 217.136 83.2074 217.018 84.0538C216.89 84.9002 216.386 85.5752 215.85 86.036C215.293 86.4967 214.683 86.7752 214.125 86.9145C212.99 87.1931 212.068 87.1074 211.468 87.0859C211.179 87.0645 210.954 87.0431 210.783 87.0217C210.633 87.0002 210.547 86.9895 210.547 86.9895C210.547 86.9895 210.633 86.9895 210.783 86.9895C210.954 86.9895 211.179 87.0002 211.468 87.0109C212.068 87.0109 212.979 87.0752 214.093 86.7859C214.64 86.6359 215.229 86.3574 215.754 85.9181C216.268 85.4681 216.729 84.8252 216.836 84.0324C216.943 83.261 216.622 82.3502 215.915 81.8038C215.561 81.5467 215.1 81.4181 214.65 81.5252C214.2 81.6324 213.825 81.9752 213.579 82.3931C213.086 83.2502 213.075 84.4395 213.75 85.3074C214.393 86.1967 215.475 86.7431 216.633 87.0002C218.958 87.5252 221.69 87.0217 223.865 85.4252C224.4 85.0288 224.925 84.5788 225.311 84.0324C225.697 83.486 225.9 82.8002 225.708 82.1681C225.622 81.8574 225.44 81.5574 225.183 81.3859C224.925 81.2038 224.593 81.161 224.293 81.2788C223.693 81.5038 223.254 82.1895 223.243 82.8538C223.243 83.5395 223.597 84.2145 224.09 84.7395C224.583 85.2752 225.204 85.7145 225.868 86.0574C227.197 86.7538 228.74 87.0967 230.283 87.0002C231.825 86.9038 233.315 86.3895 234.547 85.5324C235.158 85.1038 235.704 84.5681 236.015 83.9252C236.336 83.2931 236.379 82.5324 236.1 81.8895C235.843 81.2574 235.147 80.8502 234.515 81.0645C233.883 81.2574 233.379 81.8359 233.154 82.4574C233.036 82.7681 232.983 83.1002 233.004 83.4324C233.036 83.7538 233.154 84.0752 233.315 84.3645C233.636 84.9538 234.15 85.4038 234.718 85.7252C235.875 86.3895 237.236 86.5288 238.49 86.4324C239.754 86.3252 240.954 85.9288 241.983 85.3288C242.497 85.0288 242.979 84.686 243.375 84.2788C243.772 83.8717 244.072 83.3788 244.136 82.8645C244.2 82.3502 244.04 81.7931 243.686 81.4502C243.333 81.0967 242.775 81.0859 242.4 81.3859C242.015 81.6645 241.779 82.1252 241.715 82.586C241.661 83.036 241.811 83.5074 242.036 83.8824C242.497 84.6645 243.236 85.1788 243.933 85.5752C245.358 86.3681 246.793 86.5824 247.929 86.561C249.075 86.5395 249.943 86.2824 250.511 86.0788C251.079 85.8752 251.358 85.7038 251.368 85.7252L251.4 85.7574Z" fill="#FAA56D"/>
<path d="M189.857 114.996C189.857 114.996 189.771 115.05 189.6 115.125C189.418 115.211 189.16 115.329 188.839 115.468C188.164 115.768 187.178 116.196 185.871 116.689C184.564 117.171 182.925 117.707 180.964 117.996C179.978 118.146 178.918 118.211 177.793 118.189C176.668 118.157 175.457 118.104 174.257 117.654C173.068 117.225 171.932 116.239 171.568 114.857C171.385 114.182 171.439 113.389 171.825 112.746C172.189 112.114 172.853 111.579 173.657 111.514C174.471 111.45 175.232 112.018 175.553 112.746C175.907 113.464 175.982 114.321 175.725 115.104C175.468 115.886 174.953 116.55 174.343 117.096C173.721 117.643 173.014 118.071 172.264 118.436C170.764 119.143 168.964 119.539 167.239 119.025C165.525 118.521 164.11 117.011 163.746 115.179C163.671 114.718 163.66 114.246 163.746 113.775C163.81 113.304 164.014 112.843 164.314 112.468C164.614 112.093 165.043 111.75 165.589 111.729C166.135 111.707 166.639 112.093 166.81 112.586C167.143 113.571 166.81 114.589 166.318 115.404C165.825 116.229 165.203 116.979 164.464 117.6C162.985 118.854 161.057 119.561 159.16 119.486C157.275 119.432 155.432 118.714 154.082 117.439C153.428 116.796 152.893 115.993 152.743 115.071C152.668 114.621 152.668 114.139 152.828 113.689C152.989 113.25 153.257 112.864 153.6 112.564C153.943 112.264 154.371 112.039 154.832 111.986C155.303 111.911 155.785 112.082 156.139 112.393C156.825 113.046 156.953 114.043 156.728 114.879C156.493 115.725 155.946 116.4 155.357 116.957C154.757 117.514 154.114 117.996 153.428 118.393C152.068 119.196 150.578 119.679 149.1 119.861C147.632 120.032 146.164 119.925 144.846 119.475C144.193 119.239 143.582 118.896 143.1 118.425C142.607 117.964 142.285 117.343 142.157 116.711C142.028 116.079 142.06 115.425 142.328 114.846C142.585 114.279 143.121 113.839 143.721 113.764C144.31 113.679 144.9 113.85 145.339 114.204C145.778 114.568 145.971 115.168 145.853 115.682C145.757 116.207 145.435 116.614 145.093 116.936C144.739 117.257 144.353 117.482 143.968 117.675C143.196 118.05 142.468 118.318 141.793 118.511C140.443 118.896 139.35 118.971 138.621 118.982C137.882 118.982 137.507 118.939 137.507 118.939C137.507 118.939 137.603 118.939 137.796 118.939C137.989 118.939 138.268 118.939 138.632 118.918C139.36 118.886 140.443 118.779 141.771 118.382C142.435 118.189 143.153 117.911 143.914 117.536C144.289 117.343 144.664 117.118 144.985 116.807C145.307 116.507 145.596 116.121 145.682 115.65C145.778 115.189 145.607 114.686 145.221 114.364C144.835 114.054 144.3 113.893 143.775 113.979C143.25 114.054 142.789 114.429 142.564 114.943C142.328 115.457 142.296 116.068 142.425 116.657C142.65 117.868 143.721 118.8 144.975 119.218C146.239 119.646 147.675 119.743 149.1 119.561C150.535 119.379 151.982 118.896 153.3 118.114C153.964 117.718 154.585 117.246 155.164 116.711C155.732 116.175 156.235 115.532 156.45 114.771C156.643 114.032 156.514 113.143 155.946 112.618C155.378 112.071 154.425 112.254 153.846 112.8C153.546 113.068 153.3 113.411 153.171 113.786C153.032 114.161 153.032 114.589 153.096 114.996C153.235 115.821 153.728 116.571 154.35 117.182C155.614 118.382 157.393 119.079 159.203 119.121C161.014 119.186 162.857 118.521 164.271 117.321C164.989 116.721 165.578 116.004 166.05 115.211C166.285 114.814 166.468 114.407 166.553 113.968C166.65 113.539 166.66 113.079 166.51 112.693C166.382 112.307 166.007 112.05 165.621 112.061C165.235 112.061 164.86 112.339 164.603 112.671C164.057 113.336 163.982 114.279 164.11 115.114C164.443 116.807 165.771 118.243 167.368 118.704C168.985 119.186 170.71 118.832 172.168 118.146C173.603 117.45 174.996 116.454 175.478 115.007C175.714 114.311 175.65 113.518 175.339 112.875C175.039 112.221 174.396 111.75 173.721 111.804C173.046 111.846 172.446 112.318 172.114 112.896C171.76 113.475 171.707 114.171 171.878 114.804C172.21 116.089 173.26 117.021 174.396 117.439C175.543 117.879 176.743 117.943 177.846 117.986C178.96 118.018 180.01 117.954 180.985 117.825C182.935 117.557 184.564 117.043 185.882 116.582C187.189 116.111 188.185 115.693 188.871 115.425C189.203 115.296 189.46 115.189 189.643 115.114C189.814 115.05 189.91 115.018 189.91 115.018L189.857 114.996Z" fill="#FAA56D"/>
<path d="M252.633 260.647C252.633 260.647 237.397 243.118 231.654 225.579C225.9 208.05 228.633 210.054 228.633 210.054C228.633 210.054 236.39 227.089 242.283 235.307C248.175 243.536 258.665 255.611 258.665 255.611L252.633 260.636V260.647Z" fill="#455A64"/>
<path d="M255.675 212.796C255.182 211.939 253.875 212.389 254.025 213.364C254.957 219.525 256.96 233.979 256.885 243.354C256.778 255.536 256.885 260.239 256.885 260.239H263.228C263.228 260.239 262.103 235.071 260.667 227.389C259.66 222.011 257.528 216.032 255.675 212.807V212.796Z" fill="#455A64"/>
<path d="M259.125 258.182C259.125 258.182 263.111 249.793 264.343 239.25C264.868 234.771 263.936 228.707 262.543 220.629C261.868 216.718 261.718 213.729 261.739 211.671C261.761 210.107 263.818 209.604 264.579 210.964C265.339 212.325 267.557 216.996 268.125 219.921C269.657 227.904 271.404 231.889 270.064 239.464C268.736 247.039 263.818 258.707 263.818 258.707L259.114 258.193L259.125 258.182Z" fill="#455A64"/>
<path d="M264.836 258.696C264.836 258.696 281.561 222.75 282.718 217.425C283.875 212.089 287.818 199.8 288.279 200.496C288.74 201.193 289.436 207.685 286.425 215.1C283.415 222.514 270.547 259.789 270.547 259.789H264.836" fill="#455A64"/>
<path d="M257.293 257.089C257.293 257.089 257.122 256.993 256.822 256.768C256.522 256.543 256.072 256.221 255.525 255.782C254.411 254.903 252.847 253.575 251.025 251.818C247.372 248.314 242.829 242.903 238.886 236.239C234.943 229.575 232.286 223.06 230.604 218.293C229.757 215.903 229.147 213.953 228.75 212.593C228.547 211.918 228.407 211.382 228.311 211.028C228.214 210.664 228.172 210.482 228.182 210.471C228.193 210.471 228.257 210.653 228.386 211.007C228.514 211.393 228.686 211.907 228.889 212.55C229.329 213.889 229.982 215.828 230.85 218.207C232.586 222.943 235.275 229.425 239.207 236.057C243.129 242.689 247.618 248.089 251.207 251.635C252.997 253.414 254.529 254.775 255.611 255.675C256.147 256.135 256.575 256.468 256.864 256.714C257.154 256.95 257.293 257.078 257.293 257.089Z" fill="#263238"/>
<path d="M259.125 239.839C259.125 239.839 259.05 239.464 258.975 238.789C258.9 238.05 258.793 237.075 258.665 235.907C258.397 233.475 257.99 230.121 257.4 226.436C256.811 222.75 256.147 219.439 255.632 217.039C255.386 215.893 255.182 214.939 255.022 214.211C254.882 213.546 254.807 213.171 254.829 213.161C254.85 213.161 254.968 213.514 255.15 214.178C255.332 214.843 255.59 215.796 255.868 216.986C256.447 219.364 257.143 222.686 257.732 226.371C258.322 230.068 258.697 233.432 258.9 235.875C258.997 237.096 259.072 238.082 259.093 238.768C259.125 239.454 259.125 239.829 259.104 239.829L259.125 239.839Z" fill="#263238"/>
<path d="M263.047 210.675C263.047 210.675 263.122 210.825 263.24 211.136C263.368 211.478 263.529 211.918 263.743 212.475C263.968 213.053 264.215 213.771 264.461 214.618C264.707 215.464 265.029 216.418 265.275 217.5C265.404 218.036 265.543 218.603 265.693 219.193C265.832 219.782 265.929 220.403 266.057 221.046C266.325 222.321 266.497 223.703 266.7 225.161C267.032 228.075 267.204 231.3 267.097 234.686C266.957 238.071 266.55 241.275 266.015 244.157C265.704 245.593 265.436 246.964 265.072 248.218C264.9 248.85 264.75 249.461 264.568 250.039C264.386 250.618 264.204 251.164 264.032 251.7C263.711 252.761 263.325 253.693 263.015 254.507C262.715 255.332 262.404 256.028 262.147 256.586C261.9 257.121 261.707 257.55 261.547 257.882C261.407 258.171 261.332 258.332 261.322 258.321C261.311 258.321 261.365 258.15 261.482 257.85C261.622 257.518 261.793 257.078 262.018 256.532C262.265 255.964 262.543 255.268 262.832 254.432C263.122 253.607 263.497 252.675 263.797 251.614C263.957 251.089 264.129 250.532 264.311 249.953C264.482 249.375 264.622 248.764 264.793 248.132C265.147 246.878 265.393 245.518 265.693 244.093C266.207 241.221 266.604 238.028 266.743 234.664C266.85 231.3 266.679 228.086 266.379 225.193C266.186 223.746 266.025 222.364 265.768 221.1C265.65 220.468 265.554 219.846 265.425 219.257C265.286 218.668 265.157 218.111 265.04 217.564C264.815 216.482 264.515 215.528 264.279 214.682C264.054 213.836 263.818 213.118 263.625 212.528C263.443 211.971 263.304 211.521 263.186 211.178C263.09 210.868 263.047 210.696 263.057 210.696L263.047 210.675Z" fill="#263238"/>
<path d="M288.096 201.214C288.096 201.214 288.096 201.268 288.085 201.375C288.064 201.504 288.042 201.654 288.01 201.846C287.935 202.254 287.839 202.864 287.678 203.636C287.357 205.179 286.821 207.407 285.985 210.107C285.15 212.807 284.014 215.979 282.653 219.45C281.303 222.932 279.739 226.725 278.25 230.754C276.739 234.782 275.582 238.714 274.489 242.282C273.407 245.85 272.378 249.064 271.392 251.711C270.407 254.357 269.464 256.446 268.757 257.861C268.414 258.568 268.103 259.104 267.91 259.468C267.814 259.629 267.739 259.768 267.675 259.875C267.621 259.971 267.589 260.014 267.589 260.014C267.589 260.014 267.6 259.961 267.642 259.864C267.696 259.746 267.76 259.607 267.846 259.436C268.028 259.061 268.307 258.525 268.639 257.796C269.314 256.371 270.214 254.282 271.167 251.625C272.121 248.979 273.128 245.764 274.189 242.196C275.26 238.629 276.417 234.675 277.928 230.636C279.417 226.586 280.992 222.804 282.364 219.332C283.735 215.861 284.903 212.711 285.76 210.032C286.628 207.354 287.196 205.146 287.56 203.604C287.742 202.832 287.86 202.232 287.957 201.836C288 201.654 288.032 201.504 288.064 201.375C288.085 201.268 288.107 201.214 288.117 201.225L288.096 201.214Z" fill="#263238"/>
<path d="M236.518 193.275C235.468 192.225 233.711 193.318 234.15 194.743C234.589 196.179 235.264 198.043 236.25 200.143C238.554 205.029 245.304 222.557 248.464 232.189C251.625 241.822 256.082 259.779 256.082 259.779L262.832 258.686C262.832 258.686 256.65 229.168 250.618 218.539C245.764 209.989 240.922 197.647 236.518 193.275Z" fill="#455A64"/>
<path d="M250.318 238.221C250.318 238.221 250.468 238.5 250.661 239.035C250.864 239.56 251.132 240.343 251.443 241.307C252.064 243.235 252.825 245.925 253.597 248.914C254.357 251.903 255 254.625 255.439 256.596C255.643 257.528 255.814 258.31 255.943 258.932C256.061 259.489 256.104 259.8 256.082 259.8C256.061 259.8 255.964 259.51 255.804 258.964C255.643 258.353 255.429 257.571 255.182 256.65C254.668 254.614 253.982 251.946 253.232 249C252.472 246.01 251.743 243.321 251.186 241.382C250.918 240.471 250.693 239.7 250.522 239.089C250.361 238.543 250.286 238.243 250.307 238.232L250.318 238.221Z" fill="#263238"/>
<path d="M259.479 259.243C259.479 259.243 259.457 259.179 259.436 259.061C259.415 258.921 259.393 258.75 259.361 258.525C259.286 258.054 259.222 257.368 259.082 256.479C258.836 254.7 258.397 252.15 257.668 249.032C256.95 245.914 255.9 242.25 254.507 238.243C253.125 234.247 251.39 229.918 249.418 225.45C245.443 216.514 241.479 208.586 238.875 202.725C237.557 199.8 236.54 197.411 235.865 195.75C235.522 194.925 235.275 194.272 235.104 193.832C235.029 193.629 234.965 193.457 234.922 193.329C234.879 193.211 234.868 193.157 234.868 193.157C234.868 193.157 234.9 193.211 234.954 193.318C235.007 193.447 235.082 193.607 235.179 193.811C235.382 194.272 235.65 194.904 236.004 195.707C236.711 197.357 237.772 199.725 239.111 202.629C241.779 208.457 245.775 216.364 249.75 225.311C251.722 229.789 253.457 234.129 254.829 238.147C256.2 242.164 257.229 245.85 257.925 248.979C258.622 252.118 259.029 254.679 259.232 256.468C259.35 257.357 259.393 258.054 259.447 258.525C259.468 258.739 259.479 258.921 259.49 259.061C259.49 259.179 259.49 259.243 259.49 259.243H259.479Z" fill="#263238"/>
<path d="M262.842 258.697C262.842 258.697 262.735 258.3 262.617 257.561C262.478 256.768 262.307 255.718 262.092 254.454C261.632 251.839 260.914 248.239 259.896 244.318C258.889 240.397 257.742 236.904 256.875 234.397C256.446 233.186 256.092 232.189 255.814 231.429C255.557 230.732 255.428 230.336 255.45 230.325C255.471 230.325 255.642 230.689 255.942 231.375C256.232 232.061 256.639 233.057 257.11 234.3C258.053 236.786 259.232 240.279 260.25 244.222C261.278 248.154 261.942 251.775 262.35 254.411C262.542 255.729 262.692 256.8 262.767 257.539C262.853 258.279 262.885 258.686 262.853 258.697H262.842Z" fill="#263238"/>
<path d="M276.696 257.721H250.339V289.832H276.696V257.721Z" fill="#FAA56D"/>
<g opacity="0.3">
<path d="M276.696 257.721H250.339V289.832H276.696V257.721Z" fill="black"/>
</g>
<path d="M268.286 257.721H244.907V289.832H268.286V257.721Z" fill="#FAA56D"/>
<path d="M54.1288 87.493L53.3788 147.814C53.2502 158.068 55.1574 173.164 71.3895 172.629C85.4359 171.097 89.1645 157.8 89.2717 148.232C89.3252 143.689 89.3788 139.907 89.4109 139.436C89.4109 139.436 104.786 138.182 106.082 123C106.715 115.661 106.768 100.447 106.661 86.6787C106.554 71.893 95.0788 59.6787 80.3359 58.5965L78.8681 58.4894C62.9895 58.2537 53.9252 71.6144 54.1288 87.493Z" fill="#FFBE9D"/>
<path d="M89.4105 139.436C89.4105 139.436 79.7891 139.296 70.0498 132.139C70.0498 132.139 74.0677 143.593 89.3355 143.336L89.4105 139.436Z" fill="#EB996E"/>
<path d="M80.7 92.8927C80.4 93.2034 78.6429 91.7891 76.1036 91.7248C73.5643 91.6177 71.6572 92.9034 71.3893 92.582C71.2607 92.432 71.5715 91.8748 72.3965 91.2963C73.2108 90.7177 74.5929 90.1713 76.1786 90.2248C77.7643 90.2784 79.0822 90.9213 79.8322 91.5534C80.5929 92.1963 80.85 92.7748 80.7 92.9034V92.8927Z" fill="#263238"/>
<path d="M80.6246 98.1534C80.5817 99.2355 79.6281 100.103 78.4924 100.082C77.3567 100.061 76.4674 99.1605 76.5103 98.0784C76.5531 96.9962 77.5067 96.1284 78.6424 96.1498C79.7781 96.1712 80.6674 97.0712 80.6246 98.1534Z" fill="#263238"/>
<path d="M87.0752 110.593C87.0752 110.464 88.5431 110.314 90.9216 110.186C91.5216 110.164 92.1002 110.089 92.2288 109.693C92.4002 109.275 92.1966 108.611 91.9609 107.893C91.5002 106.404 91.0288 104.85 90.5252 103.222C88.5431 96.5787 87.1609 91.1358 87.4288 91.0501C87.6966 90.9751 89.5181 96.3001 91.4895 102.943C91.9609 104.582 92.4109 106.147 92.8502 107.636C93.0216 108.332 93.3538 109.125 92.9895 110.004C92.7966 110.432 92.3359 110.732 91.9502 110.807C91.5538 110.893 91.2216 110.882 90.9216 110.872C88.5431 110.829 87.0752 110.732 87.0752 110.593Z" fill="#263238"/>
<path d="M79.6178 83.3249C79.3714 83.8928 77.3357 83.4642 74.8928 83.5928C72.45 83.6678 70.4464 84.2571 70.1678 83.7106C70.0392 83.4535 70.425 82.9285 71.25 82.4249C72.075 81.9214 73.3607 81.4821 74.8178 81.4178C76.2857 81.3642 77.5928 81.6964 78.45 82.1249C79.3071 82.5642 79.725 83.0464 79.6178 83.3142V83.3249Z" fill="#263238"/>
<path d="M103.779 88.0391C103.511 88.4998 101.529 87.9855 99.1183 87.9105C96.7076 87.7927 94.7147 88.1462 94.4576 87.6641C94.3505 87.4391 94.7469 87.0212 95.5826 86.6569C96.4183 86.2926 97.6933 86.0141 99.1397 86.0677C100.586 86.1319 101.861 86.5069 102.675 86.9355C103.5 87.3641 103.886 87.8141 103.768 88.0284L103.779 88.0391Z" fill="#263238"/>
<path d="M54.5465 98.8286C54.3001 98.7001 44.3251 94.9822 43.9073 105.397C43.4787 115.811 54.0215 114.096 54.0537 113.796C54.0858 113.496 54.5465 98.8394 54.5465 98.8394V98.8286Z" fill="#FFBE9D"/>
<path d="M51.0325 109.714C51.0325 109.714 50.8504 109.832 50.529 109.961C50.229 110.089 49.704 110.153 49.1683 109.928C48.0861 109.478 47.229 107.7 47.2611 105.814C47.2718 104.861 47.5075 103.971 47.8718 103.243C48.2254 102.493 48.7397 101.979 49.2968 101.904C49.854 101.796 50.229 102.15 50.3468 102.439C50.4754 102.739 50.4004 102.943 50.454 102.964C50.4861 102.996 50.6897 102.804 50.6147 102.364C50.5825 102.161 50.4647 101.903 50.229 101.7C49.9825 101.486 49.629 101.368 49.2325 101.389C48.429 101.411 47.679 102.118 47.2718 102.921C46.8218 103.725 46.5325 104.732 46.5218 105.803C46.5004 107.903 47.4968 109.918 48.9861 110.411C49.7147 110.636 50.3361 110.432 50.6575 110.207C50.9897 109.961 51.054 109.736 51.0218 109.714H51.0325Z" fill="#EB996E"/>
<path d="M84.6215 117.803C84.7393 117.536 82.6929 116.925 81.2572 115.018C80.5393 114.075 80.1215 113.046 79.8108 112.296C79.5108 111.536 79.275 111.064 79.1679 111.096C79.0608 111.128 79.0929 111.643 79.2536 112.468C79.425 113.282 79.7786 114.439 80.5929 115.511C81.3965 116.593 82.4679 117.236 83.25 117.546C84.0429 117.868 84.5786 117.889 84.6108 117.803H84.6215Z" fill="#263238"/>
<path d="M103.896 93.8463C103.596 94.157 101.839 92.7427 99.2999 92.6784C96.7606 92.5713 94.8535 93.857 94.5856 93.5356C94.457 93.3856 94.7678 92.8284 95.5928 92.2499C96.407 91.6713 97.7892 91.1249 99.3749 91.1784C100.961 91.232 102.278 91.8749 103.028 92.507C103.789 93.1499 104.046 93.7284 103.896 93.857V93.8463Z" fill="#263238"/>
<path d="M103.479 98.8926C103.436 99.9748 102.483 100.843 101.347 100.821C100.211 100.8 99.3219 99.8998 99.3648 98.8176C99.4076 97.7355 100.361 96.8676 101.497 96.8891C102.633 96.9105 103.522 97.8105 103.479 98.8926Z" fill="#263238"/>
<path d="M117.257 66.5034C115.307 63.0856 110.572 61.5856 107.004 63.257C107.936 58.4784 105.365 53.2177 101.004 51.0427C96.6431 48.857 90.9002 49.9391 87.6217 53.5498C87.4181 52.2534 86.5074 51.1498 85.3824 50.4641C84.2574 49.7891 82.9502 49.4891 81.6431 49.3498C77.5824 48.9106 73.3931 49.8963 69.9645 52.1141C68.1645 53.2713 66.6002 54.7606 65.3145 56.4748C59.2931 55.7677 52.9074 57.9748 48.8252 62.4963C43.9288 67.9177 43.0074 80.4748 48.3645 91.3284L49.6288 98.132C51.311 98.132 52.8431 98.2498 53.8824 99.182C55.286 100.446 55.9181 102.825 58.2538 101.925C59.4431 101.464 60.5252 98.9677 60.9324 97.757C63.5788 89.7105 64.4574 81.0856 63.5038 72.6748C65.1645 70.8963 67.1788 69.4498 69.386 68.432L69.2038 68.5927C73.4467 67.1141 78.2467 65.6677 82.2752 67.6606C85.4038 69.2034 87.236 72.4498 89.5717 75.032C93.9967 79.9284 99.9645 82.5963 106.565 82.8856C106.79 87.1606 106.425 93.2034 106.65 97.4784L110.25 90.632V90.6641C110.55 90.1606 110.797 89.657 111.022 89.1534L111.107 89.0034V88.982C111.761 88.4463 112.265 87.4713 113.379 86.1963C115.522 83.732 116.122 80.0248 114.857 77.0141C118.104 74.7855 119.218 69.9534 117.257 66.5356V66.5034Z" fill="#263238"/>
<path d="M112.35 86.5605C112.35 86.5605 112.35 86.5605 112.339 86.5498L112.35 86.5605Z" fill="#263238"/>
<path d="M111.032 66.6641C111.032 66.6641 111.064 66.7391 111.107 66.8891C111.15 67.0391 111.193 67.2641 111.204 67.5641C111.236 68.1533 111.139 69.0533 110.593 70.0069C110.325 70.4783 109.939 70.9498 109.425 71.3569C108.911 71.7533 108.257 72.0533 107.529 72.1712C106.093 72.4069 104.304 71.9248 103.189 70.5319L103.446 70.3069C103.939 70.8319 104.207 71.5926 104.175 72.3533C104.143 73.3712 103.704 74.3248 103.007 74.9784C102.3 75.6319 101.4 75.9426 100.543 76.0283C98.8071 76.1998 97.3071 75.5462 96.2571 74.8498C95.1964 74.1426 94.4678 73.4033 93.9643 72.8998C93.4714 72.3962 93.225 72.0962 93.2357 72.0748C93.2571 72.0533 93.5357 72.3212 94.0607 72.8033C94.5857 73.2748 95.3357 73.9712 96.3857 74.6355C97.425 75.2891 98.8714 75.8784 100.5 75.7069C101.293 75.6212 102.129 75.3212 102.761 74.7319C103.382 74.1426 103.789 73.2641 103.811 72.3426C103.832 71.6569 103.596 71.0033 103.168 70.5426L103.425 70.3176C104.443 71.5926 106.104 72.0748 107.454 71.8605C108.836 71.6783 109.843 70.7676 110.368 69.8891C110.904 68.9998 111.043 68.1319 111.043 67.5641C111.043 66.9855 110.968 66.6748 110.989 66.6641H111.032Z" fill="#455A64"/>
<path d="M98.004 55.2534C98.004 55.2534 98.0897 55.2748 98.229 55.3498C98.3683 55.4248 98.5718 55.5534 98.8076 55.7463C99.279 56.1213 99.9433 56.7534 100.383 57.782C100.822 58.7891 100.875 60.2784 100.029 61.532C99.6111 62.1427 98.9468 62.6677 98.1325 62.8391C97.3397 63.0106 96.429 62.882 95.7111 62.3677C95.4861 62.207 95.2933 62.0034 95.1326 61.7891L95.4325 61.6177C95.7647 62.3998 95.679 63.2677 95.3575 63.9534C95.0468 64.6606 94.4683 65.207 93.8468 65.507C92.5718 66.1177 91.2218 65.9248 90.3004 65.507C89.3575 65.0784 88.7575 64.4784 88.3933 64.0606C88.0183 63.632 87.8683 63.3641 87.8897 63.3534C87.9111 63.332 88.0933 63.5784 88.4897 63.9748C88.8861 64.3606 89.4968 64.907 90.3968 65.2927C91.2861 65.6677 92.5504 65.8177 93.7075 65.2391C94.2754 64.9498 94.779 64.4677 95.0576 63.8248C95.3468 63.1927 95.4111 62.432 95.1218 61.757L94.5754 60.482L95.4218 61.5963C95.5611 61.7784 95.7218 61.9498 95.9254 62.0891C96.5575 62.5284 97.3718 62.657 98.079 62.507C98.7968 62.3677 99.3968 61.907 99.7825 61.3498C100.575 60.2141 100.554 58.832 100.179 57.8677C99.804 56.882 99.1825 56.2391 98.754 55.8427C98.3147 55.4463 98.0147 55.2748 98.0361 55.2534H98.004Z" fill="#455A64"/>
<path d="M186.375 131.175L162.343 149.529C160.918 150.621 160.704 152.689 161.882 154.039C162.965 155.282 164.84 155.464 166.136 154.457L189.965 135.943L193.19 129.589L186.365 131.186L186.375 131.175Z" fill="#FAA56D"/>
<path opacity="0.5" d="M190.115 130.307L191.818 132.289L189.975 135.943C189.975 135.943 188.208 136.029 188.368 134.282C188.368 134.282 186.579 134.464 186.911 132.611C186.911 132.611 185.658 132.504 186.365 131.175L190.104 130.296L190.115 130.307Z" fill="white"/>
<path d="M162.343 149.529L166.296 154.35L167.614 153.322L163.832 148.393L162.343 149.529Z" fill="#263238"/>
<path d="M160.575 195.525L159.707 195.375L177.407 164.432L174.611 155.507C174.611 155.507 171.364 142.8 174.075 139.553C174.075 139.553 179.989 132.589 181.907 132.686C183.825 132.782 185.357 133.168 185.743 134.603C185.743 134.603 189 134.218 189.868 135.278C190.736 136.328 191.4 137.582 191.4 137.582C191.4 137.582 194.946 137.293 195.911 140.368C195.911 140.368 199.264 142.093 199.553 144.589C199.843 147.086 198.878 158.689 197.828 161.657C196.778 164.625 192.846 170.861 191.689 180.075C190.543 189.278 186.482 195.257 182.871 208.714L173.078 212.582L160.575 195.525Z" fill="#FFBE9D"/>
<path d="M185.572 134.411C185.647 134.507 184.425 135.321 183.504 136.8C182.561 138.278 182.368 139.725 182.24 139.703C182.143 139.714 182.165 138.161 183.161 136.586C184.147 135.011 185.54 134.314 185.572 134.411Z" fill="#EB996E"/>
<path d="M191.207 137.582C191.271 137.689 190.114 138.386 189.182 139.725C188.239 141.043 187.971 142.382 187.853 142.35C187.757 142.35 187.853 140.903 188.861 139.489C189.846 138.064 191.186 137.486 191.207 137.582Z" fill="#EB996E"/>
<path d="M195.717 140.261C195.792 140.357 194.914 141.129 194.1 142.296C193.285 143.454 192.857 144.546 192.75 144.514C192.653 144.493 192.91 143.293 193.767 142.071C194.614 140.839 195.653 140.186 195.717 140.271V140.261Z" fill="#EB996E"/>
<path d="M179.1 141.289C179.036 141.386 178.243 140.861 177.139 140.957C176.036 141.021 175.318 141.643 175.232 141.557C175.2 141.525 175.329 141.311 175.65 141.064C175.972 140.829 176.497 140.593 177.107 140.55C177.718 140.507 178.275 140.668 178.618 140.861C178.972 141.054 179.122 141.246 179.1 141.289Z" fill="#EB996E"/>
<path d="M186.161 145.703C186.054 145.746 185.721 144.707 184.704 143.957C183.707 143.175 182.625 143.132 182.625 143.014C182.625 142.961 182.893 142.896 183.343 142.96C183.782 143.014 184.393 143.228 184.939 143.646C185.486 144.064 185.85 144.6 186.021 145.007C186.193 145.425 186.204 145.703 186.161 145.714V145.703Z" fill="#EB996E"/>
<path d="M193.168 147.193C193.082 147.279 192.311 146.4 190.993 146.057C189.675 145.682 188.571 146.057 188.539 145.94C188.518 145.897 188.775 145.736 189.236 145.618C189.696 145.511 190.382 145.479 191.089 145.672C191.796 145.865 192.375 146.229 192.718 146.561C193.061 146.893 193.2 147.161 193.157 147.193H193.168Z" fill="#EB996E"/>
<path d="M14.5609 180.954C14.5609 180.954 3.70732 242.571 4.23232 248.336C4.75732 254.1 7.63946 263.261 14.1859 264.836C20.7323 266.411 26.7537 264.836 26.7537 264.836L18.9002 189.15L14.5609 180.954Z" fill="#FAA56D"/>
<path d="M46.3282 149.164C46.3282 149.164 33.3424 158.389 30.471 161.111C18.471 172.468 15.9531 177.107 14.5603 180.954C13.1674 184.8 22.896 274.018 22.896 274.018L24.8674 289.607L116.003 289.843V210.204L102.31 154.157L93.8889 151.757L92.1853 145.072C92.1853 145.072 81.7174 137.347 64.446 137.122C59.1317 137.057 51.621 139.136 47.421 142.393L46.3282 149.175V149.164Z" fill="#FAA56D"/>
<path d="M92.1108 154.372C92.1108 154.372 101.475 153.954 102.3 154.136C105.182 154.8 113.111 162.064 122.143 171.022C130.757 179.561 147.707 197.347 147.707 197.347C147.707 197.347 150.75 194.272 154.232 198.375L167.614 178.907C167.614 178.907 187.693 181.372 190.854 196.532C190.854 196.532 184.704 208.286 179.657 216.686C179.657 216.686 160.993 247.661 146.25 242.047C132.782 236.925 115.896 223.222 113.518 220.297L93.6858 206.154C93.6858 206.154 80.1108 180.257 86.1108 167.314L92.1108 154.372Z" fill="#FAA56D"/>
<path d="M93.8781 151.747C93.8781 151.747 93.7067 151.725 93.396 151.65C93.0424 151.554 92.5924 151.436 92.046 151.297C90.8674 150.997 89.1638 150.589 87.0317 150.182C82.7781 149.347 76.821 148.554 70.2103 148.104C63.5996 147.697 57.5888 147.739 53.271 148.157C51.1067 148.339 49.371 148.607 48.1817 148.832C47.6246 148.939 47.1638 149.036 46.8103 149.1C46.4996 149.154 46.3281 149.186 46.3281 149.164C46.3281 149.154 46.4888 149.1 46.7996 149.014C47.1531 148.929 47.6031 148.811 48.1603 148.672C49.3496 148.404 51.0853 148.093 53.2496 147.868C57.5781 147.375 63.6103 147.3 70.2424 147.697C76.8638 148.147 82.8317 148.982 87.096 149.893C89.2281 150.332 90.9317 150.782 92.0995 151.136C92.646 151.307 93.0853 151.457 93.4388 151.564C93.7388 151.672 93.8996 151.725 93.8996 151.736L93.8781 151.747Z" fill="#263238"/>
<path d="M58.3826 147.107C58.2754 147.118 57.9647 145.596 57.7076 143.7C57.4397 141.804 57.3218 140.25 57.429 140.239C57.5361 140.229 57.8468 141.75 58.104 143.646C58.3718 145.543 58.4897 147.096 58.3826 147.107Z" fill="#263238"/>
<path d="M61.789 146.818C61.6926 146.85 61.114 145.361 60.9855 143.411C60.8462 141.461 61.2105 139.897 61.3069 139.929C61.4247 139.95 61.2426 141.493 61.3819 143.389C61.5105 145.286 61.8962 146.797 61.7783 146.829L61.789 146.818Z" fill="#263238"/>
<g opacity="0.3">
<path d="M46.6289 149.089C60.8896 151.618 75.3539 149.11 90.4396 150.9C75.8682 147.878 60.686 146.453 46.6289 149.089Z" fill="black"/>
</g>
<g opacity="0.3">
<path d="M21.6002 264.953C13.5752 246.161 14.5288 224.925 15.611 204.525L21.6002 264.953Z" fill="black"/>
</g>
<path d="M14.5605 194.378C14.5605 194.378 14.582 194.453 14.6034 194.614C14.6248 194.796 14.657 195.021 14.6891 195.311C14.7534 195.953 14.8498 196.853 14.9784 198C15.2141 200.368 15.5463 203.743 15.9534 207.9C16.7677 216.257 17.882 227.807 19.2105 240.546C20.5391 253.296 21.8677 264.814 22.9284 273.15C23.4534 277.318 23.9034 280.682 24.2141 283.007C24.3641 284.153 24.482 285.043 24.5677 285.686C24.5998 285.975 24.632 286.2 24.6534 286.382C24.6748 286.543 24.6748 286.618 24.6641 286.618C24.6641 286.618 24.6427 286.543 24.6105 286.382C24.5784 286.2 24.5355 285.975 24.4927 285.686C24.3855 285.043 24.2463 284.153 24.0641 283.018C23.6998 280.693 23.207 277.339 22.6498 273.171C21.5141 264.846 20.1427 253.328 18.8141 240.578C17.4855 227.828 16.4141 216.278 15.6748 207.911C15.3213 203.743 15.0213 200.368 14.8177 198C14.732 196.853 14.657 195.943 14.6034 195.3C14.582 195.011 14.5713 194.775 14.5605 194.593C14.5605 194.432 14.5605 194.357 14.5605 194.357V194.378Z" fill="#263238"/>
<path d="M76.2642 184.307C76.2642 184.307 76.0606 184.329 75.6749 184.339C75.2463 184.339 74.6892 184.339 73.9928 184.35C72.5356 184.35 70.4142 184.361 67.8106 184.425C62.5928 184.543 55.3821 184.929 47.4642 185.861C39.5463 186.804 32.4535 188.132 27.3428 189.236C24.7928 189.793 22.7356 190.264 21.3106 190.618C20.6249 190.779 20.0892 190.907 19.6713 191.004C19.2963 191.089 19.0928 191.121 19.0928 191.111C19.0928 191.1 19.2856 191.036 19.6499 190.929C20.0571 190.811 20.5928 190.661 21.2678 190.468C22.6713 190.071 24.7285 189.557 27.2785 188.968C32.3678 187.789 39.4821 186.418 47.4106 185.464C55.3392 184.521 62.5713 184.189 67.7999 184.146C70.4142 184.125 72.5356 184.146 73.9928 184.2C74.6892 184.221 75.2571 184.243 75.6749 184.264C76.0606 184.286 76.2642 184.296 76.2642 184.318V184.307Z" fill="#263238"/>
<path d="M41.2609 204.257C41.1537 204.257 41.3573 195.718 41.7323 185.196C42.0966 174.675 42.493 166.146 42.6002 166.146C42.7073 166.146 42.5037 174.686 42.1287 185.207C41.7645 195.729 41.368 204.257 41.2609 204.246V204.257Z" fill="#263238"/>
<path d="M87.836 203.196C87.836 203.196 87.7075 203.014 87.4932 202.661C87.2682 202.275 86.9574 201.75 86.5824 201.086C85.7682 199.682 84.6217 197.721 83.2182 195.311C81.836 192.857 80.186 189.889 78.9967 186.321C78.4182 184.532 77.9682 182.603 77.7432 180.578C77.5396 178.543 77.5503 176.421 77.7217 174.268C78.1182 169.971 79.0503 165.878 80.7324 162.503C81.5574 160.811 82.5753 159.321 83.7003 158.078C84.8253 156.836 86.0574 155.861 87.2682 155.1C89.6896 153.589 92.0146 153.053 93.5896 152.978C95.1753 152.893 96.0432 153.118 96.0432 153.118C96.0432 153.171 95.1646 153 93.6003 153.139C92.0467 153.268 89.786 153.836 87.4182 155.346C86.2396 156.096 85.0396 157.071 83.9467 158.303C82.8539 159.536 81.8682 161.003 81.0646 162.675C79.4253 166.007 78.5146 170.046 78.1289 174.311C77.9467 176.443 77.9467 178.543 78.1289 180.546C78.3539 182.55 78.7932 184.457 79.3503 186.225C80.4967 189.761 82.1146 192.718 83.4646 195.193C84.8253 197.636 85.9289 199.618 86.711 201.032C87.0646 201.707 87.3432 202.243 87.5575 202.639C87.7503 203.014 87.836 203.207 87.8253 203.218L87.836 203.196Z" fill="#263238"/>
<g opacity="0.3">
<path d="M20.5714 191.057C26.3249 190.757 32.0571 190.007 37.6928 188.796C36.9964 191.282 36.6749 193.875 36.7392 196.457C38.5178 194.454 39.8357 192.032 40.5428 189.45C40.9392 192.268 42.5357 194.893 44.8607 196.543C45.4285 193.993 45.5571 191.336 45.2464 188.732C53.7642 187.704 62.2392 186.3 70.6392 184.532C53.6464 184.114 36.5999 186.236 20.2285 190.811" fill="black"/>
</g>
<path d="M130.135 233.539C130.135 233.539 129.996 233.464 129.739 233.304C129.46 233.122 129.096 232.875 128.646 232.575C127.703 231.943 126.353 231 124.693 229.832C121.36 227.497 116.807 224.218 111.835 220.511C106.864 216.804 102.418 213.364 99.2355 210.847C97.639 209.582 96.364 208.554 95.4855 207.836C95.0676 207.493 94.7355 207.214 94.4783 207C94.2533 206.807 94.1355 206.7 94.1462 206.689C94.1462 206.689 94.2855 206.764 94.5212 206.947C94.789 207.15 95.1319 207.407 95.5712 207.729C96.5033 208.447 97.7997 209.432 99.3962 210.654C102.621 213.129 107.089 216.525 112.05 220.243C117.021 223.95 121.553 227.25 124.843 229.639C126.46 230.818 127.789 231.772 128.732 232.468C129.171 232.789 129.514 233.047 129.782 233.25C130.018 233.432 130.146 233.529 130.135 233.539Z" fill="#263238"/>
<path d="M152.378 213.225C152.314 213.225 152.357 212.229 152.239 210.621C152.121 209.025 151.8 206.818 151.082 204.482C150.353 202.147 149.368 200.143 148.553 198.761C147.739 197.379 147.139 196.575 147.193 196.543C147.214 196.532 147.375 196.714 147.664 197.068C147.953 197.421 148.328 197.957 148.768 198.632C149.646 199.993 150.675 202.007 151.414 204.375C152.143 206.743 152.432 208.982 152.486 210.6C152.518 211.414 152.507 212.068 152.464 212.518C152.432 212.968 152.4 213.214 152.378 213.214V213.225Z" fill="#263238"/>
<path d="M156.483 211.725C156.429 211.725 156.558 210.943 156.654 209.689C156.75 208.436 156.783 206.689 156.568 204.782C156.343 202.875 155.925 201.182 155.54 199.982C155.165 198.782 154.865 198.054 154.918 198.032C154.94 198.032 155.036 198.193 155.197 198.514C155.358 198.836 155.561 199.307 155.775 199.907C156.215 201.097 156.686 202.811 156.911 204.739C157.136 206.679 157.061 208.447 156.9 209.7C156.825 210.332 156.729 210.836 156.654 211.189C156.579 211.532 156.515 211.725 156.493 211.725H156.483Z" fill="#263238"/>
<path d="M187.564 203.196C187.564 203.196 187.564 203.068 187.414 202.95C187.339 202.896 187.211 202.8 187.146 202.66C187.071 202.521 187.018 202.35 186.921 202.189C186.75 201.857 186.3 201.6 185.989 201.107C185.657 200.635 185.421 200.025 185.186 199.36C184.779 198.021 184.114 196.478 182.914 195.075C182.325 194.368 181.629 193.703 180.868 193.039C180.107 192.375 179.293 191.732 178.404 191.153C177.504 190.543 176.668 189.943 175.757 189.514C174.846 189.075 173.968 188.635 173.132 188.228C172.296 187.832 171.514 187.425 170.754 187.093C169.993 186.771 169.286 186.471 168.632 186.193C168.311 186.043 168 185.946 167.711 185.775C167.432 185.603 167.196 185.421 166.961 185.293C166.714 185.164 166.489 185.046 166.275 184.928C166.061 184.81 165.889 184.66 165.729 184.564C165.407 184.36 165.118 184.253 164.936 184.146C164.754 184.05 164.657 183.985 164.668 183.975C164.668 183.964 164.775 184.007 164.968 184.082C165.161 184.157 165.45 184.253 165.804 184.446C166.136 184.682 166.543 184.875 167.068 185.121C167.325 185.25 167.571 185.432 167.839 185.582C168.096 185.732 168.429 185.828 168.75 185.968C169.404 186.235 170.121 186.525 170.882 186.825C171.643 187.135 172.446 187.543 173.293 187.939C174.129 188.346 175.007 188.764 175.929 189.203C176.861 189.632 177.729 190.264 178.607 190.853C179.518 191.443 180.343 192.096 181.114 192.771C181.875 193.446 182.582 194.132 183.182 194.86C184.404 196.307 185.068 197.925 185.443 199.275C185.657 199.939 185.871 200.539 186.171 200.989C186.45 201.45 186.879 201.728 187.061 202.103C187.157 202.285 187.2 202.457 187.254 202.596C187.307 202.735 187.393 202.81 187.479 202.885C187.65 203.046 187.586 203.196 187.586 203.185L187.564 203.196Z" fill="#263238"/>
<path d="M102.643 288.289C102.547 288.289 102.472 271.543 102.472 250.885C102.472 230.228 102.547 213.471 102.643 213.471C102.74 213.471 102.815 230.218 102.815 250.885C102.815 271.553 102.74 288.289 102.643 288.289Z" fill="#263238"/>
</g>
<defs>
<clipPath id="clip0_400_10613">
<rect width="300" height="290.004" fill="white"/>
</clipPath>
</defs>
</svg>
