<svg width="18" height="12" viewBox="0 0 18 12" fill="none" xmlns="http://www.w3.org/2000/svg">
<rect width="18" height="12" rx="6" fill="#FF751A"/>
<g clip-path="url(#clip0_1_776)">
<path d="M6.80789 6.98108C6.73927 6.98108 6.67066 6.98108 6.60891 6.98108C5.80617 6.98108 4.99656 6.98108 4.19382 6.98108C4.13207 6.98108 4.07032 6.98108 4.00857 6.97422C3.86449 6.95363 3.7753 6.85758 3.7753 6.7135C3.7753 6.56941 3.86449 6.48022 4.00171 6.45277C4.06346 6.43905 4.12521 6.44591 4.18696 6.44591C5.09262 6.44591 5.99828 6.44591 6.90394 6.44591C7.0343 6.44591 7.11663 6.41161 7.17838 6.28811C7.24699 6.15089 7.33619 6.02053 7.43224 5.86272C7.34991 5.86272 7.28816 5.85586 7.22641 5.85586C5.97084 5.85586 4.71526 5.85586 3.46655 5.85586C3.14408 5.85586 2.99999 5.76667 3.00686 5.58142C3.00686 5.39617 3.1578 5.31384 3.46655 5.31384C4.8319 5.31384 6.19725 5.30698 7.5626 5.3207C7.83018 5.3207 8.00857 5.24523 8.15265 4.99823C8.08404 4.99823 8.02915 4.99823 7.97427 4.99823C7.21269 4.99823 6.45111 4.99823 5.69639 4.99823C5.6415 4.99823 5.58662 4.99823 5.53173 4.99823C5.38765 4.97078 5.29845 4.87473 5.29845 4.73751C5.29845 4.60029 5.37392 4.50423 5.51801 4.48365C5.6072 4.46993 5.69639 4.46993 5.78559 4.46993C6.753 4.46993 7.71355 4.46993 8.68096 4.46993C8.79759 4.46993 8.93481 4.42876 9.03773 4.37387C9.69639 3.98965 10.3962 3.7701 11.1647 3.72207C11.8851 3.6809 12.5849 3.7701 13.2367 4.07885C14.2453 4.55226 14.7873 5.38245 14.9931 6.45277C15.1029 7.00852 15.0892 7.56427 14.9931 8.12687C14.9657 8.31212 14.8765 8.38759 14.6912 8.38759C12.084 8.38759 9.47684 8.38759 6.86963 8.38759C6.63636 8.38759 6.53344 8.27096 6.57461 8.03768C6.64322 7.70149 6.73241 7.37216 6.82161 7.01538L6.80789 6.98108ZM10.8147 7.83185C11.9811 7.83185 13.1475 7.83185 14.307 7.83185C14.4374 7.83185 14.4991 7.8044 14.4923 7.66032C14.4717 7.29669 14.4991 6.92619 14.4443 6.56941C14.2796 5.55398 13.7581 4.79926 12.7633 4.43562C12.036 4.16804 11.2813 4.13373 10.5334 4.31212C8.76329 4.74437 7.70668 5.92447 7.17152 7.61916C7.10977 7.81813 7.11663 7.82499 7.32246 7.82499C8.48199 7.82499 9.6415 7.82499 10.801 7.82499L10.8147 7.83185Z" fill="white"/>
<path d="M10.5952 8.66894C11.9606 8.66894 13.3259 8.66894 14.6913 8.66894C15.0206 8.66894 15.2127 8.80616 15.3156 9.08747C15.4117 9.34133 15.2882 9.67066 15.0412 9.84905C14.8697 9.97254 14.6775 9.99999 14.4717 9.99999C13.1681 9.99999 11.8645 9.99999 10.5609 9.99999C9.223 9.99999 7.88509 9.99999 6.54718 9.99999C6.50602 9.99999 6.45799 9.99999 6.41682 9.99999C5.97771 9.99999 5.69641 9.75299 5.69641 9.38935C5.69641 9.00514 6.0326 8.6758 6.43054 8.66894C6.97257 8.66208 7.51459 8.66894 8.06348 8.66894C8.90739 8.66894 9.7513 8.66894 10.5952 8.66894ZM10.5883 9.20411C9.82677 9.20411 9.06519 9.20411 8.30362 9.20411C7.69984 9.20411 7.09607 9.20411 6.48543 9.20411C6.36193 9.20411 6.2453 9.23841 6.25216 9.37563C6.25216 9.51285 6.38938 9.43738 6.46485 9.45797C6.47857 9.45797 6.48543 9.45797 6.49916 9.45797C9.14753 9.45797 11.7959 9.45797 14.4443 9.45797C14.4854 9.45797 14.5335 9.45797 14.5746 9.45797C14.6981 9.45797 14.801 9.40308 14.801 9.28644C14.801 9.14922 14.6707 9.20411 14.5952 9.20411C13.2573 9.20411 11.9194 9.20411 10.5815 9.20411H10.5883Z" fill="white"/>
<path d="M11.6312 2C12.036 2 12.3173 2.27444 12.3173 2.66552C12.3173 3.11149 11.94 3.49571 11.494 3.49571C11.096 3.49571 10.7942 3.21441 10.7942 2.83019C10.7873 2.38422 11.1715 2 11.6312 2ZM11.3362 2.85763C11.3362 2.85763 11.4185 2.94683 11.4803 2.96055C11.6038 2.98799 11.7753 2.81647 11.7822 2.68611C11.7822 2.59005 11.7341 2.5283 11.6381 2.5283C11.494 2.52144 11.343 2.65866 11.3362 2.85763Z" fill="white"/>
<path d="M8.49571 7.19385C8.24185 7.19385 8.11835 7.0086 8.18696 6.81649C8.32418 6.44599 8.54373 6.13038 8.81132 5.84222C9.22984 5.38939 9.72384 5.05319 10.307 4.8405C10.5677 4.74445 10.7187 4.77875 10.7873 4.95714C10.8491 5.12181 10.7599 5.2453 10.4991 5.34136C9.86106 5.5815 9.33962 5.97258 8.9554 6.52832C8.85248 6.67927 8.78387 6.85079 8.68782 7.00174C8.63293 7.08407 8.54373 7.15268 8.50257 7.18699L8.49571 7.19385Z" fill="white"/>
</g>
<defs>
<clipPath id="clip0_1_776">
<rect width="12.3499" height="8" fill="white" transform="translate(3 2)"/>
</clipPath>
</defs>
</svg>
